<svg width="80" height="81" viewBox="0 0 80 81" fill="none" xmlns="http://www.w3.org/2000/svg">
<path d="M58.3334 46.4165C58.3334 56.7718 50.1253 65.1665 40.0001 65.1665C29.8749 65.1665 21.6667 56.7718 21.6667 46.4165C21.6667 36.0612 29.8749 15.1665 40.0001 15.1665C50.1253 15.1665 58.3334 36.0612 58.3334 46.4165Z" fill="#F2EB76"/>
<path fill-rule="evenodd" clip-rule="evenodd" d="M60 46.4164C60 57.6567 51.0808 66.8331 40 66.8331C28.9192 66.8331 20 57.6567 20 46.4164C20 40.912 22.147 32.8399 25.551 26.1521C27.26 22.7946 29.3349 19.6867 31.7054 17.3948C34.0666 15.1119 36.8717 13.4998 40 13.4998C43.1283 13.4998 45.9334 15.1119 48.2946 17.3948C50.6651 19.6867 52.74 22.7946 54.449 26.1521C57.853 32.8399 60 40.912 60 46.4164ZM40 65.1664C50.1252 65.1664 58.3333 56.7718 58.3333 46.4164C58.3333 36.0611 50.1252 15.1664 40 15.1664C29.8748 15.1664 21.6667 36.0611 21.6667 46.4164C21.6667 56.7718 29.8748 65.1664 40 65.1664Z" fill="#538642"/>
<path fill-rule="evenodd" clip-rule="evenodd" d="M40.0001 65.1665C50.1253 65.1665 58.3334 56.7718 58.3334 46.4165C58.3334 36.0612 50.1253 15.1665 40.0001 15.1665C29.8749 15.1665 21.6667 36.0612 21.6667 46.4165C21.6667 56.7718 29.8749 65.1665 40.0001 65.1665ZM40.0001 63.4998C49.2048 63.4998 56.6667 55.8047 56.6667 46.3123C56.6667 36.8199 49.2048 17.6665 40.0001 17.6665C30.7953 17.6665 23.3334 36.8199 23.3334 46.3123C23.3334 55.8047 30.7953 63.4998 40.0001 63.4998Z" fill="#D9DE2E"/>
<path d="M52.8853 56.2756C52.2411 56.9804 51.1475 57.0295 50.4427 56.3853C49.7379 55.741 49.6888 54.6474 50.333 53.9426C50.9773 53.2379 52.0709 53.1888 52.7757 53.833C53.4804 54.4772 53.5295 55.5708 52.8853 56.2756Z" fill="#C4CB29"/>
<path d="M46.2186 62.1088C45.5743 62.8136 44.4807 62.8627 43.776 62.2185C43.0712 61.5743 43.0221 60.4807 43.6663 59.7759C44.3105 59.0711 45.4041 59.022 46.1089 59.6662C46.8137 60.3105 46.8628 61.4041 46.2186 62.1088Z" fill="#C4CB29"/>
<path d="M27.0521 52.9423C26.4078 53.6471 25.3142 53.6962 24.6095 53.052C23.9047 52.4078 23.8556 51.3142 24.4998 50.6094C25.144 49.9046 26.2376 49.8555 26.9424 50.4997C27.6472 51.144 27.6963 52.2376 27.0521 52.9423Z" fill="#C4CB29"/>
<path d="M50.1079 60.1977C49.6561 60.692 48.8891 60.7264 48.3948 60.2746C47.9005 59.8228 47.8661 59.0558 48.3179 58.5615C48.7697 58.0672 49.5367 58.0328 50.031 58.4846C50.5253 58.9364 50.5597 59.7034 50.1079 60.1977Z" fill="#C4CB29"/>
<path d="M41.7746 63.5309C41.3228 64.0252 40.5559 64.0596 40.0616 63.6078C39.5673 63.156 39.5328 62.389 39.9847 61.8948C40.4365 61.4005 41.2034 61.366 41.6977 61.8178C42.192 62.2697 42.2265 63.0366 41.7746 63.5309Z" fill="#C4CB29"/>
<path d="M28.4414 56.0309C27.9896 56.5252 27.2226 56.5596 26.7283 56.1078C26.234 55.656 26.1996 54.889 26.6514 54.3948C27.1032 53.9005 27.8702 53.866 28.3645 54.3178C28.8588 54.7697 28.8932 55.5366 28.4414 56.0309Z" fill="#C4CB29"/>
<path d="M26.7746 47.6977C26.3228 48.192 25.5559 48.2264 25.0616 47.7746C24.5673 47.3228 24.5328 46.5558 24.9847 46.0615C25.4365 45.5672 26.2034 45.5328 26.6977 45.9846C27.192 46.4364 27.2265 47.2034 26.7746 47.6977Z" fill="#C4CB29"/>
<path d="M55.9414 52.6977C55.4896 53.192 54.7226 53.2264 54.2283 52.7746C53.734 52.3228 53.6996 51.5558 54.1514 51.0615C54.6032 50.5672 55.3702 50.5328 55.8645 50.9846C56.3588 51.4364 56.3932 52.2034 55.9414 52.6977Z" fill="#C4CB29"/>
<path d="M51.6666 46.8332C51.6666 53.2765 46.4432 58.4998 39.9999 58.4998C33.5566 58.4998 28.3333 53.2765 28.3333 46.8332C28.3333 40.3898 33.5566 35.1665 39.9999 35.1665C46.4432 35.1665 51.6666 40.3898 51.6666 46.8332Z" fill="#BAC73A"/>
<path d="M47.5 46.833C47.5 50.9751 44.1421 54.333 40 54.333C35.8579 54.333 32.5 50.9751 32.5 46.833C32.5 42.6909 35.8579 39.333 40 39.333C44.1421 39.333 47.5 42.6909 47.5 46.833Z" fill="#B6472C"/>
<path fill-rule="evenodd" clip-rule="evenodd" d="M49.1666 46.8332C49.1666 51.8958 45.0625 55.9998 39.9999 55.9998C34.9373 55.9998 30.8333 51.8958 30.8333 46.8332C30.8333 41.7706 34.9373 37.6665 39.9999 37.6665C45.0625 37.6665 49.1666 41.7706 49.1666 46.8332ZM39.9999 54.3332C44.1421 54.3332 47.4999 50.9753 47.4999 46.8332C47.4999 42.691 44.1421 39.3332 39.9999 39.3332C35.8578 39.3332 32.4999 42.691 32.4999 46.8332C32.4999 50.9753 35.8578 54.3332 39.9999 54.3332Z" fill="#662513"/>
<path fill-rule="evenodd" clip-rule="evenodd" d="M39.1667 51.833C43.3088 51.833 46.6667 48.4751 46.6667 44.333C46.6667 43.964 46.64 43.6013 46.5886 43.2466C47.1697 44.312 47.5 45.5339 47.5 46.833C47.5 50.9751 44.1422 54.333 40 54.333C36.2268 54.333 33.1044 51.5467 32.5781 47.9194C33.85 50.251 36.3236 51.833 39.1667 51.833Z" fill="#A43E25"/>
<path d="M38.3333 44.3332C38.3333 45.2536 37.5871 45.9998 36.6667 45.9998C35.7462 45.9998 35 45.2536 35 44.3332C35 43.4127 35.7462 42.6665 36.6667 42.6665C37.5871 42.6665 38.3333 43.4127 38.3333 44.3332Z" fill="#F5A05F"/>
<path d="M39.2227 20.3507C40.5345 21.7647 39.8786 24.5061 37.7576 26.4738C35.6367 28.4416 32.8538 28.8905 31.542 27.4765C30.2302 26.0625 30.8861 23.3211 33.0071 21.3534C35.1281 19.3856 37.9109 18.9367 39.2227 20.3507Z" fill="#FFFAA3"/>
<path fill-rule="evenodd" clip-rule="evenodd" d="M35.3721 25.3847C36.1559 24.9644 36.4747 23.9963 36.0829 23.1889C35.6811 22.3608 34.684 22.0152 33.8558 22.417C33.6101 22.5362 33.335 22.6828 33.0941 22.879C32.7853 23.1303 32.5905 23.413 32.4621 23.7061C32.4231 23.7952 32.3846 23.902 32.3831 23.9063L32.3831 23.9064C32.3821 23.9089 32.3813 23.911 32.3806 23.9129C32.3721 23.926 32.3534 23.9527 32.3188 23.9949C31.7352 24.7068 31.8393 25.757 32.5512 26.3405C33.263 26.924 34.3132 26.82 34.8967 26.1081C35.1069 25.8516 35.2583 25.616 35.3721 25.3847ZM32.3865 23.9033C32.3865 23.9033 32.3859 23.9045 32.3843 23.907C32.3856 23.9046 32.3864 23.9033 32.3865 23.9033Z" fill="white"/>
</svg>
