<svg width="80" height="81" viewBox="0 0 80 81" fill="none" xmlns="http://www.w3.org/2000/svg">
<path d="M30.5132 69.7416L23.6367 62.9299C22.4652 61.7695 23.5855 59.3949 25.1912 59.0203C31.7757 57.4844 35.4355 50.5876 38.8047 46.1751L38.827 46.1458C43.0087 40.6691 43.3736 40.1914 53.7892 38.1477C59.1726 37.0915 62.0137 34.315 63.3726 31.7569C64.0599 30.4628 66.154 29.7729 67.1867 30.8124L73.0894 36.7531C73.4709 37.1371 73.6488 37.6855 73.5221 38.2117C71.713 45.7305 64.2083 48.6106 60.5576 49.1116C55.6172 49.8813 51.6504 51.2161 46.4337 59.9566C41.5431 68.1508 34.8376 70.1666 31.5557 70.1911C31.162 70.1941 30.7929 70.0187 30.5132 69.7416Z" fill="#D2492A"/>
<path fill-rule="evenodd" clip-rule="evenodd" d="M38.8271 46.1459L38.8047 46.1751C38.2022 46.9643 37.5902 47.8329 36.9541 48.7361C34.0329 52.8831 30.5982 57.7591 25.1913 59.0204C23.5856 59.3949 22.4652 61.7695 23.6366 62.93L30.5132 69.7417L29.3403 70.9258L22.4637 64.114C21.2072 62.8694 21.3568 61.1605 21.839 60.0277C22.3249 58.8862 23.3657 57.7348 24.8127 57.3973C27.6176 56.743 29.8945 54.9276 31.9494 52.579C32.973 51.4091 33.9136 50.1398 34.8247 48.8607C35.0737 48.5111 35.3232 48.157 35.5722 47.8036C36.2159 46.8898 36.8567 45.98 37.4801 45.1637V45.1636L37.5024 45.1345V45.1344C37.5521 45.0693 37.6014 45.0048 37.6502 44.9407C39.6055 42.379 40.9397 40.6309 43.1639 39.401C45.3564 38.1885 48.3405 37.5184 53.4684 36.5124C58.3651 35.5516 60.7802 33.0845 61.9007 30.9751C62.4979 29.8508 63.6126 29.1057 64.7058 28.8033C65.7927 28.5026 67.2821 28.5437 68.3691 29.6377L74.2717 35.5785C75.02 36.3316 75.4176 37.459 75.1427 38.6017L73.5222 38.2118C73.6489 37.6855 73.471 37.1373 73.0895 36.7533L67.1868 30.8125C66.154 29.773 64.06 30.4629 63.3726 31.757C62.0138 34.315 59.1727 37.0916 53.7893 38.1478C43.3736 40.1915 43.0088 40.6692 38.8271 46.1459ZM60.7999 50.7607C58.4193 51.1323 56.4844 51.612 54.5302 52.9277C52.5484 54.2619 50.4047 56.5554 47.8649 60.811C42.6708 69.5135 35.4226 71.829 31.5682 71.8579C30.6608 71.8646 29.8817 71.462 29.3403 70.9258L30.5132 69.7417C30.793 70.0188 31.162 70.1942 31.5557 70.1912C34.8376 70.1667 41.5432 68.1509 46.4337 59.9568C51.6505 51.2162 55.6173 49.8814 60.5577 49.1117C64.2084 48.6107 71.713 45.7305 73.5222 38.2118L75.1427 38.6017C74.1179 42.8604 71.4767 45.7806 68.6612 47.676C65.8764 49.5508 62.8493 50.4769 60.7999 50.7607Z" fill="#9B0D0D"/>
<path d="M53.7892 38.1477C59.1726 37.0915 62.0137 34.315 63.3726 31.7569C64.0599 30.4628 66.154 29.7729 67.1867 30.8124L68.5874 32.2221C68.8977 32.5344 69.0782 32.9583 69.0493 33.3975C68.5267 41.3323 59.0454 45.5997 54.7917 46.1751C50.4167 46.7668 44.6876 43.9166 38.8047 53.2916C34.5856 60.0152 29.1392 63.2615 26.2352 64.3291C25.6848 64.5315 25.0816 64.3612 24.665 63.9486L23.6367 62.9299C22.4652 61.7695 23.5855 59.3949 25.1912 59.0203C31.7757 57.4844 35.4355 50.5876 38.8047 46.1751L38.827 46.1458C43.0087 40.6691 43.3736 40.1914 53.7892 38.1477Z" fill="#B0351A"/>
<path d="M64.0588 43.2148C63.6571 43.5181 63.1277 43.4942 62.8763 43.1613C62.625 42.8284 62.7469 42.3127 63.1487 42.0094C63.5504 41.706 64.0799 41.7299 64.3312 42.0629C64.5825 42.3957 64.4606 42.9114 64.0588 43.2148Z" fill="#A42F15"/>
<path d="M63.6243 40.4245C63.2225 40.7278 62.6931 40.7039 62.4418 40.371C62.1904 40.0382 62.3124 39.5224 62.7141 39.2191C63.1159 38.9157 63.6453 38.9397 63.8966 39.2726C64.1479 39.6054 64.026 40.1212 63.6243 40.4245Z" fill="#A42F15"/>
<path d="M60.8145 44.2125C60.4127 44.5158 59.8833 44.4919 59.632 44.1591C59.3806 43.8263 59.5025 43.3105 59.9043 43.0072C60.306 42.7038 60.8355 42.7278 61.0868 43.0606C61.3381 43.3934 61.2162 43.9092 60.8145 44.2125Z" fill="#A42F15"/>
<path d="M63.1906 46.1007C62.7889 46.404 62.2595 46.3801 62.0082 46.0473C61.7569 45.7144 61.8788 45.1987 62.2804 44.8954C62.6822 44.592 63.2116 44.6159 63.4629 44.9488C63.7143 45.2817 63.5924 45.7974 63.1906 46.1007Z" fill="#A42F15"/>
<path d="M66.8541 41.1229C66.2906 41.5484 65.5479 41.5148 65.1954 41.0479C64.8428 40.5809 65.0138 39.8574 65.5773 39.4319C66.1408 39.0064 66.8835 39.04 67.236 39.5069C67.5886 39.9739 67.4176 40.6974 66.8541 41.1229Z" fill="#A42F15"/>
<path d="M66.7652 44.6208C66.2017 45.0463 65.459 45.0127 65.1065 44.5458C64.7539 44.0789 64.9249 43.3555 65.4884 42.93C66.052 42.5045 66.7946 42.5381 67.1472 43.005C67.4998 43.4719 67.3287 44.1953 66.7652 44.6208Z" fill="#A42F15"/>
<path d="M70.3729 41.2007C69.8093 41.6262 69.0667 41.5926 68.7142 41.1257C68.3616 40.6587 68.5327 39.9353 69.0962 39.5098C69.6597 39.0843 70.4023 39.1179 70.7548 39.5848C71.1074 40.0517 70.9364 40.7752 70.3729 41.2007Z" fill="#A42F15"/>
<path d="M68.7751 38.3841C68.4712 38.6136 68.0706 38.5955 67.8805 38.3436C67.6902 38.0917 67.7825 37.7016 68.0865 37.472C68.3905 37.2425 68.7911 37.2606 68.9812 37.5125C69.1714 37.7643 69.0791 38.1546 68.7751 38.3841Z" fill="#A42F15"/>
<path d="M68.6255 36.3518C68.3215 36.5813 67.9209 36.5633 67.7308 36.3113C67.5406 36.0595 67.6328 35.6693 67.9368 35.4398C68.2408 35.2103 68.6413 35.2283 68.8315 35.4802C69.0217 35.7321 68.9294 36.1223 68.6255 36.3518Z" fill="#A42F15"/>
<path d="M66.4885 38.0806C66.1845 38.3101 65.784 38.292 65.5938 38.0401C65.4036 37.7883 65.4959 37.3981 65.7999 37.1686C66.1038 36.939 66.5044 36.9571 66.6945 37.209C66.8848 37.4608 66.7925 37.8511 66.4885 38.0806Z" fill="#A42F15"/>
<path d="M64.5132 35.9732C64.2093 36.2027 63.8087 36.1846 63.6185 35.9328C63.4283 35.6808 63.5205 35.2906 63.8245 35.0611C64.1285 34.8316 64.5291 34.8497 64.7193 35.1016C64.9094 35.3534 64.8172 35.7437 64.5132 35.9732Z" fill="#A42F15"/>
<path d="M59.4153 47.0669C59.1113 47.2964 58.7107 47.2783 58.5206 47.0265C58.3304 46.7746 58.4226 46.3843 58.7266 46.1548C59.0306 45.9253 59.4311 45.9434 59.6213 46.1953C59.8115 46.4472 59.7192 46.8374 59.4153 47.0669Z" fill="#A42F15"/>
<path d="M60.9529 39.8372C60.6489 40.0667 60.2483 40.0486 60.0581 39.7967C59.868 39.5449 59.9602 39.1546 60.2642 38.9251C60.5681 38.6956 60.9687 38.7137 61.1589 38.9655C61.3492 39.2174 61.2569 39.6076 60.9529 39.8372Z" fill="#A42F15"/>
<path fill-rule="evenodd" clip-rule="evenodd" d="M41.9635 44.3586C42.5929 43.6869 43.6477 43.6527 44.3193 44.2822L50.2756 49.8641C50.9472 50.4935 50.9814 51.5482 50.352 52.2198C49.7226 52.8915 48.6679 52.9257 47.9962 52.2963L42.0399 46.7143C41.3683 46.0849 41.3341 45.0302 41.9635 44.3586Z" fill="#E05739"/>
<path fill-rule="evenodd" clip-rule="evenodd" d="M26.1521 60.5149C26.7892 59.8505 27.8443 59.8283 28.5086 60.4654L33.8998 65.6346C34.5643 66.2716 34.5864 67.3267 33.9494 67.9911C33.3123 68.6555 32.2573 68.6777 31.5928 68.0406L26.2017 62.8714C25.5373 62.2344 25.5151 61.1793 26.1521 60.5149Z" fill="#E05739"/>
<path fill-rule="evenodd" clip-rule="evenodd" d="M70.4527 36.9369C70.8572 37.1563 71.0073 37.6621 70.7879 38.0667C68.1734 42.888 64.693 45.3046 60.0019 46.3521C58.7482 46.632 57.6811 46.8297 56.7217 47.0075C54.1576 47.4827 52.3642 47.8151 49.8396 49.1916C48.2359 50.066 47.0898 51.5356 45.8104 53.5334C45.5086 54.0047 45.1997 54.5051 44.8765 55.0286C43.8547 56.6833 42.69 58.5696 41.1542 60.5034C37.9632 64.5211 34.404 66.1231 31.8712 67.0082C31.4367 67.1601 30.9614 66.9309 30.8096 66.4965C30.6577 66.062 30.8869 65.5866 31.3213 65.4348C33.6876 64.6079 36.9254 63.148 39.8492 59.4668C41.3176 57.6179 42.4102 55.8488 43.423 54.2089C43.7561 53.6696 44.0806 53.1442 44.4069 52.6346C45.7022 50.612 47.0392 48.8202 49.0417 47.7283C51.8153 46.216 53.9277 45.8251 56.5911 45.3321C57.5223 45.1598 58.5209 44.975 59.6387 44.7254C63.8671 43.7813 66.9417 41.6631 69.3228 37.2721C69.5422 36.8676 70.0481 36.7175 70.4527 36.9369Z" fill="#FD9E75"/>
<path fill-rule="evenodd" clip-rule="evenodd" d="M67.012 33.9163C67.4045 34.1566 67.5278 34.6697 67.2874 35.0621C64.566 39.5055 61.2892 41.7807 56.5813 42.755C55.3716 43.0053 54.3318 43.1747 53.399 43.3266C50.7396 43.7598 48.95 44.0513 46.5742 45.6734C44.64 46.994 43.3775 48.4271 42.102 50.1785C41.6521 50.796 41.1875 51.4737 40.686 52.2054C39.7929 53.5081 38.7824 54.9821 37.5282 56.5937C34.2755 60.7737 31.038 62.5958 28.1651 62.9605C27.7086 63.0185 27.2915 62.6954 27.2335 62.2388C27.1755 61.7822 27.4987 61.3651 27.9553 61.3071C30.2619 61.0143 33.1388 59.5205 36.2129 55.5701C37.449 53.9816 38.3873 52.6111 39.2531 51.3463C39.7634 50.6009 40.2485 49.8921 40.7548 49.1972C42.0951 47.357 43.4879 45.7625 45.6345 44.297C48.3391 42.4503 50.5675 42.0893 53.3501 41.6385C54.2457 41.4935 55.1987 41.3391 56.2435 41.1229C60.485 40.2452 63.3767 38.2562 65.8661 34.1917C66.1065 33.7992 66.6195 33.6759 67.012 33.9163Z" fill="#FD9E75"/>
<path d="M9.38497 43.1578L4.82875 34.618C4.05257 33.1632 5.82463 31.2258 7.46938 31.3425C14.2137 31.8211 19.7482 26.314 24.271 23.0944L24.301 23.073C29.9145 19.0769 30.4042 18.7282 40.9586 19.8542C46.4136 20.4361 49.9484 18.6233 52.0026 16.581C53.0417 15.548 55.2461 15.5077 55.9256 16.806L59.8087 24.2259C60.0597 24.7055 60.0676 25.2819 59.7911 25.7472C55.8406 32.3954 47.8201 32.929 44.1844 32.3286C39.2371 31.6039 35.0531 31.7067 27.4862 38.515C20.3923 44.8978 13.3906 44.8418 10.2481 43.8953C9.87106 43.7818 9.57031 43.5051 9.38497 43.1578Z" fill="#D4482A"/>
<path fill-rule="evenodd" clip-rule="evenodd" d="M24.3011 23.0729L24.2711 23.0942C23.4622 23.6701 22.6209 24.3191 21.7462 24.9939C17.7299 28.0923 13.0076 31.7354 7.46951 31.3423C5.82476 31.2256 4.05271 33.163 4.82888 34.6178L9.38511 43.1576L7.91466 43.9421L3.35841 35.4024C2.52589 33.842 3.17379 32.2536 3.96926 31.314C4.77081 30.3671 6.10542 29.5746 7.58751 29.6799C10.4605 29.8838 13.1722 28.8224 15.8294 27.186C17.153 26.3709 18.4267 25.4362 19.6752 24.4836C20.0164 24.2232 20.3594 23.9587 20.7017 23.6946C21.5867 23.0118 22.4678 22.3321 23.3045 21.7365L23.3345 21.7151V21.7151C23.4012 21.6676 23.4674 21.6205 23.533 21.5737C26.158 19.7043 27.9493 18.4286 30.4376 17.911C32.8904 17.4006 35.9394 17.6425 41.1355 18.1968C46.0974 18.7261 49.1338 17.0831 50.8276 15.399C51.7304 14.5014 53.0155 14.1191 54.1493 14.1532C55.2764 14.1871 56.6872 14.6666 57.4023 16.0331L61.2855 23.453C61.7778 24.3935 61.8244 25.5881 61.224 26.5985L59.7913 25.7471C60.0678 25.2817 60.0599 24.7054 59.8089 24.2257L55.9257 16.8058C55.2462 15.5076 53.0419 15.5478 52.0027 16.5809C49.9485 18.6231 46.4138 20.436 40.9588 19.8541C30.4044 18.7281 29.9146 19.0767 24.3011 23.0729ZM43.9285 33.9755C41.5445 33.6269 39.5543 33.5132 37.2984 34.1926C35.0109 34.8816 32.2852 36.4391 28.6011 39.7539C21.067 46.5327 13.4583 46.6026 9.76752 45.4911C8.89869 45.2293 8.27337 44.6145 7.91466 43.9421L9.38511 43.1576C9.57044 43.505 9.87119 43.7816 10.2482 43.8951C13.3907 44.8416 20.3924 44.8976 27.4864 38.5149C35.0532 31.7066 39.2373 31.6037 44.1845 32.3285C47.8202 32.9288 55.8408 32.3952 59.7913 25.7471L61.224 26.5985C58.9865 30.3641 55.6001 32.3732 52.3504 33.3519C49.1358 34.3199 45.9703 34.31 43.9285 33.9755Z" fill="#891616"/>
<path d="M49.808 28.197C49.3041 28.4137 48.75 28.2509 48.5704 27.8334C48.3908 27.4159 48.6537 26.9018 49.1576 26.6851C49.6615 26.4683 50.2156 26.6311 50.3951 27.0486C50.5747 27.4661 50.3118 27.9803 49.808 28.197Z" fill="#AD2F13"/>
<path d="M50.0723 25.131C49.5684 25.3478 49.0144 25.185 48.8348 24.7675C48.6552 24.35 48.9181 23.8358 49.422 23.6192C49.9259 23.4024 50.4799 23.5652 50.6595 23.9827C50.839 24.4002 50.5762 24.9143 50.0723 25.131Z" fill="#AD2F13"/>
<path d="M46.1155 28.4106C45.6117 28.6274 45.0576 28.4646 44.878 28.0471C44.6984 27.6296 44.9613 27.1155 45.4652 26.8987C45.9691 26.682 46.5232 26.8447 46.7028 27.2622C46.8823 27.6797 46.6194 28.1939 46.1155 28.4106Z" fill="#AD2F13"/>
<path d="M48.1402 31.0256C47.6363 31.2423 47.0823 31.0795 46.9027 30.662C46.7231 30.2445 46.9859 29.7305 47.4898 29.5137C47.9937 29.297 48.5478 29.4597 48.7273 29.8772C48.9069 30.2947 48.644 30.8089 48.1402 31.0256Z" fill="#AD2F13"/>
<path d="M53.3093 26.7085C52.6024 27.0126 51.8253 26.7843 51.5734 26.1986C51.3214 25.613 51.6903 24.8918 52.397 24.5878C53.1039 24.2837 53.8811 24.512 54.133 25.0977C54.3849 25.6833 54.0161 26.4045 53.3093 26.7085Z" fill="#AD2F13"/>
<path d="M52.3071 30.3873C51.6002 30.6913 50.8231 30.463 50.5712 29.8774C50.3192 29.2917 50.6881 28.5705 51.3948 28.2665C52.1017 27.9624 52.8789 28.1907 53.1308 28.7764C53.3827 29.3621 53.0139 30.0832 52.3071 30.3873Z" fill="#AD2F13"/>
<path d="M57.0129 27.7044C56.3061 28.0085 55.5289 27.7802 55.277 27.1945C55.0251 26.6088 55.3938 25.8877 56.1006 25.5836C56.8075 25.2796 57.5846 25.5079 57.8366 26.0936C58.0885 26.6792 57.7197 27.4004 57.0129 27.7044Z" fill="#AD2F13"/>
<path d="M56.0533 24.3089C55.6721 24.4729 55.2528 24.3497 55.117 24.0338C54.9811 23.7179 55.18 23.3289 55.5612 23.1649C55.9425 23.0009 56.3617 23.1241 56.4976 23.44C56.6335 23.7559 56.4346 24.1449 56.0533 24.3089Z" fill="#AD2F13"/>
<path d="M56.4224 22.1192C56.0412 22.2832 55.6219 22.16 55.4861 21.8441C55.3502 21.5283 55.5491 21.1392 55.9304 20.9752C56.3116 20.8112 56.7309 20.9344 56.8668 21.2503C57.0026 21.5662 56.8037 21.9552 56.4224 22.1192Z" fill="#AD2F13"/>
<path d="M53.712 23.3943C53.3307 23.5583 52.9115 23.4352 52.7757 23.1193C52.6397 22.8034 52.8387 22.4144 53.22 22.2504C53.6012 22.0864 54.0204 22.2095 54.1563 22.5254C54.2923 22.8413 54.0933 23.2304 53.712 23.3943Z" fill="#AD2F13"/>
<path d="M52.1686 20.6509C51.7873 20.8149 51.3681 20.6918 51.2322 20.3759C51.0963 20.06 51.2952 19.6709 51.6765 19.5069C52.0577 19.3429 52.477 19.4661 52.6128 19.782C52.7487 20.0979 52.5498 20.4869 52.1686 20.6509Z" fill="#AD2F13"/>
<path d="M43.8939 31.0682C43.5126 31.2322 43.0934 31.109 42.9575 30.7931C42.8216 30.4772 43.0205 30.0882 43.4018 29.9242C43.783 29.7602 44.2023 29.8833 44.3382 30.1993C44.474 30.5152 44.2751 30.9042 43.8939 31.0682Z" fill="#AD2F13"/>
<path d="M47.3978 23.8162C47.0165 23.9801 46.5973 23.8571 46.4615 23.5411C46.3255 23.2252 46.5245 22.8362 46.9057 22.6722C47.287 22.5082 47.7062 22.6314 47.8421 22.9472C47.9779 23.2631 47.779 23.6522 47.3978 23.8162Z" fill="#AD2F13"/>
<path fill-rule="evenodd" clip-rule="evenodd" d="M28.1977 21.363C28.993 20.8997 30.0135 21.1689 30.4767 21.9643L35.1904 30.0568C35.6536 30.8521 35.3845 31.8724 34.589 32.3358C33.7937 32.799 32.7733 32.5299 32.31 31.7344L27.5964 23.642C27.1331 22.8466 27.4023 21.8263 28.1977 21.363Z" fill="#EB5E3F"/>
<path fill-rule="evenodd" clip-rule="evenodd" d="M7.04869 32.3348C7.85957 31.8992 8.87 32.2033 9.30567 33.0143L13.3955 40.6278C13.8311 41.4387 13.5268 42.4491 12.716 42.8848C11.9051 43.3203 10.8946 43.0161 10.459 42.2052L6.36917 34.5917C5.93357 33.7807 6.2378 32.7703 7.04869 32.3348Z" fill="#EB5E3F"/>
<path fill-rule="evenodd" clip-rule="evenodd" d="M57.2355 23.622C57.5572 23.9512 57.5511 24.4788 57.2219 24.8004C53.2993 28.6336 49.2602 29.9138 44.4691 29.5279C43.1887 29.4248 42.1107 29.2984 41.1418 29.1848C38.5517 28.8808 36.7401 28.6683 33.9215 29.2373C32.1311 29.5987 30.6018 30.664 28.7892 32.1944C28.3615 32.5554 27.9185 32.9421 27.4551 33.3467C25.9898 34.6256 24.3198 36.0834 22.281 37.4769C18.0453 40.3721 14.1714 40.8506 11.4902 40.9477C11.0303 40.9643 10.6439 40.6049 10.6273 40.145C10.6107 39.6851 10.97 39.2987 11.4299 39.2821C13.9348 39.1914 17.4596 38.7536 21.3406 36.1009C23.2898 34.7686 24.8565 33.4014 26.3088 32.1341C26.7863 31.7173 27.2516 31.3113 27.714 30.9209C29.5492 29.3715 31.3559 28.0548 33.5918 27.6036C36.6884 26.9785 38.822 27.2293 41.512 27.5456C42.4526 27.6562 43.4613 27.7748 44.6028 27.8667C48.9213 28.2144 52.4847 27.0994 56.0571 23.6084C56.3863 23.2868 56.9139 23.2928 57.2355 23.622Z" fill="#E7B469"/>
<path fill-rule="evenodd" clip-rule="evenodd" d="M54.8413 19.7193C55.1451 20.065 55.1113 20.5915 54.7657 20.8954C50.8526 24.336 47.0498 25.5412 42.2643 25.0805C41.0346 24.9622 39.9913 24.8167 39.0552 24.6862C36.3866 24.314 34.5909 24.0636 31.8417 24.9111C29.6037 25.601 27.974 26.5971 26.2378 27.8932C25.6255 28.3502 24.9815 28.8603 24.286 29.4111C23.0478 30.3917 21.6468 31.5012 19.9725 32.6702C15.6296 35.7021 11.9983 36.486 9.14598 35.9853C8.69265 35.9058 8.38965 35.4738 8.46923 35.0205C8.54882 34.5672 8.98073 34.2642 9.43407 34.3437C11.7241 34.7457 14.9141 34.169 19.0184 31.3036C20.6687 30.1513 21.9701 29.1193 23.1711 28.1669C23.8789 27.6056 24.5518 27.0719 25.2408 26.5576C27.0651 25.1957 28.8669 24.0841 31.3507 23.3184C34.4804 22.3536 36.7159 22.6673 39.5074 23.0591C40.4059 23.1852 41.362 23.3193 42.424 23.4215C46.7354 23.8365 50.0857 22.791 53.6651 19.6437C54.0108 19.3399 54.5374 19.3737 54.8413 19.7193Z" fill="#E7B469"/>
<path d="M16.7358 61.1443L10.9897 53.3552C10.0109 52.0283 11.4834 49.8545 13.1276 49.7315C19.8701 49.2275 24.5479 42.9762 28.5561 39.1349L28.5827 39.1095C33.5576 34.3418 33.9916 33.9259 44.5978 33.5099C50.0795 33.295 53.3142 30.9889 55.0506 28.6704C55.929 27.4975 58.1043 27.1382 58.9647 28.3243L63.8825 35.1029C64.2005 35.541 64.2918 36.1102 64.0856 36.6107C61.1406 43.7613 53.2821 45.452 49.5978 45.385C44.5978 45.385 40.4728 46.0933 33.9728 53.9266C27.8791 61.2703 20.9432 62.2299 17.6966 61.749C17.3071 61.6912 16.9695 61.4611 16.7358 61.1443Z" fill="#E85434"/>
<path fill-rule="evenodd" clip-rule="evenodd" d="M28.5828 39.1095L28.5562 39.135C27.8393 39.822 27.101 40.5861 26.3333 41.3806C22.8086 45.0285 18.6643 49.3177 13.1277 49.7316C11.4834 49.8545 10.0109 52.0284 10.9898 53.3553L16.7358 61.1444L15.3946 62.1338L9.64859 54.3447C8.59867 52.9215 9.00942 51.256 9.66026 50.2109C10.3161 49.1578 11.5218 48.1803 13.0034 48.0695C15.8756 47.8549 18.4048 46.4116 20.7968 44.4073C21.9883 43.4089 23.1129 42.2995 24.2103 41.1759C24.5101 40.8689 24.811 40.5574 25.1114 40.2465C25.8882 39.4426 26.6613 38.6424 27.4029 37.9317C27.4029 37.9317 27.4029 37.9317 27.403 37.9317L27.4295 37.9062C27.4887 37.8495 27.5473 37.7934 27.6054 37.7375C29.9317 35.5074 31.5191 33.9855 33.9062 33.1125C36.2591 32.2521 39.3108 32.0494 44.5325 31.8446C49.5187 31.649 52.2848 29.5832 53.7167 27.6714C54.4798 26.6524 55.6959 26.0878 56.8226 25.9572C57.9428 25.8275 59.4082 26.0973 60.3138 27.3456L65.2316 34.1243C65.855 34.9835 66.0743 36.1587 65.6268 37.2455L64.0857 36.6108C64.2918 36.1102 64.2005 35.5411 63.8826 35.103L58.9648 28.3244C58.1043 27.1383 55.929 27.4976 55.0507 28.6705C53.3143 30.989 50.0796 33.295 44.5978 33.51C33.9917 33.9259 33.5577 34.3419 28.5828 39.1095ZM49.5833 47.0517C47.1739 47.0525 45.1883 47.2285 43.0547 48.2277C40.8912 49.241 38.4201 51.1772 35.2554 54.991C28.7836 62.7904 21.2653 63.9625 17.4525 63.3977C16.5548 63.2647 15.847 62.747 15.3946 62.1338L16.7358 61.1444C16.9696 61.4612 17.3072 61.6913 17.6967 61.749C20.9432 62.23 27.8792 61.2704 33.9728 53.9267C40.4728 46.0934 44.5978 45.385 49.5978 45.385C53.2821 45.452 61.1407 43.7614 64.0857 36.6108L65.6268 37.2455C63.9587 41.2956 60.8993 43.7745 57.8258 45.2139C54.7855 46.6376 51.6519 47.0868 49.5833 47.0517Z" fill="#9B0D0D"/>
<path d="M54.5223 40.3938C54.0493 40.6475 53.4954 40.5354 53.2853 40.1435C53.0752 39.7515 53.2883 39.2282 53.7613 38.9746C54.2342 38.7209 54.788 38.8331 54.9982 39.2249C55.2083 39.6169 54.9952 40.1402 54.5223 40.3938Z" fill="#C8391A"/>
<path d="M54.5223 37.3831C54.0493 37.6368 53.4954 37.5246 53.2853 37.1327C53.0752 36.7408 53.2883 36.2175 53.7613 35.9638C54.2342 35.7102 54.788 35.8223 54.9982 36.2142C55.2083 36.6062 54.9952 37.1295 54.5223 37.3831Z" fill="#C8391A"/>
<path d="M50.9405 40.9124C50.4675 41.166 49.9136 41.0539 49.7035 40.662C49.4934 40.2701 49.7065 39.7468 50.1795 39.4931C50.6524 39.2395 51.2062 39.3516 51.4164 39.7435C51.6265 40.1355 51.4135 40.6587 50.9405 40.9124Z" fill="#C8391A"/>
<path d="M53.134 43.2915C52.661 43.5451 52.1072 43.4331 51.8971 43.0411C51.687 42.6492 51.9 42.1259 52.373 41.8723C52.846 41.6187 53.3998 41.7308 53.61 42.1227C53.8201 42.5146 53.607 43.0379 53.134 43.2915Z" fill="#C8391A"/>
<path d="M57.8101 38.6487C57.1466 39.0045 56.3697 38.8472 56.075 38.2975C55.7802 37.7477 56.0791 37.0137 56.7426 36.6579C57.4061 36.3022 58.1829 36.4594 58.4777 37.0092C58.7725 37.5589 58.4736 38.293 57.8101 38.6487Z" fill="#C8391A"/>
<path d="M57.1426 42.3191C56.4791 42.675 55.7023 42.5177 55.4075 41.968C55.1127 41.4182 55.4116 40.6841 56.0751 40.3284C56.7386 39.9726 57.5155 40.1298 57.8102 40.6796C58.105 41.2293 57.8061 41.9634 57.1426 42.3191Z" fill="#C8391A"/>
<path d="M61.5044 39.3084C60.841 39.6642 60.0641 39.5069 59.7693 38.9572C59.4746 38.4074 59.7735 37.6734 60.4369 37.3176C61.1004 36.9618 61.8772 37.1191 62.1721 37.6688C62.4668 38.2186 62.1679 38.9527 61.5044 39.3084Z" fill="#C8391A"/>
<path d="M60.2835 36.0789C59.9257 36.2708 59.5066 36.186 59.3476 35.8895C59.1886 35.5929 59.3499 35.197 59.7078 35.0051C60.0656 34.8131 60.4847 34.898 60.6437 35.1945C60.8027 35.4911 60.6415 35.887 60.2835 36.0789Z" fill="#C8391A"/>
<path d="M60.4593 33.9131C60.1014 34.105 59.6824 34.0202 59.5234 33.7237C59.3644 33.4271 59.5257 33.0312 59.8835 32.8393C60.2414 32.6474 60.6604 32.7322 60.8194 33.0287C60.9784 33.3253 60.8172 33.7212 60.4593 33.9131Z" fill="#C8391A"/>
<path d="M57.9244 35.3838C57.5665 35.5757 57.1475 35.4909 56.9885 35.1944C56.8295 34.8978 56.9907 34.5019 57.3486 34.31C57.7065 34.1181 58.1255 34.2029 58.2845 34.4994C58.4435 34.796 58.2823 35.1919 57.9244 35.3838Z" fill="#C8391A"/>
<path d="M56.1894 32.8394C55.8315 33.0313 55.4125 32.9465 55.2534 32.65C55.0944 32.3534 55.2556 31.9575 55.6136 31.7656C55.9714 31.5736 56.3905 31.6585 56.5495 31.955C56.7085 32.2516 56.5472 32.6475 56.1894 32.8394Z" fill="#C8391A"/>
<path d="M48.9982 43.6898C48.6403 43.8817 48.2213 43.7968 48.0623 43.5003C47.9032 43.2038 48.0644 42.8078 48.4224 42.6159C48.7802 42.424 49.1993 42.5088 49.3583 42.8053C49.5173 43.1018 49.356 43.4978 48.9982 43.6898Z" fill="#C8391A"/>
<path d="M51.8045 36.326C51.4467 36.5179 51.0276 36.433 50.8686 36.1365C50.7096 35.84 50.8709 35.444 51.2288 35.2521C51.5866 35.0602 52.0057 35.145 52.1647 35.4415C52.3237 35.7381 52.1625 36.134 51.8045 36.326Z" fill="#C8391A"/>
<path fill-rule="evenodd" clip-rule="evenodd" d="M32.2357 36.9857C32.9687 36.429 34.0143 36.5719 34.571 37.305L39.9732 44.4189C40.5299 45.1519 40.3869 46.1975 39.6538 46.7542C38.9208 47.3109 37.8752 47.1679 37.3186 46.4349L31.9163 39.3209C31.3597 38.5879 31.5027 37.5424 32.2357 36.9857Z" fill="#FF876D"/>
<path fill-rule="evenodd" clip-rule="evenodd" d="M13.272 51.1496C14.0028 50.59 15.0489 50.7288 15.6085 51.4597L20.542 57.9032C21.1016 58.634 20.9628 59.6801 20.2318 60.2397C19.501 60.7993 18.4549 60.6604 17.8953 59.9296L12.9618 53.4861C12.4023 52.7553 12.5411 51.7091 13.272 51.1496Z" fill="#FF876D"/>
<path fill-rule="evenodd" clip-rule="evenodd" d="M61.249 34.8784C61.615 35.1575 61.6855 35.6804 61.4064 36.0464C58.0809 40.4078 54.27 42.2599 49.4736 42.5727C48.1917 42.6563 47.1068 42.6874 46.1316 42.7154C43.5248 42.7903 41.7016 42.8426 38.9952 43.8141C37.2761 44.4312 35.9175 45.7069 34.3458 47.4839C33.975 47.9032 33.5927 48.35 33.1928 48.8174C31.9285 50.2953 30.4873 51.9799 28.6722 53.6541C24.9008 57.1327 21.1373 58.1678 18.4984 58.6524C18.0457 58.7356 17.6114 58.436 17.5282 57.9834C17.4452 57.5307 17.7447 57.0964 18.1973 57.0132C20.6627 56.5604 24.0867 55.6163 27.5422 52.4289C29.2777 50.8282 30.6297 49.2483 31.8828 47.7839C32.295 47.3023 32.6964 46.8331 33.0973 46.3798C34.6886 44.5807 36.2853 43.0161 38.4322 42.2454C41.4055 41.1781 43.5529 41.1169 46.2603 41.0399C47.2071 41.013 48.2222 40.9841 49.3651 40.9095C53.6883 40.6276 57.0524 39.0079 60.0811 35.0359C60.3602 34.6699 60.8831 34.5994 61.249 34.8784Z" fill="#FAF1D1"/>
<path fill-rule="evenodd" clip-rule="evenodd" d="M58.3144 31.3642C58.6652 31.6621 58.7081 32.188 58.4102 32.5389C55.0372 36.5103 51.4492 38.254 46.6474 38.4919C45.4137 38.5531 44.3602 38.5604 43.4152 38.5669C40.7207 38.5855 38.9077 38.5981 36.3104 39.8352C34.196 40.8422 32.7279 42.064 31.198 43.598C30.6584 44.1391 30.0951 44.7371 29.4868 45.3829C28.4038 46.5326 27.1785 47.8335 25.6912 49.2329C21.8338 52.8624 18.3545 54.1644 15.4597 54.0824C14.9997 54.0694 14.6372 53.6859 14.6502 53.2259C14.6632 52.7659 15.0467 52.4034 15.5068 52.4164C17.831 52.4822 20.9036 51.4491 24.5492 48.019C26.0151 46.6397 27.1531 45.4299 28.2033 44.3134C28.8222 43.6554 29.4107 43.0299 30.0179 42.4211C31.6255 40.8092 33.2471 39.4481 35.5937 38.3304C38.5504 36.9221 40.8078 36.9085 43.6267 36.8914C44.5339 36.8859 45.4993 36.8801 46.5649 36.8273C50.8909 36.6129 54.0544 35.0928 57.1398 31.4599C57.4377 31.1091 57.9636 31.0663 58.3144 31.3642Z" fill="#FAF1D1"/>
</svg>
