<svg width="80" height="81" viewBox="0 0 80 81" fill="none" xmlns="http://www.w3.org/2000/svg">
<path d="M44.2327 26.6694C28.3469 31.0253 16.6747 39.2491 9.45286 50.8339C2.23103 62.4185 9.17344 69.9699 20.7668 68.9922C32.36 68.0144 51.7754 61.4496 63.3686 52.7895C74.9619 44.1295 74.4031 37.9836 72.4476 33.5139C70.4921 29.0441 61.5528 21.9203 44.2327 26.6694Z" fill="#FAB13D"/>
<path fill-rule="evenodd" clip-rule="evenodd" d="M8.03845 49.9521C15.5204 37.9502 27.5776 29.508 43.7919 25.0621C61.6554 20.1639 71.5914 27.3987 73.9745 32.8457C75.0516 35.3078 75.81 38.4074 74.5691 42.1099C73.3524 45.7404 70.297 49.6943 64.3659 54.1247C58.3977 58.583 50.4861 62.4566 42.642 65.3363C34.7999 68.2152 26.8968 70.1477 20.9068 70.6529C14.8024 71.1677 9.4547 69.4751 6.69516 65.5888C3.86968 61.6098 4.23803 56.0484 8.03845 49.9521ZM9.45278 50.8337C16.6746 39.2491 28.3469 31.0252 44.2326 26.6694C61.5527 21.9202 70.492 29.0441 72.4475 33.5138C74.403 37.9835 74.9619 44.1295 63.3685 52.7895C51.7753 61.4496 32.36 68.0144 20.7667 68.9922C9.17337 69.9699 2.23096 62.4185 9.45278 50.8337Z" fill="#B7690D"/>
<path d="M21.9165 39.9866C15.3906 43.9802 11.244 49.1558 9.51673 55.2567C7.78948 61.3577 11.8616 63.8311 16.9082 61.8987C21.9547 59.9662 23.1196 54.0505 27.1748 48.6903C31.23 43.3302 35.6166 41.2978 35.6166 38.3587C35.6166 36.0907 29.0316 35.6323 21.9165 39.9866Z" fill="#FCC66F"/>
<path fill-rule="evenodd" clip-rule="evenodd" d="M19.4525 45.9151C20.1346 46.5332 20.1864 47.5872 19.5683 48.2693C17.0529 51.0449 15.9737 53.4328 15.1414 55.2742C15.0399 55.4988 14.9421 55.7152 14.8457 55.9232C14.4591 56.7585 13.4684 57.1221 12.6332 56.7355C11.7978 56.3487 11.4342 55.3581 11.8209 54.5228C11.9105 54.3291 12.0042 54.1214 12.1037 53.9006C12.9481 52.0271 14.2183 49.2088 17.0983 46.0309C17.7165 45.3488 18.7705 45.297 19.4525 45.9151Z" fill="#FFDFAD"/>
<path fill-rule="evenodd" clip-rule="evenodd" d="M14.8184 68.6765C27.6137 66.1059 44.3916 59.6876 55.1445 51.6554C68.0918 41.9839 67.4677 35.1201 65.2839 30.1284C64.7233 28.8471 63.6488 27.3705 62.034 25.9729C67.9478 27.5546 71.3327 30.9655 72.4475 33.5138C74.403 37.9835 74.9619 44.1294 63.3685 52.7895C51.7753 61.4496 32.3599 68.0144 20.7667 68.9921C18.6009 69.1748 16.5974 69.0598 14.8184 68.6765Z" fill="#EDA024"/>
<path d="M31.941 53.348C28.8123 47.2021 19.5563 43.9896 15.3193 43.1515C16.8838 40.5814 20.0684 38.449 21.4652 37.704C28.2815 41.9502 31.2892 49.9026 31.941 53.348Z" fill="#D08814"/>
<path d="M46.0111 47.8084C42.3572 39.4927 33.9315 33.023 29.6946 32.1849C32.4035 29.917 37.6845 28.709 39.0812 27.9641C46.893 32.1849 45.3592 44.363 46.0111 47.8084Z" fill="#A56112"/>
<path d="M59.7446 38.2328C56.3428 29.728 52.2002 27.9434 48.552 25.6315C50.4839 24.8142 55.4642 25.0044 57.0357 24.8142C60.3116 29.35 60.3116 33.004 59.7446 38.2328Z" fill="#9C5807"/>
<path fill-rule="evenodd" clip-rule="evenodd" d="M20.8163 37.7735C20.9133 37.3236 21.3567 37.0376 21.8066 37.1346C23.6538 37.533 25.9986 39.0359 28.1498 41.545C30.3203 44.0764 32.3473 47.6906 33.5271 52.4263C33.6383 52.8729 33.3665 53.3251 32.9199 53.4364C32.4733 53.5476 32.0212 53.2758 31.9099 52.8292C30.7903 48.3357 28.88 44.9571 26.8846 42.6298C24.8702 40.2803 22.8208 39.0584 21.4552 38.7638C21.0053 38.6668 20.7193 38.2235 20.8163 37.7735Z" fill="#FFDFAC"/>
<path fill-rule="evenodd" clip-rule="evenodd" d="M39.5295 27.8055C39.791 27.4268 40.31 27.3317 40.6888 27.5932C42.2034 28.6391 43.9361 31.0156 45.2863 34.3186C46.65 37.6549 47.6633 42.0302 47.6633 47.1784C47.6633 47.6386 47.2903 48.0117 46.83 48.0117C46.3698 48.0117 45.9967 47.6386 45.9967 47.1784C45.9967 42.247 45.0256 38.0859 43.7435 34.9492C42.4477 31.7792 40.873 29.7459 39.7418 28.9647C39.363 28.7032 39.268 28.1842 39.5295 27.8055Z" fill="#FFDFAC"/>
<path fill-rule="evenodd" clip-rule="evenodd" d="M57.0217 24.6947C57.3138 24.339 57.839 24.2876 58.1946 24.5797C59.7109 25.8252 60.7839 27.9419 61.3579 30.3199C61.9366 32.7176 62.0351 35.4857 61.5069 38.1432C61.4171 38.5946 60.9785 38.8877 60.5271 38.7981C60.0757 38.7083 59.7825 38.2697 59.8722 37.8182C60.352 35.4044 60.2615 32.8807 59.7377 30.711C59.2093 28.5217 58.2663 26.7955 57.1367 25.8676C56.781 25.5754 56.7295 25.0503 57.0217 24.6947Z" fill="#FFDFAC"/>
<path d="M59.5345 49.1069C59.3204 49.9805 58.6241 50.5605 57.9794 50.4025C57.3346 50.2445 56.9854 49.4083 57.1995 48.5346C57.4136 47.661 58.1098 47.081 58.7546 47.239C59.3994 47.397 59.7486 48.2333 59.5345 49.1069Z" fill="#D48A15"/>
<path d="M53.7666 51.3012C53.5927 52.0109 53.0271 52.4821 52.5033 52.3537C51.9795 52.2254 51.6959 51.5461 51.8698 50.8364C52.0437 50.1267 52.6093 49.6556 53.133 49.7839C53.6569 49.9122 53.9405 50.5916 53.7666 51.3012Z" fill="#D48A15"/>
<path d="M57.8931 53.4431C57.7191 54.1527 57.1536 54.624 56.6298 54.4956C56.106 54.3672 55.8224 53.6879 55.9962 52.9782C56.1701 52.2686 56.7357 51.7974 57.2596 51.9257C57.7833 52.0541 58.067 52.7334 57.8931 53.4431Z" fill="#D48A15"/>
<path d="M56.4214 45.5079C56.2475 46.2175 55.6819 46.6888 55.1581 46.5605C54.6343 46.432 54.3507 45.7527 54.5246 45.0431C54.6985 44.3335 55.2641 43.8622 55.7878 43.9905C56.3116 44.1189 56.5953 44.7982 56.4214 45.5079Z" fill="#D48A15"/>
<path d="M63.5959 47.3208C63.422 48.0304 62.8565 48.5017 62.3326 48.3733C61.8089 48.245 61.5252 47.5657 61.6991 46.856C61.873 46.1463 62.4386 45.6751 62.9624 45.8034C63.4862 45.9318 63.7698 46.6112 63.5959 47.3208Z" fill="#D48A15"/>
<path d="M61.5635 44.4166C61.3673 45.2169 60.7296 45.7483 60.1388 45.6035C59.5481 45.4588 59.2283 44.6927 59.4244 43.8924C59.6206 43.0922 60.2583 42.5608 60.849 42.7055C61.4396 42.8503 61.7596 43.6164 61.5635 44.4166Z" fill="#D48A15"/>
<path d="M67.9892 44.8791C67.7931 45.6793 67.1553 46.2108 66.5646 46.066C65.974 45.9213 65.654 45.1552 65.8502 44.3548C66.0463 43.5546 66.6841 43.0232 67.2748 43.1679C67.8654 43.3127 68.1853 44.0788 67.9892 44.8791Z" fill="#D48A15"/>
<path d="M66.405 41.4569C66.2089 42.2571 65.571 42.7886 64.9804 42.6438C64.3897 42.4991 64.0699 41.733 64.266 40.9327C64.462 40.1325 65.0999 39.6011 65.6905 39.7458C66.2812 39.8906 66.601 40.6566 66.405 41.4569Z" fill="#D48A15"/>
<path d="M71.9489 40.9136C71.7528 41.7138 71.115 42.2452 70.5243 42.1005C69.9336 41.9557 69.6138 41.1896 69.8099 40.3894C70.006 39.5891 70.6438 39.0577 71.2345 39.2025C71.8251 39.3471 72.145 40.1133 71.9489 40.9136Z" fill="#D48A15"/>
<path d="M66.1952 48.3798C66.0668 48.9034 65.6494 49.2512 65.2628 49.1565C64.8763 49.0618 64.667 48.5604 64.7953 48.0367C64.9237 47.5129 65.3411 47.1652 65.7276 47.2599C66.1142 47.3547 66.3235 47.856 66.1952 48.3798Z" fill="#D48A15"/>
<path d="M61.8483 51.6556C61.7199 52.1793 61.3026 52.5271 60.916 52.4324C60.5294 52.3377 60.3201 51.8363 60.4484 51.3126C60.5767 50.7888 60.9942 50.4411 61.3807 50.5358C61.7673 50.6306 61.9767 51.1319 61.8483 51.6556Z" fill="#D48A15"/>
<path d="M49.91 58.0499C49.7817 58.5737 49.3643 58.9214 48.9778 58.8267C48.5912 58.732 48.3818 58.2306 48.5102 57.7069C48.6385 57.1832 49.0559 56.8354 49.4425 56.9301C49.829 57.0248 50.0384 57.5262 49.91 58.0499Z" fill="#D48A15"/>
<path d="M54.442 54.8995C54.3137 55.4233 53.8962 55.771 53.5097 55.6763C53.1232 55.5816 52.9138 55.0802 53.0422 54.5565C53.1705 54.0328 53.5879 53.685 53.9745 53.7797C54.361 53.8744 54.5703 54.3758 54.442 54.8995Z" fill="#D48A15"/>
<path d="M51.0919 54.2608C50.9876 54.6867 50.6481 54.9695 50.3338 54.8924C50.0194 54.8154 49.8492 54.4077 49.9536 53.9818C50.0579 53.5559 50.3974 53.2732 50.7117 53.3502C51.0261 53.4272 51.1963 53.8349 51.0919 54.2608Z" fill="#D48A15"/>
<path d="M52.5775 47.7411C52.4492 48.2649 52.0317 48.6126 51.6452 48.5179C51.2587 48.4232 51.0493 47.9218 51.1777 47.3981C51.306 46.8744 51.7234 46.5266 52.1099 46.6214C52.4965 46.7161 52.7058 47.2175 52.5775 47.7411Z" fill="#D48A15"/>
<path d="M59.067 42.3006C58.9387 42.8243 58.5212 43.1721 58.1347 43.0774C57.7482 42.9827 57.5388 42.4813 57.6672 41.9576C57.7955 41.4338 58.2129 41.0861 58.5995 41.1808C58.986 41.2755 59.1953 41.7769 59.067 42.3006Z" fill="#D48A15"/>
<path d="M63.3476 38.8345C63.2193 39.3582 62.8018 39.706 62.4153 39.6112C62.0287 39.5165 61.8193 39.0152 61.9477 38.4914C62.0761 37.9677 62.4934 37.6199 62.88 37.7147C63.2666 37.8094 63.4759 38.3107 63.3476 38.8345Z" fill="#D48A15"/>
<path d="M68.1119 37.9921C67.9836 38.5157 67.5662 38.8636 67.1797 38.7688C66.7931 38.6741 66.5837 38.1727 66.7121 37.649C66.8404 37.1253 67.2578 36.7775 67.6444 36.8722C68.031 36.967 68.2403 37.4683 68.1119 37.9921Z" fill="#D48A15"/>
<path d="M71.1117 37.649C70.9833 38.1727 70.566 38.5205 70.1794 38.4257C69.7928 38.3311 69.5835 37.8297 69.7118 37.306C69.8402 36.7822 70.2576 36.4345 70.6442 36.5292C71.0308 36.6239 71.2401 37.1253 71.1117 37.649Z" fill="#D48A15"/>
</svg>
