<svg width="80" height="81" viewBox="0 0 80 81" fill="none" xmlns="http://www.w3.org/2000/svg">
<path d="M25 30.8334C25 30.8334 28.3333 35.8334 41.6667 35.8334C55 35.8334 58.3333 30.8334 58.3333 30.8334V65.378C58.3333 66.2072 58.0235 67.0065 57.3599 67.5037C55.4604 68.9271 50.639 71.6667 41.6667 71.6667C32.6943 71.6667 27.8729 68.9271 25.9734 67.5037C25.3098 67.0065 25 66.2072 25 65.378V30.8334Z" fill="#F35B2B"/>
<path fill-rule="evenodd" clip-rule="evenodd" d="M24.5169 29.2382C25.2102 29.0282 25.9583 29.2902 26.3696 29.8837C26.3698 29.884 26.3701 29.8843 26.3704 29.8847C26.3778 29.8946 26.3988 29.9216 26.4346 29.9635C26.5063 30.0472 26.6385 30.1907 26.844 30.3757C27.2538 30.7446 27.9629 31.2847 29.0786 31.8426C31.3067 32.9567 35.2093 34.1667 41.6666 34.1667C48.1239 34.1667 52.0265 32.9567 54.2546 31.8426C55.3703 31.2847 56.0793 30.7446 56.4892 30.3757C56.6947 30.1907 56.8268 30.0472 56.8986 29.9635C56.9344 29.9216 56.9553 29.8946 56.9628 29.8847C56.9631 29.8843 56.9633 29.884 56.9636 29.8837C57.3749 29.2902 58.123 29.0282 58.8162 29.2382C59.5192 29.451 59.9999 30.0988 59.9999 30.8333V65.3779C59.9999 66.6005 59.538 67.9541 58.3592 68.8374C56.1771 70.4727 51.0063 73.3333 41.6666 73.3333C32.3268 73.3333 27.1561 70.4727 24.9739 68.8374C23.7952 67.9541 23.3333 66.6005 23.3333 65.3779V30.8333C23.3333 30.0988 23.814 29.451 24.5169 29.2382ZM56.6666 32.3526C57.8867 31.5032 58.3333 30.8333 58.3333 30.8333V65.3779C58.3333 66.2072 58.0234 67.0064 57.3598 67.5037C55.4603 68.9271 50.6389 71.6667 41.6666 71.6667C32.6943 71.6667 27.8728 68.9271 25.9733 67.5037C25.3098 67.0064 24.9999 66.2072 24.9999 65.3779V30.8333C24.9999 30.8333 25.4465 31.5032 26.6666 32.3526C28.7798 33.8237 33.2136 35.8333 41.6666 35.8333C50.1196 35.8333 54.5533 33.8237 56.6666 32.3526Z" fill="#154D80"/>
<path d="M58.3332 65.378V30.8334C58.3332 30.8334 56.8402 33.0729 51.8557 34.5543L51.6501 70.2861C54.505 69.3944 56.3458 68.2633 57.3581 67.505C58.0218 67.0079 58.3332 66.2072 58.3332 65.378Z" fill="#E6420F"/>
<path d="M25 61.6667C25 61.6667 29.5833 66.6667 41.6667 66.6667C53.75 66.6667 58.3333 61.6667 58.3333 61.6667V65.3702C58.3333 66.2041 58.0201 67.0074 57.3514 67.5058C55.441 68.9298 50.6065 71.6667 41.6667 71.6667C32.7268 71.6667 27.8923 68.9298 25.9819 67.5058C25.3133 67.0074 25 66.2041 25 65.3702V61.6667Z" fill="#8AC6F1"/>
<path d="M58.3334 65.3702V61.6667C58.3334 61.6667 56.3814 63.7963 51.6667 65.2757V70.2757C54.5002 69.3866 56.3358 68.2627 57.3496 67.5072C58.0183 67.009 58.3334 66.2041 58.3334 65.3702Z" fill="#579FD2"/>
<path d="M25 33.3334C25 33.3334 28.3333 38.3334 41.6667 38.3334C55 38.3334 58.3333 33.3334 58.3333 33.3334V37.878C58.3333 38.7072 58.0235 39.5065 57.3599 40.0037C55.4604 41.4271 50.639 44.1667 41.6667 44.1667C32.6943 44.1667 27.8729 41.4271 25.9734 40.0037C25.3098 39.5065 25 38.7072 25 37.878V33.3334Z" fill="#8AC6F1"/>
<path fill-rule="evenodd" clip-rule="evenodd" d="M26.1295 37.3325C26.4234 36.9782 26.9489 36.9294 27.303 37.2233C27.8124 37.6461 28.8993 38.2389 30.3012 38.7958C31.6829 39.3448 33.2892 39.8264 34.7908 40.0622C35.2454 40.1336 35.5561 40.5601 35.4847 41.0147C35.4134 41.4693 34.9869 41.7801 34.5322 41.7087C32.8828 41.4497 31.1556 40.9287 29.6859 40.3448C28.2362 39.7689 26.9532 39.0987 26.2387 38.5059C25.8845 38.212 25.8357 37.6867 26.1295 37.3325Z" fill="#D4EDFF"/>
<path d="M58.3334 37.878V33.3334C58.3334 33.3334 56.8028 35.6295 51.6667 37.1097V42.781C54.5122 41.8901 56.3478 40.7619 57.3583 40.005C58.0219 39.5079 58.3334 38.7072 58.3334 37.878Z" fill="#579FD2"/>
<path fill-rule="evenodd" clip-rule="evenodd" d="M29.6875 44.0386C31.0682 44.0386 32.1875 45.1579 32.1875 46.5386V57.3719C32.1875 58.7527 31.0682 59.8719 29.6875 59.8719C28.3067 59.8719 27.1875 58.7527 27.1875 57.3719V46.5386C27.1875 45.1579 28.3067 44.0386 29.6875 44.0386Z" fill="#FA9474"/>
<path fill-rule="evenodd" clip-rule="evenodd" d="M29.1667 46.25C29.8571 46.25 30.4167 46.8097 30.4167 47.5V50.8333C30.4167 51.5237 29.8571 52.0833 29.1667 52.0833C28.4764 52.0833 27.9167 51.5237 27.9167 50.8333V47.5C27.9167 46.8097 28.4764 46.25 29.1667 46.25Z" fill="#FFC9B8"/>
<path d="M54.5513 61.923C54.5513 62.7727 53.8625 63.4615 53.0129 63.4615C52.1632 63.4615 51.4744 62.7727 51.4744 61.923C51.4744 61.0734 52.1632 60.3845 53.0129 60.3845C53.8625 60.3845 54.5513 61.0734 54.5513 61.923Z" fill="#B4340C"/>
<path d="M57.564 59.9361C57.564 60.5733 57.0474 61.0899 56.4102 61.0899C55.7729 61.0899 55.2563 60.5733 55.2563 59.9361C55.2563 59.2988 55.7729 58.7822 56.4102 58.7822C57.0474 58.7822 57.564 59.2988 57.564 59.9361Z" fill="#B4340C"/>
<path d="M52.8846 57.6924C52.8846 58.3297 52.368 58.8463 51.7307 58.8463C51.0935 58.8463 50.5769 58.3297 50.5769 57.6924C50.5769 57.0552 51.0935 56.5386 51.7307 56.5386C52.368 56.5386 52.8846 57.0552 52.8846 57.6924Z" fill="#B4340C"/>
<path d="M57.5 52.3077C57.5 52.945 56.9835 53.4616 56.3462 53.4616C55.709 53.4616 55.1924 52.945 55.1924 52.3077C55.1924 51.6705 55.709 51.1538 56.3462 51.1538C56.9835 51.1538 57.5 51.6705 57.5 52.3077Z" fill="#B4340C"/>
<path d="M54.423 53.4616C54.423 53.8865 54.0786 54.2308 53.6538 54.2308C53.2289 54.2308 52.8845 53.8865 52.8845 53.4616C52.8845 53.0367 53.2289 52.6924 53.6538 52.6924C54.0786 52.6924 54.423 53.0367 54.423 53.4616Z" fill="#B4340C"/>
<path d="M57.4999 48.8462C57.4999 49.271 57.1555 49.6154 56.7307 49.6154C56.3058 49.6154 55.9614 49.271 55.9614 48.8462C55.9614 48.4213 56.3058 48.0769 56.7307 48.0769C57.1555 48.0769 57.4999 48.4213 57.4999 48.8462Z" fill="#B4340C"/>
<path d="M56.6666 56.0899C56.6666 56.7271 56.15 57.2437 55.5127 57.2437C54.8755 57.2437 54.3589 56.7271 54.3589 56.0899C54.3589 55.4526 54.8755 54.936 55.5127 54.936C56.15 54.936 56.6666 55.4526 56.6666 56.0899Z" fill="#B4340C"/>
<path d="M55.1923 49.2307C55.1923 49.868 54.6757 50.3847 54.0384 50.3847C53.4012 50.3847 52.8845 49.868 52.8845 49.2307C52.8845 48.5935 53.4012 48.0769 54.0384 48.0769C54.6757 48.0769 55.1923 48.5935 55.1923 49.2307Z" fill="#B4340C"/>
<path d="M56.7308 45.7693C56.7308 46.1941 56.3864 46.5385 55.9616 46.5385C55.5367 46.5385 55.1924 46.1941 55.1924 45.7693C55.1924 45.3444 55.5367 45 55.9616 45C56.3864 45 56.7308 45.3444 56.7308 45.7693Z" fill="#B4340C"/>
<path d="M49.8717 62.6284C49.8717 63.0532 49.5273 63.3976 49.1025 63.3976C48.6777 63.3976 48.3333 63.0532 48.3333 62.6284C48.3333 62.2035 48.6777 61.8591 49.1025 61.8591C49.5273 61.8591 49.8717 62.2035 49.8717 62.6284Z" fill="#B4340C"/>
<path d="M58.3333 30.8334C58.3333 34.5153 50.8714 37.5001 41.6667 37.5001C32.4619 37.5001 25 34.5153 25 30.8334C25 27.1515 32.4619 24.1667 41.6667 24.1667C50.8714 24.1667 58.3333 27.1515 58.3333 30.8334Z" fill="#518ABF"/>
<path fill-rule="evenodd" clip-rule="evenodd" d="M54.0707 37.0948C50.8129 38.3979 46.4268 39.1667 41.6666 39.1667C36.9064 39.1667 32.5203 38.3979 29.2625 37.0948C27.6383 36.4452 26.212 35.6298 25.1645 34.6392C24.1135 33.6453 23.3333 32.3597 23.3333 30.8333C23.3333 29.3069 24.1135 28.0213 25.1645 27.0274C26.212 26.0368 27.6383 25.2215 29.2625 24.5718C32.5203 23.2688 36.9064 22.5 41.6666 22.5C46.4268 22.5 50.8129 23.2688 54.0707 24.5718C55.6949 25.2215 57.1212 26.0368 58.1687 27.0274C59.2197 28.0213 59.9999 29.3069 59.9999 30.8333C59.9999 32.3597 59.2197 33.6453 58.1687 34.6392C57.1212 35.6298 55.6949 36.4452 54.0707 37.0948ZM41.6666 37.5C50.8713 37.5 58.3333 34.5152 58.3333 30.8333C58.3333 27.1514 50.8713 24.1667 41.6666 24.1667C32.4618 24.1667 24.9999 27.1514 24.9999 30.8333C24.9999 34.5152 32.4618 37.5 41.6666 37.5Z" fill="#164D80"/>
<path d="M27.2297 34.1667C30.1115 32.174 35.4977 30.8334 41.6667 30.8334C47.8357 30.8334 53.2219 32.174 56.1037 34.1667C53.2219 36.1594 47.8357 37.5 41.6667 37.5C35.4977 37.5 30.1115 36.1594 27.2297 34.1667Z" fill="#326798"/>
<path d="M27.2297 34.1667C30.1115 36.1594 35.4977 37.5 41.6667 37.5C39.8214 36.6946 35.7052 34.3828 34.0029 31.5784C31.175 32.1652 28.8207 33.0665 27.2297 34.1667Z" fill="#2A5A86"/>
<path fill-rule="evenodd" clip-rule="evenodd" d="M32.3952 54.3612C33.2218 55.7942 34.1891 56.6226 35.1748 57.0639C36.2341 57.5381 37.3854 57.597 38.5322 57.3841C40.5548 57.0085 42.4479 55.8078 43.5027 54.8157C41.8067 52.7808 39.4519 51.7207 37.3122 51.6425C35.1321 51.5628 33.2537 52.4882 32.3952 54.3612ZM37.3662 50.1621C40.1305 50.2631 43.1043 51.7149 45.0806 54.4322C45.2832 54.711 45.267 55.0926 45.0413 55.353C43.9469 56.6157 41.5022 58.3393 38.8027 58.8405C37.4352 59.0944 35.9656 59.0409 34.5696 58.4159C33.1674 57.7882 31.9097 56.6152 30.92 54.7548C30.8198 54.5665 30.8057 54.3441 30.8812 54.1447C31.9455 51.3345 34.5937 50.0608 37.3662 50.1621Z" fill="#BE3409"/>
<path fill-rule="evenodd" clip-rule="evenodd" d="M48.6966 49.7376C48.8761 49.9194 48.9493 50.181 48.8901 50.4296C48.6995 51.2302 48.4988 52.7466 48.4488 54.2019C48.4239 54.9269 48.4373 55.6129 48.502 56.1716C48.5713 56.771 48.6861 57.0869 48.7647 57.193C48.949 57.4417 48.9591 57.7787 48.7902 58.0381C48.6213 58.2974 48.3089 58.4244 48.007 58.3565C47.1107 58.1548 46.0693 57.7462 45.236 57.0497C44.3855 56.3391 43.741 55.3137 43.741 53.946C43.741 52.8692 44.058 51.8984 44.8083 51.1183C45.5405 50.3572 46.6181 49.8479 48.007 49.5354C48.2563 49.4793 48.517 49.5557 48.6966 49.7376ZM45.876 52.1452C45.438 52.6006 45.2223 53.1787 45.2223 53.946C45.2223 54.7909 45.6021 55.4252 46.1859 55.9131C46.4424 56.1273 46.7356 56.3102 47.0452 56.4622C47.04 56.4219 47.0351 56.3817 47.0304 56.3417C46.9541 55.6827 46.942 54.9165 46.9683 54.151C47.002 53.1727 47.1 52.1562 47.2238 51.3101C46.6105 51.5478 46.1761 51.8332 45.876 52.1452Z" fill="#BE3409"/>
<path d="M36.7587 53.9615C36.7587 54.3705 36.4271 54.7021 36.018 54.7021C35.6089 54.7021 35.2773 54.3705 35.2773 53.9615C35.2773 53.5524 35.6089 53.2207 36.018 53.2207C36.4271 53.2207 36.7587 53.5524 36.7587 53.9615Z" fill="#BE3409"/>
<path d="M57.4979 32.5308C55.0218 34.7413 47.7921 32.2287 41.3498 26.9188C34.9076 21.6091 31.6924 15.5128 34.1686 13.3025C36.6447 11.0921 43.8744 13.6047 50.3167 18.9145C56.7589 24.2243 59.9741 30.3205 57.4979 32.5308Z" fill="#76ADE0"/>
<path fill-rule="evenodd" clip-rule="evenodd" d="M50.3641 34.1192C47.221 33.027 43.6328 30.9604 40.2898 28.2051C36.9529 25.4547 34.3717 22.4395 32.9406 19.7259C32.2285 18.3757 31.7481 17.0002 31.676 15.7087C31.6019 14.3812 31.9652 13.0353 33.0587 12.0592C34.1033 11.1267 35.492 10.8244 36.8417 10.8336C38.2092 10.8429 39.7344 11.1692 41.3024 11.7142C44.4455 12.8065 48.0337 14.873 51.3767 17.6284C54.7136 20.3787 57.2947 23.394 58.7259 26.1076C59.438 27.4578 59.9184 28.8332 59.9905 30.1247C60.0646 31.4523 59.7013 32.7982 58.6078 33.7743C57.5632 34.7068 56.1745 35.0091 54.8247 34.9998C53.4573 34.9905 51.9321 34.6642 50.3641 34.1192ZM41.3498 26.9189C47.7921 32.2287 55.0218 34.7412 57.4979 32.5309C59.9741 30.3206 56.7589 24.2243 50.3167 18.9146C43.8744 13.6047 36.6447 11.0922 34.1686 13.3026C31.6924 15.5129 34.9076 21.6092 41.3498 26.9189Z" fill="#2B71AF"/>
<path d="M44.0442 20.1128C43.2054 20.8819 40.8682 20.1128 39.3492 18.6863C38.0449 17.2938 37.2061 15.6465 38.0449 14.8774C38.7507 14.2304 40.4079 14.6591 42.2797 16.0856C44.0646 17.4458 44.8832 19.3437 44.0442 20.1128Z" fill="#4578A7"/>
<path fill-rule="evenodd" clip-rule="evenodd" d="M34.8296 14.2653C35.2642 14.1136 35.7394 14.3429 35.891 14.7774C36.5053 16.5372 38.5834 20.8752 41.8687 23.92C42.2062 24.2329 42.2263 24.7602 41.9134 25.0977C41.6005 25.4353 41.0733 25.4553 40.7357 25.1424C37.1877 21.854 34.988 17.2475 34.3175 15.3267C34.1659 14.8922 34.3951 14.4169 34.8296 14.2653Z" fill="#91C6F9"/>
<path d="M57.0803 29.0597C57.4577 29.6378 57.295 30.4124 56.7169 30.7897C56.1389 31.1671 55.3643 31.0045 54.9869 30.4264C54.6095 29.8484 54.7722 29.0738 55.3503 28.6964C55.9283 28.319 56.7029 28.4816 57.0803 29.0597Z" fill="#4C8ECC"/>
<path d="M55.0302 25.9198C55.2818 26.3051 55.1733 26.8215 54.788 27.0731C54.4026 27.3247 53.8862 27.2163 53.6347 26.8308C53.3831 26.4455 53.4915 25.9291 53.8768 25.6775C54.2622 25.4259 54.7786 25.5343 55.0302 25.9198Z" fill="#4C8ECC"/>
<path d="M53.1647 27.6353C53.5422 28.2133 53.3795 28.9879 52.8014 29.3653C52.2233 29.7427 51.4488 29.58 51.0714 29.002C50.694 28.4239 50.8566 27.6493 51.4347 27.272C52.0128 26.8945 52.7873 27.0572 53.1647 27.6353Z" fill="#4C8ECC"/>
<path d="M52.5103 23.584C52.7619 23.9695 52.6534 24.4858 52.268 24.7374C51.8826 24.989 51.3663 24.8805 51.1147 24.4952C50.863 24.1098 50.9715 23.5935 51.3568 23.3418C51.7423 23.0902 52.2586 23.1987 52.5103 23.584Z" fill="#4C8ECC"/>
</svg>
