<svg width="80" height="81" viewBox="0 0 80 81" fill="none" xmlns="http://www.w3.org/2000/svg">
<path d="M40 68.6458C57.6434 68.6458 71.9462 62.1066 71.9462 54.0402V49.9922H8.05371V54.0402C8.05371 62.1066 22.3566 68.6458 40 68.6458Z" fill="#93481C"/>
<path fill-rule="evenodd" clip-rule="evenodd" d="M6.38696 49.9921C6.38696 49.0717 7.13315 48.3254 8.05363 48.3254H71.9461C72.8666 48.3254 73.6128 49.0717 73.6128 49.9921V54.0401C73.6128 59.1237 69.1797 63.1874 63.2823 65.8836C57.2379 68.647 49.0047 70.3124 39.9999 70.3124C30.9951 70.3124 22.7619 68.647 16.7175 65.8836C10.8201 63.1874 6.38696 59.1237 6.38696 54.0401V49.9921ZM71.9461 54.0401C71.9461 62.1065 57.6433 68.6457 39.9999 68.6457C22.3565 68.6457 8.05363 62.1065 8.05363 54.0401V49.9921H71.9461V54.0401Z" fill="#663213"/>
<path fill-rule="evenodd" clip-rule="evenodd" d="M12.5358 60.7357C12.7911 60.3528 13.3085 60.2493 13.6914 60.5045C14.5634 61.0859 16.7355 62.4333 18.4618 63.1961C18.8828 63.3821 19.0733 63.8742 18.8873 64.2951C18.7013 64.7161 18.2092 64.9066 17.7882 64.7206C15.9311 63.9 13.6657 62.4905 12.7669 61.8913C12.384 61.636 12.2805 61.1186 12.5358 60.7357Z" fill="#B66131"/>
<path d="M71.9462 50.5392C71.9462 58.6056 57.6434 65.1448 40 65.1448C22.3566 65.1448 8.05371 58.6056 8.05371 50.5392C8.05371 42.4727 22.3566 35.9336 40 35.9336C57.6434 35.9336 71.9462 42.4727 71.9462 50.5392Z" fill="#A75729"/>
<path fill-rule="evenodd" clip-rule="evenodd" d="M63.2823 62.3828C57.2379 65.1463 49.0047 66.8116 39.9999 66.8116C30.9951 66.8116 22.7619 65.1463 16.7175 62.3828C10.8201 59.6866 6.38696 55.6228 6.38696 50.5393C6.38696 45.4558 10.8201 41.3921 16.7175 38.6958C22.7619 35.9324 30.9951 34.2671 39.9999 34.2671C49.0047 34.2671 57.2379 35.9324 63.2823 38.6958C69.1797 41.3921 73.6128 45.4558 73.6128 50.5393C73.6128 55.6228 69.1797 59.6866 63.2823 62.3828ZM39.9999 65.1449C57.6433 65.1449 71.9461 58.6058 71.9461 50.5393C71.9461 42.4728 57.6433 35.9338 39.9999 35.9338C22.3565 35.9338 8.05363 42.4728 8.05363 50.5393C8.05363 58.6058 22.3565 65.1449 39.9999 65.1449Z" fill="#663213"/>
<path d="M69.0625 48.3756C69.0625 54.8531 56.8202 60.1041 41.7188 60.1041C26.6173 60.1041 14.375 54.8531 14.375 48.3756C14.375 41.8982 26.6173 36.6472 41.7188 36.6472C56.8202 36.6472 69.0625 41.8982 69.0625 48.3756Z" fill="#8E471F"/>
<path fill-rule="evenodd" clip-rule="evenodd" d="M11.7756 54.7198C12.0951 54.3886 12.6227 54.3792 12.9539 54.6987C14.3895 56.0836 19.0596 59.3124 25.7647 60.5509C26.2173 60.6345 26.5164 61.0692 26.4329 61.5218C26.3492 61.9743 25.9146 62.2735 25.462 62.1898C18.4259 60.8902 13.461 57.5037 11.7968 55.8982C11.4655 55.5786 11.456 55.0511 11.7756 54.7198Z" fill="#E97D3F"/>
<path d="M18.0371 31.0838L43.5427 30.4094V46.6569H18.3437L18.0371 31.0838Z" fill="#FBA423"/>
<path fill-rule="evenodd" clip-rule="evenodd" d="M44.7057 29.2156C45.0279 29.5293 45.2095 29.9599 45.2095 30.4096V46.6571C45.2095 47.5776 44.4634 48.3238 43.5429 48.3238H18.3439C17.4361 48.3238 16.6953 47.5974 16.6775 46.6899L16.3709 31.1168C16.3529 30.2008 17.0774 29.4421 17.9932 29.4179L43.4989 28.7435C43.9484 28.7316 44.3836 28.9018 44.7057 29.2156ZM18.3439 46.6571L18.0373 31.084L43.5429 30.4096V46.6571H18.3439Z" fill="#C88607"/>
<path d="M21.927 35.0483C21.927 35.5373 21.3673 35.9337 20.677 35.9337C19.9867 35.9337 19.427 35.5373 19.427 35.0483C19.427 34.5593 19.9867 34.1628 20.677 34.1628C21.3673 34.1628 21.927 34.5593 21.927 35.0483Z" fill="#C87903"/>
<path d="M30.79 34.5795C30.79 35.0685 30.2305 35.4649 29.54 35.4649C28.8497 35.4649 28.29 35.0685 28.29 34.5795C28.29 34.0905 28.8497 33.6941 29.54 33.6941C30.2305 33.6941 30.79 34.0905 30.79 34.5795Z" fill="#C87903"/>
<path d="M33.6545 43.2775C33.6545 43.7665 33.095 44.1629 32.4045 44.1629C31.7142 44.1629 31.1545 43.7665 31.1545 43.2775C31.1545 42.7885 31.7142 42.3921 32.4045 42.3921C33.095 42.3921 33.6545 42.7885 33.6545 43.2775Z" fill="#C87903"/>
<path d="M26.533 37.5652C26.533 38.2341 25.7675 38.7763 24.8232 38.7763C23.8788 38.7763 23.1133 38.2341 23.1133 37.5652C23.1133 36.8963 23.8788 36.354 24.8232 36.354C25.7675 36.354 26.533 36.8963 26.533 37.5652Z" fill="#C87903"/>
<path d="M33.356 38.9285C33.356 39.5974 32.5905 40.1396 31.6462 40.1396C30.7018 40.1396 29.9363 39.5974 29.9363 38.9285C29.9363 38.2595 30.7018 37.7173 31.6462 37.7173C32.5905 37.7173 33.356 38.2595 33.356 38.9285Z" fill="#C87903"/>
<path d="M24.0968 41.6562C24.0968 42.3252 23.3313 42.8674 22.3869 42.8674C21.4425 42.8674 20.677 42.3252 20.677 41.6562C20.677 40.9873 21.4425 40.4451 22.3869 40.4451C23.3313 40.4451 24.0968 40.9873 24.0968 41.6562Z" fill="#C87903"/>
<path d="M27.8183 41.0833C27.8183 41.4358 27.4149 41.7216 26.9172 41.7216C26.4195 41.7216 26.0161 41.4358 26.0161 41.0833C26.0161 40.7308 26.4195 40.4451 26.9172 40.4451C27.4149 40.4451 27.8183 40.7308 27.8183 41.0833Z" fill="#C87903"/>
<path d="M30.0922 44.5208C30.0922 44.8733 29.6888 45.1591 29.1911 45.1591C28.6935 45.1591 28.29 44.8733 28.29 44.5208C28.29 44.1683 28.6935 43.8826 29.1911 43.8826C29.6888 43.8826 30.0922 44.1683 30.0922 44.5208Z" fill="#C87903"/>
<path d="M25.6134 44.1629C25.6134 44.5154 25.2099 44.8012 24.7123 44.8012C24.2147 44.8012 23.8113 44.5154 23.8113 44.1629C23.8113 43.8104 24.2147 43.5247 24.7123 43.5247C25.2099 43.5247 25.6134 43.8104 25.6134 44.1629Z" fill="#C87903"/>
<path d="M35.4567 34.3323C35.4567 34.6848 35.0533 34.9706 34.5556 34.9706C34.058 34.9706 33.6545 34.6848 33.6545 34.3323C33.6545 33.9798 34.058 33.6941 34.5556 33.6941C35.0533 33.6941 35.4567 33.9798 35.4567 34.3323Z" fill="#C87903"/>
<path d="M54.5007 54.542C47.4887 57.2584 37.892 56.2002 33.9702 55.3317V38.6704L64.3508 29.4519L63.5815 47.3563C63.4762 48.6197 61.5126 51.8257 54.5007 54.542Z" fill="#FBA423"/>
<path fill-rule="evenodd" clip-rule="evenodd" d="M33.6097 56.9588C32.8466 56.7898 32.3035 56.1132 32.3035 55.3316V38.6703C32.3035 37.9362 32.7837 37.2886 33.4861 37.0755L63.8668 27.857C64.3839 27.7001 64.945 27.8036 65.3721 28.1348C65.7991 28.4659 66.0391 28.9836 66.0159 29.5234L65.2466 47.4278C65.2456 47.4501 65.2441 47.4724 65.2423 47.4946C65.1405 48.7163 64.2893 50.1916 62.7731 51.6181C61.2014 53.0969 58.759 54.6796 55.1026 56.0961C51.3196 57.5616 46.9305 57.9822 43.0617 57.9477C39.1781 57.9131 35.6826 57.4179 33.6097 56.9588ZM63.5814 47.3563C63.4761 48.6197 61.5126 51.8256 54.5006 54.542C47.4886 57.2583 37.892 56.2001 33.9701 55.3316V38.6703L64.3507 29.4519L63.5814 47.3563Z" fill="#C88607"/>
<path d="M63.5815 47.3563C63.4762 48.6197 61.5126 51.8257 54.5007 54.542V34.2708L64.3508 29.4519L63.5815 47.3563Z" fill="#EA9517"/>
<path d="M33.9702 55.3315V38.6703L42.439 36.1006V56.2711C38.9315 56.1929 35.8197 55.7412 33.9702 55.3315Z" fill="#FFB547"/>
<path fill-rule="evenodd" clip-rule="evenodd" d="M35.8853 41.3423C36.3456 41.3423 36.7187 41.7154 36.7187 42.1756V50.1965C36.7187 50.6566 36.3456 51.0298 35.8853 51.0298C35.4251 51.0298 35.052 50.6566 35.052 50.1965V42.1756C35.052 41.7154 35.4251 41.3423 35.8853 41.3423Z" fill="#FFD595"/>
<path d="M38.8648 19.7192C24.9672 20.4141 19.2292 27.3787 18.0974 30.7741L42.6551 29.7476L34.0384 38.3188C37.5128 38.7136 49.9197 39.539 57.1054 37.0912C64.2911 34.6433 68.2392 28.1683 58.8426 23.6674C51.3252 20.0666 42.3918 19.5349 38.8648 19.7192Z" fill="#FBC12D"/>
<path fill-rule="evenodd" clip-rule="evenodd" d="M16.7662 31.7766C16.4365 31.3388 16.3431 30.7669 16.5165 30.247C17.9083 26.0714 24.3439 18.7771 38.7799 18.0546C42.4782 17.8618 51.7131 18.4043 59.5627 22.1642C62.0703 23.3653 63.8752 24.7836 64.9393 26.4048C66.0376 28.0781 66.2869 29.8856 65.795 31.607C64.8619 34.873 61.4395 37.3755 57.643 38.6687C53.7885 39.9818 48.6699 40.3868 44.1992 40.4375C39.69 40.4886 35.6502 40.1793 33.8504 39.9747C33.2138 39.9024 32.675 39.4716 32.4645 38.8664C32.254 38.2612 32.409 37.589 32.8632 37.1371L38.4378 31.5919L18.1672 32.4392C17.6196 32.4621 17.0958 32.2144 16.7662 31.7766ZM42.6552 29.7475L34.0386 38.3187C34.5688 38.379 35.3071 38.4493 36.2031 38.5165C41.1783 38.8893 51.0165 39.1654 57.1055 37.0911C64.2912 34.6432 68.2394 28.1682 58.8427 23.6673C51.3254 20.0666 42.392 19.5349 38.865 19.7191C27.0153 20.3116 21.0976 25.4621 18.9094 29.072C18.5312 29.6958 18.2644 30.2737 18.0976 30.7741L42.6552 29.7475Z" fill="#C88607"/>
<path fill-rule="evenodd" clip-rule="evenodd" d="M41.6664 28.2088C41.6777 28.6688 41.3138 29.0509 40.8537 29.0622L21.6349 29.5309C21.1748 29.5422 20.7928 29.1783 20.7815 28.7182C20.7703 28.2581 21.1342 27.876 21.5943 27.8648L40.813 27.396C41.2731 27.3848 41.6552 27.7487 41.6664 28.2088Z" fill="#FFDA7B"/>
<path fill-rule="evenodd" clip-rule="evenodd" d="M59.3943 34.4037C59.5222 34.8458 59.2675 35.3079 58.8254 35.4358C52.0769 37.3882 42.3103 37.6989 38.2645 37.3631C37.8058 37.3251 37.4649 36.9225 37.5029 36.4638C37.541 36.0051 37.9436 35.6641 38.4023 35.7022C42.3079 36.0262 51.8607 35.7157 58.3622 33.8348C58.8043 33.7069 59.2664 33.9616 59.3943 34.4037Z" fill="#FFDA7B"/>
<path d="M60.6249 46.7708C60.6249 47.4611 60.1818 48.0208 59.6353 48.0208C59.0888 48.0208 58.6458 47.4611 58.6458 46.7708C58.6458 46.0804 59.0888 45.5208 59.6353 45.5208C60.1818 45.5208 60.6249 46.0804 60.6249 46.7708Z" fill="#D08006"/>
<path d="M62.7084 43.7215C62.7084 44.2483 62.3703 44.6754 61.9533 44.6754C61.5361 44.6754 61.198 44.2483 61.198 43.7215C61.198 43.1947 61.5361 42.7676 61.9533 42.7676C62.3703 42.7676 62.7084 43.1947 62.7084 43.7215Z" fill="#D08006"/>
<path d="M57.7992 48.3756C57.7992 48.9025 57.4611 49.3295 57.0441 49.3295C56.627 49.3295 56.2888 48.9025 56.2888 48.3756C56.2888 47.8487 56.627 47.4216 57.0441 47.4216C57.4611 47.4216 57.7992 47.8487 57.7992 48.3756Z" fill="#D08006"/>
<path d="M55.4032 51.7968C55.4032 52.3236 55.0652 52.7507 54.6481 52.7507C54.231 52.7507 53.8928 52.3236 53.8928 51.7968C53.8928 51.2699 54.231 50.8428 54.6481 50.8428C55.0652 50.8428 55.4032 51.2699 55.4032 51.7968Z" fill="#D08006"/>
<path d="M62.435 47.2656C62.435 47.6017 62.2193 47.8742 61.9533 47.8742C61.6872 47.8742 61.4714 47.6017 61.4714 47.2656C61.4714 46.9295 61.6872 46.657 61.9533 46.657C62.2193 46.657 62.435 46.9295 62.435 47.2656Z" fill="#D08006"/>
<path d="M59.1276 50.2343C59.1276 50.5704 58.9119 50.8429 58.6458 50.8429C58.3797 50.8429 58.1641 50.5704 58.1641 50.2343C58.1641 49.8982 58.3797 49.6257 58.6458 49.6257C58.9119 49.6257 59.1276 49.8982 59.1276 50.2343Z" fill="#D08006"/>
<path d="M55.4034 49.3837C55.4034 49.7198 55.1878 49.9922 54.9217 49.9922C54.6556 49.9922 54.4399 49.7198 54.4399 49.3837C54.4399 49.0476 54.6556 48.7751 54.9217 48.7751C55.1878 48.7751 55.4034 49.0476 55.4034 49.3837Z" fill="#D08006"/>
<path d="M57.7992 45.842C57.7992 46.1781 57.5835 46.4505 57.3174 46.4505C57.0514 46.4505 56.8357 46.1781 56.8357 45.842C56.8357 45.5059 57.0514 45.2334 57.3174 45.2334C57.5835 45.2334 57.7992 45.5059 57.7992 45.842Z" fill="#D08006"/>
<path d="M60.5991 44.0668C60.5991 44.4029 60.3833 44.6754 60.1173 44.6754C59.8512 44.6754 59.6355 44.4029 59.6355 44.0668C59.6355 43.7308 59.8512 43.4583 60.1173 43.4583C60.3833 43.4583 60.5991 43.7308 60.5991 44.0668Z" fill="#D08006"/>
<path d="M62.7084 40.5253C62.7084 40.8614 62.4927 41.1339 62.2266 41.1339C61.9605 41.1339 61.7449 40.8614 61.7449 40.5253C61.7449 40.1892 61.9605 39.9167 62.2266 39.9167C62.4927 39.9167 62.7084 40.1892 62.7084 40.5253Z" fill="#D08006"/>
<path d="M52.7605 53.1555C52.7605 53.4915 52.5448 53.764 52.2787 53.764C52.0126 53.764 51.7969 53.4915 51.7969 53.1555C51.7969 52.8193 52.0126 52.5469 52.2787 52.5469C52.5448 52.5469 52.7605 52.8193 52.7605 53.1555Z" fill="#D08006"/>
<path d="M57.011 50.9954C57.011 51.2472 56.8493 51.4515 56.6499 51.4515C56.4505 51.4515 56.2888 51.2472 56.2888 50.9954C56.2888 50.7435 56.4505 50.5393 56.6499 50.5393C56.8493 50.5393 57.011 50.7435 57.011 50.9954Z" fill="#D08006"/>
<path d="M56.1255 46.9656C56.1255 47.2175 55.9638 47.4217 55.7644 47.4217C55.565 47.4217 55.4033 47.2175 55.4033 46.9656C55.4033 46.7138 55.565 46.5095 55.7644 46.5095C55.9638 46.5095 56.1255 46.7138 56.1255 46.9656Z" fill="#D08006"/>
<path d="M60.625 48.7752C60.625 49.0271 60.4633 49.2313 60.2639 49.2313C60.0645 49.2313 59.9028 49.0271 59.9028 48.7752C59.9028 48.5233 60.0645 48.3191 60.2639 48.3191C60.4633 48.3191 60.625 48.5233 60.625 48.7752Z" fill="#D08006"/>
<path d="M60.8394 41.9783C60.8394 42.2301 60.6777 42.4344 60.4783 42.4344C60.2789 42.4344 60.1172 42.2301 60.1172 41.9783C60.1172 41.7264 60.2789 41.5222 60.4783 41.5222C60.6777 41.5222 60.8394 41.7264 60.8394 41.9783Z" fill="#D08006"/>
</svg>
