<svg width="80" height="81" viewBox="0 0 80 81" fill="none" xmlns="http://www.w3.org/2000/svg">
<path d="M22.1094 17.0452C22.1094 14.2837 24.348 12.0452 27.1094 12.0452H52.8345C55.5959 12.0452 57.8345 14.2837 57.8345 17.0452V60.9551C57.8345 63.7165 55.5959 65.9551 52.8345 65.9551H27.1095C24.348 65.9551 22.1094 63.7165 22.1094 60.9551V17.0452Z" fill="#74421F"/>
<path fill-rule="evenodd" clip-rule="evenodd" d="M27.1093 10.3784H52.8344C56.5162 10.3784 59.501 13.3632 59.501 17.0451V60.955C59.501 64.6369 56.5162 67.6217 52.8344 67.6217H27.1094C23.4275 67.6217 20.4426 64.6369 20.4426 60.955V17.0451C20.4426 13.3632 23.4275 10.3784 27.1093 10.3784ZM27.1093 12.0451C24.3479 12.0451 22.1093 14.2836 22.1093 17.0451V60.955C22.1093 63.7164 24.3479 65.955 27.1094 65.955H52.8344C55.5958 65.955 57.8344 63.7164 57.8344 60.955V17.0451C57.8344 14.2836 55.5958 12.0451 52.8344 12.0451H27.1093Z" fill="#3F1E07"/>
<path d="M24.5833 16.5002C24.5833 15.5797 25.3294 14.8335 26.2499 14.8335H31.9791C32.8995 14.8335 33.6458 15.5797 33.6458 16.5002V19.8335C33.6458 20.754 32.8995 21.5002 31.9791 21.5002H26.2499C25.3294 21.5002 24.5833 20.754 24.5833 19.8335V16.5002Z" fill="#A66335"/>
<path d="M24.5833 25.2502C24.5833 24.3297 25.3294 23.5835 26.2499 23.5835H31.9791C32.8995 23.5835 33.6458 24.3297 33.6458 25.2502V28.5835C33.6458 29.504 32.8995 30.2502 31.9791 30.2502H26.2499C25.3294 30.2502 24.5833 29.504 24.5833 28.5835V25.2502Z" fill="#A66335"/>
<path d="M24.5833 34.0002C24.5833 33.0797 25.3294 32.3335 26.2499 32.3335H31.9791C32.8995 32.3335 33.6458 33.0797 33.6458 34.0002V37.3335C33.6458 38.254 32.8995 39.0002 31.9791 39.0002H26.2499C25.3294 39.0002 24.5833 38.254 24.5833 37.3335V34.0002Z" fill="#A66335"/>
<path d="M24.5833 42.7502C24.5833 41.8297 25.3294 41.0835 26.2499 41.0835H31.9791C32.8995 41.0835 33.6458 41.8297 33.6458 42.7502V46.0835C33.6458 47.004 32.8995 47.7502 31.9791 47.7502H26.2499C25.3294 47.7502 24.5833 47.004 24.5833 46.0835V42.7502Z" fill="#A66335"/>
<path d="M35.4685 16.5002C35.4685 15.5797 36.2147 14.8335 37.1352 14.8335H42.8643C43.7848 14.8335 44.531 15.5797 44.531 16.5002V19.8335C44.531 20.754 43.7848 21.5002 42.8643 21.5002H37.1352C36.2147 21.5002 35.4685 20.754 35.4685 19.8335V16.5002Z" fill="#A66335"/>
<path d="M35.4685 25.2502C35.4685 24.3297 36.2147 23.5835 37.1352 23.5835H42.8643C43.7848 23.5835 44.531 24.3297 44.531 25.2502V28.5835C44.531 29.504 43.7848 30.2502 42.8643 30.2502H37.1352C36.2147 30.2502 35.4685 29.504 35.4685 28.5835V25.2502Z" fill="#A66335"/>
<path d="M35.4685 34.0002C35.4685 33.0797 36.2147 32.3335 37.1352 32.3335H42.8643C43.7848 32.3335 44.531 33.0797 44.531 34.0002V37.3335C44.531 38.254 43.7848 39.0002 42.8643 39.0002H37.1352C36.2147 39.0002 35.4685 38.254 35.4685 37.3335V34.0002Z" fill="#A66335"/>
<path d="M35.4685 42.7502C35.4685 41.8297 36.2147 41.0835 37.1352 41.0835H42.8643C43.7848 41.0835 44.531 41.8297 44.531 42.7502V46.0835C44.531 47.004 43.7848 47.7502 42.8643 47.7502H37.1352C36.2147 47.7502 35.4685 47.004 35.4685 46.0835V42.7502Z" fill="#A66335"/>
<path d="M46.3542 16.5002C46.3542 15.5797 47.1005 14.8335 48.0209 14.8335H53.7501C54.6706 14.8335 55.4167 15.5797 55.4167 16.5002V19.8335C55.4167 20.754 54.6706 21.5002 53.7501 21.5002H48.0209C47.1005 21.5002 46.3542 20.754 46.3542 19.8335V16.5002Z" fill="#A66335"/>
<path d="M46.3542 25.2502C46.3542 24.3297 47.1005 23.5835 48.0209 23.5835H53.7501C54.6706 23.5835 55.4167 24.3297 55.4167 25.2502V28.5835C55.4167 29.504 54.6706 30.2502 53.7501 30.2502H48.0209C47.1005 30.2502 46.3542 29.504 46.3542 28.5835V25.2502Z" fill="#A66335"/>
<path d="M46.3542 34.0002C46.3542 33.0797 47.1005 32.3335 48.0209 32.3335H53.7501C54.6706 32.3335 55.4167 33.0797 55.4167 34.0002V37.3335C55.4167 38.254 54.6706 39.0002 53.7501 39.0002H48.0209C47.1005 39.0002 46.3542 38.254 46.3542 37.3335V34.0002Z" fill="#A66335"/>
<path d="M46.3542 42.7502C46.3542 41.8297 47.1005 41.0835 48.0209 41.0835H53.7501C54.6706 41.0835 55.4167 41.8297 55.4167 42.7502V46.0835C55.4167 47.004 54.6706 47.7502 53.7501 47.7502H48.0209C47.1005 47.7502 46.3542 47.004 46.3542 46.0835V42.7502Z" fill="#A66335"/>
<path fill-rule="evenodd" clip-rule="evenodd" d="M25.5208 25.5626C25.5208 25.1023 25.8938 24.7292 26.3541 24.7292H29.6353C30.0956 24.7292 30.4687 25.1023 30.4687 25.5626C30.4687 26.0228 30.0956 26.3959 29.6353 26.3959H26.3541C25.8938 26.3959 25.5208 26.0228 25.5208 25.5626Z" fill="#CF814B"/>
<path fill-rule="evenodd" clip-rule="evenodd" d="M36.6145 16.474C36.6145 16.0137 36.9876 15.6406 37.4478 15.6406H40.7291C41.1893 15.6406 41.5624 16.0137 41.5624 16.474C41.5624 16.9341 41.1893 17.3073 40.7291 17.3073H37.4478C36.9876 17.3073 36.6145 16.9341 36.6145 16.474Z" fill="#CF814B"/>
<path fill-rule="evenodd" clip-rule="evenodd" d="M47.2395 16.474C47.2395 16.0137 47.6126 15.6406 48.0728 15.6406H51.3541C51.8143 15.6406 52.1874 16.0137 52.1874 16.474C52.1874 16.9341 51.8143 17.3073 51.3541 17.3073H48.0728C47.6126 17.3073 47.2395 16.9341 47.2395 16.474Z" fill="#CF814B"/>
<path fill-rule="evenodd" clip-rule="evenodd" d="M25.5208 16.474C25.5208 16.0137 25.8938 15.6406 26.3541 15.6406H29.6353C30.0956 15.6406 30.4687 16.0137 30.4687 16.474C30.4687 16.9341 30.0956 17.3073 29.6353 17.3073H26.3541C25.8938 17.3073 25.5208 16.9341 25.5208 16.474Z" fill="#CF814B"/>
<path fill-rule="evenodd" clip-rule="evenodd" d="M32.2916 35.3152C32.7518 35.3152 33.1249 35.6883 33.1249 36.1485V36.8908C33.1249 37.8112 32.3788 38.5574 31.4583 38.5574H29.9478C29.4876 38.5574 29.1145 38.1843 29.1145 37.7241C29.1145 37.2639 29.4876 36.8908 29.9478 36.8908H31.4583V36.1485C31.4583 35.6883 31.8313 35.3152 32.2916 35.3152Z" fill="#965224"/>
<path fill-rule="evenodd" clip-rule="evenodd" d="M32.2916 44.0457C32.7518 44.0457 33.1249 44.4187 33.1249 44.879V45.6212C33.1249 46.5417 32.3788 47.2878 31.4583 47.2878H29.9478C29.4876 47.2878 29.1145 46.9147 29.1145 46.4545C29.1145 45.9942 29.4876 45.6212 29.9478 45.6212H31.4583V44.879C31.4583 44.4187 31.8313 44.0457 32.2916 44.0457Z" fill="#965224"/>
<path fill-rule="evenodd" clip-rule="evenodd" d="M43.099 44.2019C43.5592 44.2019 43.9324 44.575 43.9324 45.0352V45.7774C43.9324 46.6979 43.1861 47.4441 42.2657 47.4441H40.7552C40.295 47.4441 39.9219 47.071 39.9219 46.6107C39.9219 46.1505 40.295 45.7774 40.7552 45.7774H42.2657V45.0352C42.2657 44.575 42.6388 44.2019 43.099 44.2019Z" fill="#965224"/>
<path fill-rule="evenodd" clip-rule="evenodd" d="M43.099 35.3152C43.5592 35.3152 43.9324 35.6883 43.9324 36.1485V36.8908C43.9324 37.8112 43.1861 38.5574 42.2657 38.5574H40.7552C40.295 38.5574 39.9219 38.1843 39.9219 37.7241C39.9219 37.2639 40.295 36.8908 40.7552 36.8908H42.2657V36.1485C42.2657 35.6883 42.6388 35.3152 43.099 35.3152Z" fill="#965224"/>
<path fill-rule="evenodd" clip-rule="evenodd" d="M54.1406 35.3152C54.6007 35.3152 54.9739 35.6883 54.9739 36.1485V36.8908C54.9739 37.8112 54.2276 38.5574 53.3072 38.5574H51.7967C51.3365 38.5574 50.9634 38.1843 50.9634 37.7241C50.9634 37.2639 51.3365 36.8908 51.7967 36.8908H53.3072V36.1485C53.3072 35.6883 53.6803 35.3152 54.1406 35.3152Z" fill="#965224"/>
<path fill-rule="evenodd" clip-rule="evenodd" d="M54.1406 26.5847C54.6007 26.5847 54.9739 26.9578 54.9739 27.4181V28.1602C54.9739 29.0807 54.2276 29.8269 53.3072 29.8269H51.7967C51.3365 29.8269 50.9634 29.4538 50.9634 28.9935C50.9634 28.5333 51.3365 28.1602 51.7967 28.1602H53.3072V27.4181C53.3072 26.9578 53.6803 26.5847 54.1406 26.5847Z" fill="#965224"/>
<path fill-rule="evenodd" clip-rule="evenodd" d="M43.099 26.429C43.5592 26.429 43.9324 26.802 43.9324 27.2623V28.0045C43.9324 28.9249 43.1861 29.6711 42.2657 29.6711H40.7552C40.295 29.6711 39.9219 29.298 39.9219 28.8378C39.9219 28.3775 40.295 28.0045 40.7552 28.0045H42.2657V27.2623C42.2657 26.802 42.6388 26.429 43.099 26.429Z" fill="#965224"/>
<path fill-rule="evenodd" clip-rule="evenodd" d="M53.8801 44.0457C54.3404 44.0457 54.7135 44.4187 54.7135 44.879V45.6212C54.7135 46.5417 53.9673 47.2878 53.0468 47.2878H51.5365C51.0762 47.2878 50.7031 46.9147 50.7031 46.4545C50.7031 45.9942 51.0762 45.6212 51.5365 45.6212H53.0468V44.879C53.0468 44.4187 53.42 44.0457 53.8801 44.0457Z" fill="#965224"/>
<path d="M19.4009 52.4617C19.4009 50.6208 20.8933 49.1284 22.7342 49.1284H57.7342C59.5752 49.1284 61.0675 50.6208 61.0675 52.4618V69.2883C61.0675 71.1293 59.5752 72.6217 57.7342 72.6217H22.7342C20.8933 72.6217 19.4009 71.1293 19.4009 69.2883V52.4617Z" fill="#EE4129"/>
<path fill-rule="evenodd" clip-rule="evenodd" d="M22.7344 47.4619H57.7344C60.4959 47.4619 62.7344 49.7004 62.7344 52.4619V69.2885C62.7344 72.0499 60.4959 74.2885 57.7344 74.2885H22.7344C19.973 74.2885 17.7344 72.0499 17.7344 69.2885V52.4618C17.7344 49.7004 19.973 47.4619 22.7344 47.4619ZM22.7344 49.1286C20.8935 49.1286 19.401 50.6209 19.401 52.4618V69.2885C19.401 71.1294 20.8935 72.6218 22.7344 72.6218H57.7344C59.5754 72.6218 61.0677 71.1294 61.0677 69.2885V52.4619C61.0677 50.6209 59.5754 49.1286 57.7344 49.1286H22.7344Z" fill="#8D1C0D"/>
<path fill-rule="evenodd" clip-rule="evenodd" d="M21.6666 59.9375C22.1268 59.9375 22.4999 60.3106 22.4999 60.7708V68.2188C22.4999 68.679 22.873 69.0521 23.3333 69.0521H30.4166C30.8768 69.0521 31.2499 69.4252 31.2499 69.8854C31.2499 70.3457 30.8768 70.7188 30.4166 70.7188H23.3333C21.9525 70.7188 20.8333 69.5995 20.8333 68.2188V60.7708C20.8333 60.3106 21.2063 59.9375 21.6666 59.9375Z" fill="#FE6955"/>
<path d="M55.4949 68.271C55.4949 69.0477 54.9003 69.6772 54.1668 69.6772C53.4333 69.6772 52.8386 69.0477 52.8386 68.271C52.8386 67.4943 53.4333 66.8647 54.1668 66.8647C54.9003 66.8647 55.4949 67.4943 55.4949 68.271Z" fill="#D2220A"/>
<path d="M59.9439 67.1541C59.9439 67.7708 59.4716 68.2709 58.8891 68.2709C58.3066 68.2709 57.8345 67.7708 57.8345 67.1541C57.8345 66.5373 58.3066 66.0374 58.8891 66.0374C59.4716 66.0374 59.9439 66.5373 59.9439 67.1541Z" fill="#D2220A"/>
<path d="M56.0637 64.001C56.0637 64.6178 55.5915 65.1178 55.009 65.1178C54.4265 65.1178 53.9543 64.6178 53.9543 64.001C53.9543 63.3843 54.4265 62.8843 55.009 62.8843C55.5915 62.8843 56.0637 63.3843 56.0637 64.001Z" fill="#D2220A"/>
<path d="M50.9854 67.4908C50.9854 68.1075 50.5131 68.6075 49.9306 68.6075C49.3481 68.6075 48.876 68.1075 48.876 67.4908C48.876 66.874 49.3481 66.374 49.9306 66.374C50.5131 66.374 50.9854 66.874 50.9854 67.4908Z" fill="#D2220A"/>
<path d="M44.3449 70.0938C44.3449 70.7106 43.8728 71.2106 43.2903 71.2106C42.7078 71.2106 42.2356 70.7106 42.2356 70.0938C42.2356 69.4771 42.7078 68.9771 43.2903 68.9771C43.8728 68.9771 44.3449 69.4771 44.3449 70.0938Z" fill="#D2220A"/>
<path d="M58.3292 70.6407C58.3292 71.0289 58.0318 71.3438 57.6651 71.3438C57.2983 71.3438 57.001 71.0289 57.001 70.6407C57.001 70.2523 57.2983 69.9375 57.6651 69.9375C58.0318 69.9375 58.3292 70.2523 58.3292 70.6407Z" fill="#D2220A"/>
<path d="M47.0532 67.3195C47.0532 67.6164 46.8259 67.8572 46.5454 67.8572C46.2649 67.8572 46.0376 67.6164 46.0376 67.3195C46.0376 67.0225 46.2649 66.7817 46.5454 66.7817C46.8259 66.7817 47.0532 67.0225 47.0532 67.3195Z" fill="#D2220A"/>
<path d="M52.8386 64.5802C52.8386 64.8772 52.6112 65.1178 52.3307 65.1178C52.0503 65.1178 51.823 64.8772 51.823 64.5802C51.823 64.2832 52.0503 64.0425 52.3307 64.0425C52.6112 64.0425 52.8386 64.2832 52.8386 64.5802Z" fill="#D2220A"/>
<path d="M56.0637 60.8752C56.0637 61.1721 55.8363 61.4128 55.5558 61.4128C55.2754 61.4128 55.0481 61.1721 55.0481 60.8752C55.0481 60.5782 55.2754 60.3374 55.5558 60.3374C55.8363 60.3374 56.0637 60.5782 56.0637 60.8752Z" fill="#D2220A"/>
<path d="M60.4516 60.6147C60.4516 60.9116 60.2243 61.1523 59.9439 61.1523C59.6634 61.1523 59.436 60.9116 59.436 60.6147C59.436 60.3177 59.6634 60.0769 59.9439 60.0769C60.2243 60.0769 60.4516 60.3177 60.4516 60.6147Z" fill="#D2220A"/>
<path d="M60.6079 57.8282C60.6079 58.1252 60.3805 58.3659 60.1001 58.3659C59.8196 58.3659 59.5923 58.1252 59.5923 57.8282C59.5923 57.5313 59.8196 57.2905 60.1001 57.2905C60.3805 57.2905 60.6079 57.5313 60.6079 57.8282Z" fill="#D2220A"/>
<path d="M58.1729 60.6147C58.1729 60.9116 57.9455 61.1523 57.6651 61.1523C57.3846 61.1523 57.1572 60.9116 57.1572 60.6147C57.1572 60.3177 57.3846 60.0769 57.6651 60.0769C57.9455 60.0769 58.1729 60.3177 58.1729 60.6147Z" fill="#D2220A"/>
<path d="M57.0012 66.244C57.0012 66.541 56.7738 66.7817 56.4933 66.7817C56.2129 66.7817 55.9856 66.541 55.9856 66.244C55.9856 65.9471 56.2129 65.7063 56.4933 65.7063C56.7738 65.7063 57.0012 65.9471 57.0012 66.244Z" fill="#D2220A"/>
<path d="M50.1651 64.8638C50.1651 65.1608 49.9377 65.4015 49.6572 65.4015C49.3768 65.4015 49.1494 65.1608 49.1494 64.8638C49.1494 64.5668 49.3768 64.3262 49.6572 64.3262C49.9377 64.3262 50.1651 64.5668 50.1651 64.8638Z" fill="#D2220A"/>
<path d="M40.4798 70.7969C40.4798 71.0939 40.2524 71.3346 39.9719 71.3346C39.6915 71.3346 39.4641 71.0939 39.4641 70.7969C39.4641 70.5 39.6915 70.2593 39.9719 70.2593C40.2524 70.2593 40.4798 70.5 40.4798 70.7969Z" fill="#D2220A"/>
<path d="M50.9854 70.7969C50.9854 71.1852 50.6881 71.5 50.3213 71.5C49.9546 71.5 49.6572 71.1852 49.6572 70.7969C49.6572 70.4086 49.9546 70.0938 50.3213 70.0938C50.6881 70.0938 50.9854 70.4086 50.9854 70.7969Z" fill="#D2220A"/>
<path d="M47.0532 70.0937C47.0532 70.482 46.7559 70.7969 46.3891 70.7969C46.0224 70.7969 45.7251 70.482 45.7251 70.0937C45.7251 69.7054 46.0224 69.3906 46.3891 69.3906C46.7559 69.3906 47.0532 69.7054 47.0532 70.0937Z" fill="#D2220A"/>
<path d="M58.9585 62.8843C58.9585 63.3424 58.6078 63.7138 58.1752 63.7138C57.7425 63.7138 57.3918 63.3424 57.3918 62.8843C57.3918 62.4263 57.7425 62.0549 58.1752 62.0549C58.6078 62.0549 58.9585 62.4263 58.9585 62.8843Z" fill="#D2220A"/>
<path d="M57.7342 49.1284H22.7342C20.8933 49.1284 19.4009 50.6208 19.4009 52.4617V59.2083L27.3436 57.0208L38.6978 59.9896L49.8436 57.3333L61.0675 60.875V52.4618C61.0675 50.6208 59.5752 49.1284 57.7342 49.1284Z" fill="#B61C2E"/>
<path d="M21.9533 43.3993L17.6303 44.9097L15.5991 51.4722L18.8803 55.2743L27.3178 52.4618L38.62 55.2743L49.297 52.4618L61.4325 54.7535L64.4011 49.7014L63.3075 43.816L58.2553 44.0764L52.995 42.0452L43.62 44.9097L37.1095 42.6181L26.8491 44.4931L21.9533 43.3993Z" fill="#FFF5C1"/>
<path fill-rule="evenodd" clip-rule="evenodd" d="M16.0382 44.4169C16.1945 43.9117 16.5813 43.5107 17.0806 43.3363L21.4035 41.8259C21.6969 41.7233 22.0133 41.7049 22.3166 41.7727L26.8823 42.7927L36.8099 40.9785C37.0953 40.9264 37.3893 40.9496 37.6628 41.0459L43.6567 43.1557L52.5079 40.4511C52.8645 40.3422 53.2474 40.356 53.5953 40.4903L58.5243 42.3936L63.2216 42.1515C64.056 42.1085 64.7933 42.69 64.946 43.5114L66.0398 49.3968C66.1131 49.7916 66.0415 50.1996 65.8381 50.5457L62.8694 55.5978C62.513 56.2042 61.8143 56.5216 61.1232 56.3911L49.3576 54.1693L39.0444 56.886C38.7736 56.9573 38.4892 56.9592 38.2174 56.8916L27.3853 54.196L19.4073 56.8554C18.7664 57.069 18.0599 56.8746 17.6186 56.3632L14.3373 52.5611C13.9618 52.126 13.837 51.5283 14.0069 50.9794L16.0382 44.4169ZM27.3178 52.4618L38.6199 55.2743L49.297 52.4618L61.4324 54.7535L64.4012 49.7014L63.3074 43.816L58.2554 44.0764L52.9949 42.0451L43.6199 44.9097L37.1095 42.618L26.8491 44.493L21.9533 43.3993L17.6303 44.9097L15.5991 51.4722L18.8803 55.2743L27.3178 52.4618Z" fill="#CE9266"/>
<path fill-rule="evenodd" clip-rule="evenodd" d="M36.0034 44.4796C36.1413 44.9187 35.8972 45.3864 35.4581 45.5244L27.3331 48.0764C27.1852 48.1229 27.0274 48.1271 26.8772 48.0888L22.2715 46.9129L19.8862 48.0353C19.4697 48.2313 18.9732 48.0526 18.7772 47.6362C18.5813 47.2198 18.76 46.7233 19.1765 46.5273L21.8327 45.2774C22.0078 45.1949 22.2062 45.1761 22.3937 45.2239L27.0598 46.4153L34.9587 43.9343C35.3978 43.7964 35.8655 44.0405 36.0034 44.4796Z" fill="white"/>
<path d="M23.3335 49.7015L19.5314 51.4724H15.5991L18.8803 55.2745L27.3178 52.462L38.62 55.2745L49.297 52.462L61.4325 54.7536L64.4011 49.7015L63.8543 46.7588L60.7293 49.7015H57.5522L52.1876 47.2815L46.0939 48.7398L40.2605 50.4065L34.1668 48.7398L30.9897 51.1356L23.3335 49.7015Z" fill="#EAD076"/>
</svg>
