<svg width="80" height="81" viewBox="0 0 80 81" fill="none" xmlns="http://www.w3.org/2000/svg">
<path d="M65.0348 47.1373C65.0348 47.1373 60.9542 52.9157 56.9804 54.0558C52.1909 55.43 47.7726 50.8049 47.7726 50.8049C47.7726 50.8049 50.4713 45.8785 55.6067 44.7874C59.5571 43.9481 65.0348 47.1373 65.0348 47.1373Z" fill="#64AC1D"/>
<path fill-rule="evenodd" clip-rule="evenodd" d="M66.3963 48.0987L65.0349 47.1373L65.8735 45.697C66.2774 45.9321 66.564 46.3261 66.6634 46.7828C66.7628 47.2395 66.6659 47.7169 66.3963 48.0987ZM63.5312 46.3706C64.4528 46.7984 65.0349 47.1373 65.0349 47.1373C65.0349 47.1373 64.6503 47.6819 64.0023 48.4697C62.5395 50.2481 59.7343 53.2657 56.9805 54.0558C52.191 55.4299 47.7727 50.8049 47.7727 50.8049C47.7727 50.8049 50.4714 45.8785 55.6068 44.7874C58.2694 44.2217 61.6259 45.4861 63.5312 46.3706ZM47.7727 50.8049C46.311 50.0041 46.3113 50.0036 46.3116 50.003L46.3122 50.0019L46.3137 49.9991L46.3175 49.9924L46.328 49.9735C46.3365 49.9585 46.3476 49.9389 46.3615 49.9149C46.3892 49.8669 46.4279 49.8014 46.4775 49.7204C46.5766 49.5587 46.7197 49.3346 46.9066 49.0661C47.2792 48.5306 47.8319 47.8094 48.5631 47.0495C50.0125 45.5437 52.2514 43.7964 55.2605 43.1571C57.7235 42.6338 60.4612 43.3713 62.3828 44.0853C63.3825 44.4568 64.2455 44.8547 64.859 45.1596C65.1667 45.3125 65.4141 45.4433 65.5874 45.5374C65.6741 45.5845 65.7425 45.6226 65.7907 45.6497C65.8148 45.6633 65.8339 45.6742 65.8478 45.6821L65.8646 45.6918L65.87 45.695L65.8735 45.697C65.8738 45.6972 65.8735 45.697 65.0349 47.1373C66.3963 48.0987 66.3965 48.0984 66.3963 48.0987L66.3942 48.1017L66.3906 48.1069L66.3788 48.1233C66.369 48.137 66.3554 48.156 66.3379 48.1802C66.3029 48.2284 66.2528 48.297 66.1884 48.3834C66.0599 48.556 65.8744 48.8 65.64 49.0949C65.1727 49.683 64.5048 50.4813 63.7027 51.3205C62.1636 52.9309 59.887 54.9558 57.4401 55.6578C54.4147 56.5258 51.6207 55.4719 49.7465 54.3886C48.7893 53.8353 48.0069 53.2381 47.4639 52.7805C47.191 52.5505 46.9748 52.3527 46.8234 52.2087C46.7476 52.1366 46.6877 52.0777 46.6448 52.0348C46.6233 52.0133 46.6061 51.9958 46.5932 51.9826L46.5771 51.966L46.5715 51.9602L46.5693 51.958L46.5684 51.957C46.568 51.9565 46.5676 51.9561 47.7727 50.8049ZM46.311 50.0041L47.7727 50.8049L46.5676 51.9561C46.0658 51.4309 45.962 50.6412 46.311 50.0041Z" fill="#156319"/>
<path d="M62.8863 58.3729C62.8863 58.3729 55.3292 61.6472 50.6874 60.3742C45.0927 58.8399 43.5005 51.5651 43.5005 51.5651C43.5005 51.5651 49.1676 48.301 54.9347 50.3263C59.371 51.8842 62.8863 58.3729 62.8863 58.3729Z" fill="#7CD623"/>
<path fill-rule="evenodd" clip-rule="evenodd" d="M63.549 59.9021L62.8864 58.3728L64.3518 57.5789C64.5744 57.9899 64.6143 58.4754 64.4616 58.9172C64.309 59.359 63.9778 59.7163 63.549 59.9021ZM62.0096 56.9327C62.5708 57.7905 62.8864 58.3728 62.8864 58.3728C62.8864 58.3728 62.2841 58.6338 61.3153 58.9797C58.852 59.8591 54.0189 61.2878 50.6874 60.3742C45.0928 58.8399 43.5005 51.5651 43.5005 51.5651C43.5005 51.5651 49.1676 48.301 54.9348 50.3263C58.042 51.4174 60.6974 54.9275 62.0096 56.9327ZM43.5005 51.5651C42.6687 50.1208 42.6692 50.1205 42.6698 50.1202L42.671 50.1195L42.6738 50.1179L42.6809 50.1138L42.7015 50.1022C42.718 50.093 42.74 50.0807 42.7674 50.0658C42.8221 50.036 42.8982 49.9953 42.9944 49.9459C43.1866 49.8473 43.4598 49.7135 43.803 49.562C44.4874 49.2598 45.46 48.8827 46.6306 48.5745C48.9533 47.9629 52.1777 47.5916 55.487 48.7537C58.1758 49.698 60.4107 52.0357 61.8827 53.9015C62.6443 54.8669 63.256 55.777 63.6776 56.4458C63.889 56.7811 64.0541 57.0581 64.168 57.2541C64.2249 57.3522 64.2691 57.4301 64.2999 57.4852C64.3153 57.5127 64.3274 57.5345 64.3361 57.5502L64.3465 57.5693L64.3498 57.5753L64.3518 57.5789C64.352 57.5793 64.3518 57.5789 62.8864 58.3728C63.549 59.9021 63.5493 59.902 63.549 59.9021L63.5454 59.9037L63.539 59.9064L63.5182 59.9153C63.5007 59.9228 63.476 59.9333 63.4445 59.9464C63.3816 59.9728 63.2913 60.0102 63.1763 60.0566C62.9463 60.1494 62.6166 60.2787 62.208 60.4289C61.3928 60.7286 60.2534 61.1151 58.9576 61.4611C56.457 62.1289 53.029 62.7445 50.2466 61.9815C46.8165 61.0408 44.7251 58.3766 43.5331 56.1928C42.9259 55.0805 42.5156 54.0284 42.2565 53.2555C42.1264 52.8673 42.0328 52.545 41.9707 52.3147C41.9396 52.1995 41.9163 52.1069 41.9002 52.0404C41.8921 52.0071 41.8858 51.9803 41.8812 51.9603L41.8756 51.9356L41.8737 51.9272L41.873 51.9239L41.8727 51.9226C41.8725 51.922 41.8724 51.9214 43.5005 51.5651ZM42.6687 50.1208L43.5005 51.5651L41.8724 51.9214C41.7171 51.2118 42.0393 50.4834 42.6687 50.1208Z" fill="#156319"/>
<path d="M50.4344 59.0826C53.9884 60.3307 60.3986 58.1288 60.3986 58.1288C53.8887 53.7191 47.4528 53.4371 45.1601 53.5168C45.1601 53.5168 46.8803 57.8345 50.4344 59.0826Z" fill="#6FC21C"/>
<path d="M44.8128 58.2582C57.0833 50.9998 55.1666 38.0111 49.6494 28.442L14.9966 48.4216C20.5138 57.9907 31.7253 65.9998 44.8128 58.2582Z" fill="#A6682F"/>
<path fill-rule="evenodd" clip-rule="evenodd" d="M48.8169 26.9982C49.6143 26.5384 50.6334 26.8122 51.0932 27.6096C53.9536 32.5707 55.9591 38.5421 55.5643 44.3301C55.1626 50.219 52.2769 55.7794 45.6613 59.6928C38.66 63.8342 32.0225 63.805 26.401 61.3598C20.8599 58.9496 16.437 54.2567 13.5527 49.2542C13.0929 48.4567 13.3667 47.4376 14.1641 46.9778L48.8169 26.9982ZM15.8666 49.8439C21.6399 58.7525 32.3798 65.6127 44.8128 58.2583C56.4688 51.3634 55.323 39.2978 50.4499 29.9044C50.1929 29.4091 49.9257 28.9213 49.6493 28.4421L14.9966 48.4217C15.2725 48.9003 15.5627 49.3749 15.8666 49.8439Z" fill="#6C3211"/>
<path fill-rule="evenodd" clip-rule="evenodd" d="M49.6494 28.4419C55.1666 38.011 57.0833 50.9997 44.8128 58.2581C38.6582 61.8987 32.9186 62.0561 27.9909 60.206C31.3404 60.6773 35.0261 60.0257 38.9077 57.7296C49.246 51.6142 47.6311 40.6708 42.9827 32.6086L15.1374 48.6632C15.09 48.5828 15.0431 48.5022 14.9966 48.4215L49.6494 28.4419Z" fill="#925824"/>
<path d="M50.5012 46.8358C50.1277 47.6771 49.143 48.0563 48.3017 47.6828C47.4604 47.3093 47.0811 46.3246 47.4546 45.4833C47.8281 44.642 48.8129 44.2627 49.6542 44.6362C50.4955 45.0097 50.8747 45.9945 50.5012 46.8358Z" fill="#77461A"/>
<path d="M49.4374 41.5467C49.1573 42.1777 48.4188 42.4621 47.7878 42.182C47.1568 41.9019 46.8724 41.1633 47.1525 40.5324C47.4326 39.9014 48.1712 39.617 48.8021 39.8971C49.4331 40.1772 49.7176 40.9158 49.4374 41.5467Z" fill="#77461A"/>
<path d="M48.1345 52.1673C47.7611 53.0086 46.7763 53.3878 45.935 53.0144C45.0937 52.6409 44.7144 51.6561 45.0879 50.8148C45.4614 49.9735 46.4462 49.5943 47.2875 49.9677C48.1288 50.3412 48.508 51.326 48.1345 52.1673Z" fill="#77461A"/>
<path d="M44.917 47.0919C44.5435 47.9332 43.5587 48.3124 42.7174 47.9389C41.8761 47.5654 41.4969 46.5807 41.8704 45.7394C42.2439 44.8981 43.2286 44.5188 44.0699 44.8923C44.9112 45.2658 45.2905 46.2506 44.917 47.0919Z" fill="#77461A"/>
<path d="M42.7922 55.6566C42.5121 56.2876 41.7735 56.572 41.1425 56.2919C40.5115 56.0118 40.2271 55.2732 40.5072 54.6422C40.7873 54.0113 41.5259 53.7268 42.1569 54.0069C42.7879 54.2871 43.0723 55.0256 42.7922 55.6566Z" fill="#77461A"/>
<path d="M49.6495 28.4418C51.4885 31.6315 45.2221 38.6899 35.653 44.2071C26.0839 49.7243 16.8358 51.6112 14.9967 48.4215C13.1576 45.2318 19.424 38.1734 28.9931 32.6562C38.5622 27.139 47.8104 25.2521 49.6495 28.4418Z" fill="#FFEED6"/>
<path fill-rule="evenodd" clip-rule="evenodd" d="M48.1756 36.5582C45.4947 39.5779 41.382 42.8278 36.4855 45.651C31.5889 48.4742 26.7158 50.4052 22.7592 51.2125C20.79 51.6142 18.9527 51.7576 17.4146 51.5338C15.9001 51.3136 14.377 50.6834 13.5528 49.254C12.7286 47.8245 12.9464 46.1907 13.5145 44.7696C14.0916 43.3264 15.1361 41.8082 16.4705 40.3052C19.1514 37.2855 23.2641 34.0356 28.1606 31.2124C33.0572 28.3892 37.9303 26.4582 41.8869 25.6509C43.8561 25.2492 45.6934 25.1058 47.2316 25.3296C48.746 25.5498 50.2691 26.18 51.0933 27.6094C51.9175 29.0389 51.6997 30.6727 51.1316 32.0938C50.5545 33.537 49.51 35.0552 48.1756 36.5582ZM35.653 44.2072C45.2221 38.6899 51.4885 31.6316 49.6494 28.4419C47.8104 25.2522 38.5622 27.139 28.9931 32.6562C19.424 38.1735 13.1576 45.2318 14.9967 48.4215C16.8357 51.6112 26.0839 49.7244 35.653 44.2072Z" fill="#8C4922"/>
<path fill-rule="evenodd" clip-rule="evenodd" d="M45.0002 28.9164C45.0002 29.8369 44.254 30.5831 43.3335 30.5831C43.088 30.5831 42.9608 30.6094 42.7901 30.6481C42.7731 30.6519 42.7551 30.6561 42.736 30.6605C42.5143 30.7116 42.1512 30.7953 41.6668 30.7953C40.7464 30.7953 40.0002 30.0492 40.0002 29.1287C40.0002 28.2082 40.7464 27.462 41.6668 27.462C41.7658 27.462 41.7994 27.4547 42.054 27.397C42.352 27.3296 42.7457 27.2498 43.3335 27.2498C44.254 27.2498 45.0002 27.9959 45.0002 28.9164Z" fill="white"/>
<path d="M46.8533 31.4315C48.0923 33.5804 42.801 38.9524 35.0349 43.43C27.2688 47.9077 19.9687 49.7955 18.7297 47.6466C17.4907 45.4977 22.782 40.1257 30.5481 35.6481C38.3142 31.1704 45.6143 29.2826 46.8533 31.4315Z" fill="#E7D2B4"/>
<path fill-rule="evenodd" clip-rule="evenodd" d="M28.0045 46.8474C24.6779 46.7195 21.9646 45.4982 20.6192 43.2021C18.9265 45.0824 18.176 46.6864 18.7297 47.6467C19.5782 49.1182 23.2685 48.6969 28.0045 46.8474Z" fill="#DDC5A2"/>
<path fill-rule="evenodd" clip-rule="evenodd" d="M22.5517 52.9448C23.2793 52.381 24.3261 52.5138 24.8899 53.2415C25.0403 53.4355 25.139 53.5199 25.2742 53.6312C25.2876 53.6423 25.3019 53.654 25.3171 53.6664C25.4933 53.8103 25.7819 54.0461 26.0786 54.4289C26.6423 55.1565 26.5095 56.2034 25.7819 56.7672C25.0543 57.331 24.0074 57.1982 23.4436 56.4706C23.383 56.3923 23.3567 56.3703 23.1551 56.2043C22.9193 56.0101 22.6151 55.7478 22.255 55.2831C21.6912 54.5555 21.824 53.5086 22.5517 52.9448Z" fill="#CF843E"/>
</svg>
