<svg width="80" height="82" viewBox="0 0 80 82" fill="none" xmlns="http://www.w3.org/2000/svg">
<path d="M30.6888 16.1068C38.9084 15.9507 45.8332 29.5999 46.0672 41.925C46.3012 54.2501 39.7917 62.4758 31.5722 62.6319C23.3527 62.788 16.5357 54.8151 16.3017 42.4901C16.0677 30.165 22.9879 16.253 30.6888 16.1068Z" fill="#EDE6CF"/>
<path fill-rule="evenodd" clip-rule="evenodd" d="M42.8236 23.5155C45.7516 28.697 47.6114 35.4626 47.7335 41.8933C47.9761 54.6749 41.1472 64.117 31.6038 64.2982C22.0603 64.4795 14.8779 55.3033 14.6352 42.5217C14.5127 36.068 16.255 29.2307 19.0462 23.9522C20.4434 21.31 22.1381 18.9923 24.0594 17.3052C25.9788 15.6199 28.2184 14.4867 30.6572 14.4404C35.7305 14.344 39.9599 18.448 42.8236 23.5155ZM46.0671 41.925C45.8331 29.5999 38.9084 15.9507 30.6888 16.1067C22.9879 16.253 16.0676 30.165 16.3016 42.49C16.5356 54.8151 23.3526 62.788 31.5721 62.6319C39.7916 62.4758 46.3011 54.25 46.0671 41.925Z" fill="#968960"/>
<path fill-rule="evenodd" clip-rule="evenodd" d="M35.73 17.7517C38.8777 22.6172 40.9411 29.485 41.0642 35.9716C41.2893 47.8283 34.9818 55.7423 27.0185 55.8935C23.701 55.9565 20.6195 54.6623 18.137 52.2735C20.7355 58.8546 25.809 62.7414 31.572 62.632C39.7916 62.4759 46.3011 54.25 46.067 41.925C45.883 32.2348 41.5632 21.7261 35.73 17.7517Z" fill="#DBD2B2"/>
<path d="M27.5015 23.7336C30.8833 24.4253 26.889 29.0487 28.4375 33.9522C30.9375 41.8688 26.5657 45.531 23.184 44.8392C19.8023 44.1474 18.0273 38.8619 19.2195 33.0337C20.4118 27.2056 24.1198 23.0417 27.5015 23.7336Z" fill="#FEF8E3"/>
<path fill-rule="evenodd" clip-rule="evenodd" d="M23.3417 33.8215C23.2293 35.1107 23.229 36.2763 23.229 36.6607C23.229 37.351 22.6693 37.9107 21.979 37.9107C21.2887 37.9107 20.729 37.351 20.729 36.6607V36.6582C20.729 36.2586 20.729 35.0047 20.8512 33.6042C20.9685 32.2584 21.2135 30.5585 21.8021 29.391C22.1128 28.7745 22.8645 28.5267 23.481 28.8375C24.0974 29.1482 24.3453 29.8999 24.0345 30.5163C23.6838 31.2121 23.4591 32.475 23.3417 33.8215Z" fill="white"/>
<path d="M42.1807 34.425C42.8416 34.9523 43.0074 35.8434 42.551 36.4153C42.0946 36.9873 41.189 37.0233 40.5281 36.496C39.8673 35.9687 39.7015 35.0776 40.1579 34.5058C40.6142 33.9338 41.5199 33.8977 42.1807 34.425Z" fill="#CFC59E"/>
<path d="M41.4504 31.0011C41.8265 31.3012 41.9208 31.8083 41.6611 32.1337C41.4015 32.4592 40.8861 32.4797 40.51 32.1796C40.1339 31.8795 40.0396 31.3724 40.2992 31.047C40.559 30.7215 41.0743 30.701 41.4504 31.0011Z" fill="#CFC59E"/>
<path d="M38.8261 32.6339C39.2022 32.934 39.2966 33.4411 39.0368 33.7665C38.7772 34.092 38.2617 34.1125 37.8857 33.8124C37.5097 33.5123 37.4152 33.0053 37.675 32.6798C37.9347 32.3543 38.4501 32.3338 38.8261 32.6339Z" fill="#CFC59E"/>
<path d="M37.4674 26.4501C37.6536 26.5987 37.7003 26.8498 37.5717 27.011C37.4431 27.1722 37.1879 27.1823 37.0016 27.0337C36.8155 26.8851 36.7687 26.634 36.8973 26.4728C37.0259 26.3117 37.2811 26.3015 37.4674 26.4501Z" fill="#CFC59E"/>
<path d="M38.0465 22.4232C38.2328 22.5718 38.2794 22.823 38.1508 22.9841C38.0223 23.1453 37.767 23.1555 37.5808 23.0068C37.3945 22.8582 37.3479 22.6071 37.4764 22.446C37.605 22.2848 37.8603 22.2746 38.0465 22.4232Z" fill="#CFC59E"/>
<path d="M43.1551 33.0228C43.3413 33.1714 43.3881 33.4226 43.2595 33.5837C43.1309 33.7449 42.8757 33.7551 42.6894 33.6065C42.5032 33.4578 42.4565 33.2067 42.5851 33.0456C42.7137 32.8844 42.9689 32.8742 43.1551 33.0228Z" fill="#CFC59E"/>
<path d="M43.7025 36.3896C43.8888 36.5381 43.9354 36.7892 43.8069 36.9504C43.6783 37.1116 43.423 37.1217 43.2368 36.9732C43.0505 36.8246 43.0039 36.5735 43.1324 36.4123C43.261 36.2511 43.5163 36.2409 43.7025 36.3896Z" fill="#CFC59E"/>
<path d="M38.5684 36.3146C38.8497 36.5391 38.9203 36.9184 38.7261 37.1619C38.5317 37.4054 38.1462 37.4208 37.8648 37.1963C37.5834 36.9718 37.5128 36.5924 37.7072 36.3489C37.9014 36.1054 38.287 36.0901 38.5684 36.3146Z" fill="#CFC59E"/>
<path d="M44.4697 41.5446C44.7511 41.7691 44.8216 42.1484 44.6274 42.3919C44.4331 42.6354 44.0475 42.6508 43.7661 42.4263C43.4848 42.2017 43.4142 41.8224 43.6085 41.5789C43.8028 41.3354 44.1884 41.3201 44.4697 41.5446Z" fill="#CFC59E"/>
<path d="M41.6516 40.7804C41.9329 41.0049 42.0035 41.3843 41.8093 41.6277C41.6149 41.8712 41.2294 41.8867 40.948 41.6622C40.6667 41.4376 40.5961 41.0582 40.7904 40.8147C40.9846 40.5712 41.3702 40.5559 41.6516 40.7804Z" fill="#CFC59E"/>
<path d="M41.1359 38.3439C41.512 38.6439 41.6064 39.151 41.3466 39.4765C41.0869 39.8019 40.5716 39.8225 40.1955 39.5224C39.8194 39.2224 39.7251 38.7152 39.9848 38.3898C40.2444 38.0644 40.7599 38.0438 41.1359 38.3439Z" fill="#CFC59E"/>
<path d="M40.9184 27.9254C41.2945 28.2255 41.3888 28.7327 41.1292 29.0581C40.8695 29.3835 40.3541 29.4041 39.978 29.104C39.6019 28.8039 39.5076 28.2968 39.7672 27.9713C40.027 27.6459 40.5423 27.6253 40.9184 27.9254Z" fill="#CFC59E"/>
<path d="M38.55 28.8028C39.039 29.193 39.1617 29.8523 38.824 30.2754C38.4864 30.6985 37.8164 30.7252 37.3274 30.3351C36.8384 29.945 36.7159 29.2856 37.0534 28.8626C37.3911 28.4394 38.0611 28.4127 38.55 28.8028Z" fill="#CFC59E"/>
<path d="M39.3863 24.5868C39.8752 24.9769 39.9979 25.6362 39.6602 26.0593C39.3226 26.4825 38.6525 26.5091 38.1636 26.119C37.6747 25.7289 37.552 25.0695 37.8896 24.6465C38.2273 24.2234 38.8974 24.1966 39.3863 24.5868Z" fill="#CFC59E"/>
<path d="M43.8047 38.3944C44.2936 38.7845 44.4163 39.4438 44.0787 39.8669C43.741 40.2901 43.071 40.3167 42.582 39.9267C42.0931 39.5365 41.9705 38.8772 42.3081 38.4541C42.6457 38.031 43.3158 38.0042 43.8047 38.3944Z" fill="#CFC59E"/>
<path d="M44.1194 44.293C44.6083 44.6832 44.731 45.3425 44.3933 45.7656C44.0558 46.1887 43.3857 46.2155 42.8968 45.8253C42.4078 45.4351 42.2852 44.7759 42.6228 44.3528C42.9604 43.9296 43.6305 43.903 44.1194 44.293Z" fill="#CFC59E"/>
<path d="M54.4791 70.9314C66.875 66.8689 72.7603 53.3272 71.3514 44.3447L29.1666 59.2648C28.75 60.8065 29.2543 64.5589 30.4687 66.296C34.5833 72.1814 44.3475 74.2518 54.4791 70.9314Z" fill="white"/>
<path fill-rule="evenodd" clip-rule="evenodd" d="M72.2048 42.9131C72.6305 43.1668 72.921 43.5968 72.9979 44.0864C73.7704 49.0113 72.5389 55.0203 69.5417 60.3053C66.5304 65.615 61.6578 70.3326 54.998 72.5152C44.5269 75.9469 33.8205 73.9993 29.1026 67.2509C28.2862 66.0832 27.8036 64.4241 27.5621 62.9824C27.3232 61.5563 27.2552 59.9487 27.5575 58.8298C27.7005 58.301 28.0943 57.8761 28.6108 57.6934L70.7955 42.7733C71.2627 42.6082 71.7792 42.6593 72.2048 42.9131ZM71.3513 44.3447L29.1665 59.2648C28.7499 60.8064 29.2542 64.5589 30.4686 66.2959C34.5832 72.1814 44.3475 74.2518 54.479 70.9314C66.1128 67.1187 72.012 54.9564 71.5286 46.0498C71.497 45.4663 71.438 44.8968 71.3513 44.3447Z" fill="#968960"/>
<path fill-rule="evenodd" clip-rule="evenodd" d="M29.0227 60.6688L30.5802 58.7648L29.1667 59.2648C29.0684 59.6283 29.0213 60.1148 29.0227 60.6688ZM71.3514 44.3447C72.742 53.2102 67.0271 66.5169 54.9602 70.7679C60.8719 64.1654 62.614 54.8006 60.9896 48.0095L71.3514 44.3447Z" fill="#F4F3DB"/>
<path fill-rule="evenodd" clip-rule="evenodd" d="M59.9151 68.3179C68.5681 62.6611 72.5352 51.8931 71.3512 44.3447L66.1388 46.1882C67.498 52.9316 65.6675 61.9296 59.9151 68.3179ZM29.43 63.7831L34.7379 57.2942L29.1664 59.2648C28.9024 60.2416 29.0081 62.1061 29.43 63.7831Z" fill="#DEDCB1"/>
<path d="M71.0204 43.4209C72.7353 47.4529 64.7818 54.6955 53.2558 59.5978C41.7298 64.4999 30.996 65.2053 29.2812 61.1733C27.5662 57.1413 35.5197 49.8988 47.0457 44.9966C58.5717 40.0943 69.3056 39.3889 71.0204 43.4209Z" fill="#FDFCE4"/>
<path fill-rule="evenodd" clip-rule="evenodd" d="M68.2255 52.4152C64.8388 55.4992 59.7964 58.6269 53.9081 61.1314C48.0197 63.6358 42.2691 65.0985 37.6985 65.3989C35.4214 65.5485 33.3417 65.4165 31.6549 64.9151C29.9813 64.4177 28.4482 63.4734 27.7473 61.8256C27.0465 60.1779 27.4297 58.4184 28.2323 56.868C29.0412 55.3051 30.3886 53.7154 32.0758 52.1789C35.4625 49.0949 40.505 45.9672 46.3933 43.4628C52.2817 40.9584 58.0322 39.4957 62.6028 39.1953C64.88 39.0456 66.9596 39.1778 68.6465 39.6791C70.3201 40.1764 71.8532 41.1208 72.5541 42.7685C73.2549 44.4164 72.8717 46.1757 72.0691 47.7263C71.2602 49.2891 69.9128 50.8788 68.2255 52.4152ZM53.2557 59.5977C64.7817 54.6954 72.7352 47.4529 71.0203 43.4209C69.3055 39.3889 58.5717 40.0943 47.0457 44.9965C35.5197 49.8987 27.5662 57.1413 29.2811 61.1733C30.9959 65.2053 41.7297 64.4999 53.2557 59.5977Z" fill="#968960"/>
<path d="M57.027 48.5717C58.3495 51.4845 53.6384 56.4715 46.5044 59.7103C39.3705 62.9492 32.5153 63.2135 31.1929 60.3007C29.8704 57.3878 34.5815 52.4009 41.7155 49.162C48.8494 45.9232 55.7046 45.6588 57.027 48.5717Z" fill="white"/>
<path fill-rule="evenodd" clip-rule="evenodd" d="M59.7696 41.7221C65.0748 40.9092 68.5734 42.0342 69.7852 42.842C70.1681 43.0974 70.2716 43.6147 70.0163 43.9976C69.761 44.3806 69.2436 44.4841 68.8607 44.2288C68.0933 43.7172 65.0501 42.5991 60.022 43.3695C55.5682 44.052 53.3733 44.8302 51.9685 45.3283C51.7691 45.399 51.5856 45.464 51.4137 45.5224C50.978 45.6704 50.5048 45.4371 50.3568 45.0013C50.2088 44.5655 50.442 44.0923 50.8778 43.9443C51.0462 43.8871 51.2277 43.8228 51.4262 43.7524C52.8541 43.2463 55.1629 42.428 59.7696 41.7221Z" fill="#E6E4BC"/>
<path d="M51.0212 57.7784C50.9341 57.3058 50.2556 57.0348 49.5061 57.1731C48.7565 57.3114 48.2195 57.8066 48.3066 58.2792C48.3938 58.7518 49.0722 59.0228 49.8218 58.8845C50.5714 58.7461 51.1084 58.251 51.0212 57.7784Z" fill="#E9E8CB"/>
<path d="M56.0432 55.2444C55.956 54.7718 55.2776 54.5008 54.528 54.6392C53.7784 54.7774 53.2414 55.2727 53.3286 55.7452C53.4158 56.2178 54.0941 56.4888 54.8438 56.3505C55.5934 56.2122 56.1304 55.717 56.0432 55.2444Z" fill="#E9E8CB"/>
<path d="M43.841 56.5169C43.7539 56.0443 43.0755 55.7733 42.3259 55.9116C41.5763 56.0499 41.0393 56.5451 41.1265 57.0177C41.2136 57.4903 41.892 57.7613 42.6416 57.623C43.3912 57.4847 43.9282 56.9895 43.841 56.5169Z" fill="#E9E8CB"/>
<path d="M38.6352 60.7782C38.5481 60.3056 37.8697 60.0346 37.1201 60.1728C36.3705 60.3112 35.8335 60.8064 35.9207 61.279C36.0078 61.7516 36.6862 62.0226 37.4358 61.8842C38.1855 61.746 38.7225 61.2507 38.6352 60.7782Z" fill="#E9E8CB"/>
<path d="M46.9428 59.2864C46.8824 58.9595 46.4132 58.7721 45.8947 58.8678C45.3762 58.9634 45.0047 59.306 45.065 59.6329C45.1253 59.9598 45.5946 60.1473 46.1131 60.0516C46.6316 59.9559 47.0031 59.6134 46.9428 59.2864Z" fill="#E9E8CB"/>
<path d="M40.1716 58.1299C40.1113 57.803 39.642 57.6156 39.1234 57.7113C38.6049 57.8069 38.2335 58.1495 38.2938 58.4764C38.3541 58.8033 38.8233 58.9908 39.3418 58.8951C39.8604 58.7994 40.2318 58.4568 40.1716 58.1299Z" fill="#E9E8CB"/>
<path d="M33.1552 60.9058C33.0949 60.5789 32.6257 60.3915 32.1071 60.4871C31.5886 60.5828 31.2171 60.9253 31.2774 61.2522C31.3378 61.5792 31.807 61.7666 32.3255 61.6709C32.8441 61.5752 33.2155 61.2327 33.1552 60.9058Z" fill="#E9E8CB"/>
<path d="M47.0724 56.8014C47.0121 56.4745 46.5428 56.287 46.0243 56.3826C45.5058 56.4783 45.1343 56.8209 45.1947 57.1478C45.255 57.4747 45.7242 57.6622 46.2427 57.5665C46.7612 57.4708 47.1327 57.1282 47.0724 56.8014Z" fill="#E9E8CB"/>
<path d="M52.1935 55.13C52.1332 54.8031 51.6639 54.6156 51.1454 54.7113C50.6268 54.8069 50.2554 55.1495 50.3158 55.4764C50.376 55.8034 50.8453 55.9908 51.3638 55.8951C51.8823 55.7994 52.2538 55.4568 52.1935 55.13Z" fill="#E9E8CB"/>
<path d="M43.777 59.191C43.7167 58.8641 43.2475 58.6766 42.7289 58.7723C42.2104 58.868 41.8389 59.2105 41.8992 59.5375C41.9596 59.8644 42.4288 60.0518 42.9473 59.9561C43.4659 59.8605 43.8373 59.518 43.777 59.191Z" fill="#E9E8CB"/>
<path d="M40.9738 60.25C40.9315 60.0212 40.603 59.89 40.24 59.957C39.8771 60.0239 39.617 60.2637 39.6593 60.4925C39.7015 60.7214 40.0299 60.8526 40.3929 60.7856C40.7559 60.7187 41.0159 60.4789 40.9738 60.25Z" fill="#E9E8CB"/>
<path d="M35.4057 59.764C35.3635 59.5351 35.035 59.4039 34.672 59.4709C34.309 59.5379 34.049 59.7776 34.0912 60.0065C34.1334 60.2353 34.4619 60.3665 34.8249 60.2995C35.1879 60.2326 35.4479 59.9928 35.4057 59.764Z" fill="#E9E8CB"/>
<path d="M48.8737 55.087C48.8314 54.8581 48.5029 54.7269 48.1399 54.7939C47.777 54.8608 47.5169 55.1006 47.5592 55.3295C47.6014 55.5583 47.9299 55.6895 48.2928 55.6225C48.6558 55.5556 48.9158 55.3158 48.8737 55.087Z" fill="#E9E8CB"/>
<path d="M57.5336 53.2535C57.4913 53.0246 57.1629 52.8934 56.7999 52.9603C56.4369 53.0273 56.1768 53.2672 56.2191 53.496C56.2613 53.7248 56.5898 53.8561 56.9528 53.7891C57.3158 53.7221 57.5758 53.4823 57.5336 53.2535Z" fill="#E9E8CB"/>
<path d="M53.4755 53.5396C53.4446 53.3725 53.2047 53.2767 52.9397 53.3255C52.6746 53.3744 52.4847 53.5496 52.5155 53.7166C52.5463 53.8838 52.7862 53.9796 53.0513 53.9307C53.3164 53.8818 53.5063 53.7067 53.4755 53.5396Z" fill="#E9E8CB"/>
<path d="M53.901 50.1039C54.5052 51.5246 51.7664 54.0496 47.7835 55.7436C43.8007 57.4375 40.0821 57.659 39.4778 56.2383C38.8735 54.8174 41.6124 52.2924 45.5953 50.5985C49.5781 48.9045 53.2967 48.683 53.901 50.1039Z" fill="#FFB72B"/>
<path fill-rule="evenodd" clip-rule="evenodd" d="M53.6921 54.0468C52.4113 55.2277 50.5554 56.376 48.4359 57.2774C46.3164 58.1789 44.2019 58.7193 42.4628 58.8228C41.601 58.8742 40.7364 58.8243 39.9803 58.5917C39.234 58.3621 38.362 57.8732 37.9441 56.8907C37.5263 55.9083 37.779 54.9409 38.1312 54.2442C38.4881 53.5382 39.052 52.8808 39.6867 52.2956C40.9675 51.1148 42.8235 49.9663 44.943 49.0649C47.0625 48.1635 49.177 47.6232 50.916 47.5196C51.7778 47.4683 52.6425 47.5181 53.3985 47.7507C54.1448 47.9803 55.0169 48.4692 55.4347 49.4517C55.8525 50.4342 55.5998 51.4014 55.2476 52.0983C54.8907 52.8043 54.3269 53.4616 53.6921 54.0468ZM47.7835 55.7438C51.7664 54.0498 54.5053 51.5248 53.901 50.104C53.2967 48.6832 49.5781 48.9047 45.5953 50.5987C41.6125 52.2926 38.8735 54.8176 39.4779 56.2384C40.0821 57.6592 43.8007 57.4377 47.7835 55.7438Z" fill="#D89A24"/>
<path fill-rule="evenodd" clip-rule="evenodd" d="M52.9851 50.7601C52.9471 51.2187 52.5446 51.5597 52.0859 51.5217C50.8683 51.4208 49.3232 51.8325 48.7039 52.0588C48.2716 52.2169 47.7931 51.9946 47.6351 51.5623C47.4771 51.1301 47.6994 50.6515 48.1316 50.4935C48.8424 50.2336 50.654 49.7306 52.2236 49.8607C52.6822 49.8987 53.0232 50.3014 52.9851 50.7601Z" fill="#FFE58A"/>
</svg>
