<svg width="80" height="82" viewBox="0 0 80 82" fill="none" xmlns="http://www.w3.org/2000/svg">
<path d="M39.6042 36.5665C36.0512 41.5516 33.1675 41.6321 32.252 49.615C31.1487 59.2344 38.0571 67.2165 47.5829 68.309C57.1087 69.4015 65.5588 63.9406 66.6621 54.3212C67.5776 46.3383 64.5221 45.228 61.9374 39.387C59.0726 32.9127 62.4592 24.4285 52.3977 23.2745C41.474 22.0217 43.7859 30.6997 39.6042 36.5665Z" fill="#A4D31F"/>
<path fill-rule="evenodd" clip-rule="evenodd" d="M35.821 38.3959C36.5826 37.5868 37.3683 36.7124 38.1905 35.5588C39.0813 34.3091 39.6558 32.8679 40.1849 31.2872C40.2995 30.945 40.4143 30.5874 40.5318 30.2214C40.9274 28.9885 41.3537 27.6602 41.9058 26.5031C42.6565 24.9295 43.7406 23.4245 45.5696 22.4616C47.3721 21.5126 49.6642 21.2135 52.5956 21.5497C55.3597 21.8667 57.4212 22.7147 58.9104 24.0952C60.3938 25.4705 61.1223 27.2023 61.5505 28.9142C61.8677 30.182 62.0482 31.5812 62.2171 32.8895C62.2687 33.2897 62.3193 33.6815 62.3723 34.0583C62.6103 35.7497 62.9106 37.2957 63.5251 38.6844C64.1269 40.0446 64.7583 41.1357 65.3801 42.1631C65.4781 42.325 65.5773 42.4877 65.6772 42.6513C66.1952 43.5001 66.7287 44.3742 67.1744 45.2933C68.3106 47.6362 68.8767 50.2482 68.3868 54.519C67.1541 65.2683 57.6759 71.214 47.3851 70.0338C36.9847 68.841 29.3059 60.0654 30.5272 49.4172C31.0132 45.1796 32.0544 42.8428 33.5698 40.8991C34.1484 40.157 34.7961 39.4756 35.4189 38.8203C35.5545 38.6777 35.6888 38.5364 35.821 38.3959ZM36.6561 40.0391C37.5575 39.09 38.5515 38.0436 39.6043 36.5665C40.9027 34.7449 41.575 32.6523 42.2119 30.6702C43.6263 26.2682 44.8657 22.4107 52.3977 23.2745C59.3256 24.069 59.8776 28.3389 60.4848 33.0351C60.7593 35.1592 61.0452 37.3706 61.9374 39.3869C62.6905 41.0888 63.4836 42.3891 64.2067 43.5747C65.9655 46.4583 67.3108 48.6642 66.6621 54.3212C65.5588 63.9405 57.1087 69.4015 47.5829 68.309C38.0571 67.2165 31.1488 59.2343 32.252 49.615C32.8963 43.9973 34.5151 42.293 36.6561 40.0391Z" fill="#5B7C14"/>
<path fill-rule="evenodd" clip-rule="evenodd" d="M35.9084 62.132C37.2894 62.9785 38.8145 63.6571 40.4584 64.1332C49.6683 66.8004 58.9114 62.8264 61.6046 53.5261C63.1885 48.0567 62.2303 45.6574 60.9774 42.5205C60.4623 41.2309 59.8974 39.8165 59.4389 38.0128C58.8958 35.8758 58.983 33.6478 59.0668 31.5076C59.1283 29.937 59.1879 28.4138 58.9952 27.0085C59.9257 28.7116 60.1991 30.8263 60.4847 33.0352C60.7593 35.1594 61.0451 37.3707 61.9374 39.387C62.6904 41.089 63.4835 42.3892 64.2066 43.5749C65.9654 46.4585 67.3108 48.6643 66.662 54.3213C65.5588 63.9406 57.1087 69.4016 47.5829 68.3091C42.8068 67.7614 38.6887 65.4816 35.9084 62.132Z" fill="#92BC1B"/>
<path d="M44.1974 38.8676C45.9479 40.1584 45.6398 43.5471 43.5093 46.4365C41.3787 49.326 38.2325 50.622 36.4819 49.3313C34.7314 48.0405 35.0395 44.6518 37.1701 41.7623C39.3006 38.8729 42.4468 37.5769 44.1974 38.8676Z" fill="#BBEB35"/>
<path d="M49.873 24.8557C50.478 25.5386 50.0546 26.9017 48.9275 27.9002C47.8003 28.8987 46.3961 29.1546 45.7912 28.4717C45.1862 27.7888 45.6096 26.4257 46.7368 25.4272C47.864 24.4287 49.2681 24.1728 49.873 24.8557Z" fill="#BBEB35"/>
<path fill-rule="evenodd" clip-rule="evenodd" d="M40.2151 42.9585C40.9098 43.6194 40.9372 44.7182 40.2763 45.413C39.9513 45.7546 39.7656 46.0478 39.6648 46.286C39.2913 47.169 38.2727 47.5821 37.3896 47.2086C36.5065 46.8351 36.0934 45.8165 36.4669 44.9334C36.7642 44.2305 37.2136 43.5947 37.7606 43.0197C38.4215 42.325 39.5204 42.2976 40.2151 42.9585Z" fill="white"/>
<path d="M65.9552 14.5421C65.9552 14.5421 62.5306 19.2349 59.3062 20.489C56.0818 21.7431 52.3325 19.8406 52.3325 19.8406C52.3325 19.8406 53.811 15.9048 57.0354 14.6507C60.2598 13.3966 65.9552 14.5421 65.9552 14.5421Z" fill="#87D623"/>
<path fill-rule="evenodd" clip-rule="evenodd" d="M67.3577 15.5654L65.9553 14.542L66.2976 12.84C66.8779 12.9568 67.3588 13.3611 67.5733 13.9127C67.7879 14.4644 67.7066 15.0874 67.3577 15.5654ZM63.9853 14.2459C65.1553 14.3811 65.9553 14.542 65.9553 14.542C65.9553 14.542 65.4743 15.2012 64.703 16.0914C63.4164 17.5765 61.3222 19.7048 59.3063 20.4889C56.0819 21.743 52.3326 19.8405 52.3326 19.8405C52.3326 19.8405 53.8111 15.9047 57.0355 14.6506C59.0514 13.8665 62.0333 14.0204 63.9853 14.2459ZM52.3326 19.8405C50.7074 19.2299 50.7075 19.2294 50.7078 19.2289L50.7082 19.2279L50.7091 19.2254L50.7114 19.2193L50.7178 19.2028C50.7228 19.1899 50.7293 19.1732 50.7374 19.1529C50.7534 19.1125 50.7758 19.0579 50.8044 18.9905C50.8614 18.856 50.944 18.6702 51.0528 18.4466C51.2692 18.0015 51.5949 17.3955 52.0375 16.7422C52.9001 15.4687 54.3231 13.8428 56.4062 13.0325C58.4033 12.2558 60.9683 12.2624 62.8274 12.3943C63.7969 12.463 64.6559 12.5731 65.2729 12.6658C65.5824 12.7123 65.833 12.7548 66.0089 12.7861C66.0968 12.8018 66.1662 12.8147 66.2149 12.8239L66.2724 12.835L66.2892 12.8384L66.2963 12.8398L66.2976 12.84C66.2979 12.8401 66.2976 12.84 65.9553 14.542C67.3577 15.5654 67.3579 15.5652 67.3577 15.5654L67.3569 15.5666L67.3525 15.5724L67.3424 15.5862L67.3075 15.6332C67.2779 15.6729 67.2354 15.7294 67.1812 15.8004C67.0728 15.9423 66.9166 16.1429 66.72 16.3863C66.3278 16.8715 65.7688 17.5331 65.1006 18.2388C63.8192 19.5922 61.9327 21.3302 59.9356 22.1069C57.8525 22.9171 55.7049 22.6799 54.2084 22.3239C53.4408 22.1414 52.7912 21.9147 52.3309 21.7329C52.0997 21.6415 51.9133 21.5603 51.7803 21.4997C51.7137 21.4694 51.6603 21.4441 51.6211 21.4252C51.6015 21.4158 51.5854 21.4079 51.573 21.4017L51.5572 21.3939L51.5514 21.3909L51.5479 21.3892C51.5474 21.3889 51.5469 21.3887 52.3326 19.8405ZM50.7074 19.2299L52.3326 19.8405L51.5469 21.3887C50.7579 20.9883 50.3962 20.0584 50.7074 19.2299Z" fill="#156319"/>
<path d="M59.0959 19.9962C61.8373 18.9299 64.8108 15.0989 64.8108 15.0989C58.7606 15.9226 54.5683 18.4453 53.2285 19.6037C53.2285 19.6037 56.3545 21.0625 59.0959 19.9962Z" fill="#79C01E"/>
<path d="M48.188 14.5573C49.2467 15.1434 51.4556 19.7822 51.9558 22.0672C51.9976 22.2578 52.5234 22.1238 52.4892 21.9575C52.4157 19.893 51.7435 14.8816 50.577 13.1034C48.9803 13.0157 48.2428 14.1128 48.188 14.5573Z" fill="#8C5936"/>
<path fill-rule="evenodd" clip-rule="evenodd" d="M47.2592 16.0242C46.6946 15.667 46.3823 15.0141 46.4647 14.3449C46.5615 13.5604 47.0738 12.8018 47.7066 12.2856C48.4234 11.7008 49.4297 11.3016 50.672 11.3699C51.2226 11.4001 51.7261 11.6901 52.0285 12.1511C52.4566 12.8037 52.7746 13.6381 53.0187 14.4427C53.2712 15.2748 53.4806 16.1986 53.6495 17.1051C53.9777 18.8661 54.1742 20.6759 54.221 21.8133C54.3151 22.7704 53.6359 23.3378 53.4499 23.4737C53.164 23.6825 52.8644 23.7866 52.6401 23.8381C52.4207 23.8886 52.0814 23.9332 51.6996 23.8518C51.3342 23.774 50.4803 23.4463 50.2597 22.4385C50.0527 21.4933 49.4437 19.906 48.7233 18.4416C48.3696 17.7225 48.0139 17.0843 47.7024 16.6108C47.5461 16.3731 47.4177 16.2027 47.3222 16.0927C47.2939 16.0601 47.273 16.0381 47.2592 16.0242ZM52.4891 21.9576C52.489 21.9552 52.4889 21.9528 52.4888 21.9505C52.4742 21.5461 52.4367 21.0295 52.3772 20.4468C52.27 19.3966 52.0911 18.1316 51.8452 16.9214C51.5296 15.3688 51.1036 13.9065 50.5768 13.1034C50.1112 13.0778 49.7187 13.153 49.3949 13.2833C49.0508 13.4218 48.7842 13.6226 48.59 13.8311C48.34 14.0992 48.2097 14.3801 48.1878 14.5573C48.6952 14.8382 49.4666 16.0496 50.1876 17.4868C50.6919 18.4921 51.1716 19.6079 51.5189 20.5928C51.6977 21.1 51.8415 21.5725 51.9354 21.9773C51.9424 22.0076 51.9492 22.0376 51.9557 22.0672C51.9974 22.2578 52.5233 22.1238 52.4891 21.9576ZM50.7516 21.9531C50.7515 22.0642 50.7629 22.1822 50.7886 22.3071C50.7691 22.2123 50.7576 22.1161 50.7541 22.0194C50.7533 21.9977 50.7525 21.9756 50.7516 21.9531Z" fill="#583A24"/>
<path d="M50.9156 13.3326C51.1591 13.7684 50.7406 14.4657 49.9809 14.8899C49.2213 15.3142 48.4082 15.3048 48.1647 14.869C47.9213 14.4332 48.3398 13.7359 49.0995 13.3117C49.8591 12.8874 50.6722 12.8968 50.9156 13.3326Z" fill="#C27A49"/>
<path d="M60.4039 49.2653C60.3089 50.0936 59.5604 50.6881 58.7321 50.5931C57.9038 50.4981 57.3093 49.7496 57.4043 48.9213C57.4993 48.093 58.2478 47.4985 59.0761 47.5935C59.9044 47.6885 60.4989 48.437 60.4039 49.2653Z" fill="#83A918"/>
<path d="M64.5594 52.7812C64.4644 53.6095 63.7159 54.204 62.8876 54.109C62.0593 54.014 61.4648 53.2655 61.5598 52.4372C61.6548 51.6088 62.4033 51.0143 63.2316 51.1093C64.0599 51.2043 64.6544 51.9528 64.5594 52.7812Z" fill="#83A918"/>
<path d="M64.3686 47.8207C64.2973 48.442 63.7359 48.8878 63.1146 48.8166C62.4934 48.7453 62.0476 48.1839 62.1188 47.5626C62.1901 46.9414 62.7514 46.4956 63.3726 46.5668C63.9939 46.6381 64.4398 47.1995 64.3686 47.8207Z" fill="#83A918"/>
<path d="M63.9574 58.0304C63.8624 58.8588 63.1139 59.4533 62.2856 59.3583C61.4572 59.2633 60.8627 58.5148 60.9577 57.6864C61.0527 56.8581 61.8012 56.2636 62.6296 56.3586C63.4579 56.4536 64.0524 57.2021 63.9574 58.0304Z" fill="#83A918"/>
<path d="M59.8019 54.5148C59.7069 55.3431 58.9584 55.9376 58.13 55.8426C57.3017 55.7476 56.7072 54.9991 56.8022 54.1708C56.8972 53.3425 57.6457 52.748 58.474 52.843C59.3024 52.938 59.8969 53.6865 59.8019 54.5148Z" fill="#83A918"/>
<path d="M60.4418 62.1859C60.3468 63.0143 59.5983 63.6088 58.7699 63.5138C57.9416 63.4188 57.3471 62.6703 57.4421 61.842C57.5371 61.0136 58.2856 60.4191 59.1139 60.5141C59.9423 60.6091 60.5368 61.3576 60.4418 62.1859Z" fill="#83A918"/>
<path d="M56.2001 59.4201C56.1051 60.2484 55.3566 60.8429 54.5282 60.7479C53.6999 60.6529 53.1054 59.9044 53.2004 59.0761C53.2954 58.2478 54.0439 57.6533 54.8722 57.7483C55.7006 57.8433 56.2951 58.5917 56.2001 59.4201Z" fill="#83A918"/>
<path d="M56.3051 65.1307C56.2338 65.7519 55.6724 66.1979 55.0512 66.1266C54.4299 66.0554 53.9841 65.4939 54.0553 64.8727C54.1266 64.2514 54.6879 63.8056 55.3092 63.8769C55.9304 63.9481 56.3763 64.5094 56.3051 65.1307Z" fill="#83A918"/>
<path d="M33.0081 33.9614C33.0081 33.9614 32.8333 39.5649 30.7035 42.0546C28.1364 45.0552 23.1945 43.9264 23.1945 43.9264C23.1945 43.9264 22.8275 39.4899 25.7469 36.5254C27.9927 34.245 33.0081 33.9614 33.0081 33.9614Z" fill="#10BC17"/>
<path fill-rule="evenodd" clip-rule="evenodd" d="M34.2995 34.0017L33.0081 33.9615L32.9352 32.6715C33.2969 32.6511 33.6507 32.7835 33.9101 33.0364C34.1695 33.2893 34.3108 33.6396 34.2995 34.0017ZM31.708 34.1069C32.4881 33.9909 33.0081 33.9615 33.0081 33.9615C33.0081 33.9615 32.992 34.4768 32.9102 35.2644C32.7223 37.0738 32.1875 40.32 30.7036 42.0546C28.1365 45.0552 23.1946 43.9265 23.1946 43.9265C23.1946 43.9265 22.8275 39.4899 25.747 36.5254C27.2696 34.9793 30.0654 34.3512 31.708 34.1069ZM23.1946 43.9265C21.9069 44.033 21.9069 44.0326 21.9068 44.0321L21.9067 44.031L21.9066 44.0287L21.9061 44.0226L21.9048 44.0057C21.9039 43.9922 21.9027 43.9744 21.9014 43.9527C21.8988 43.9091 21.8957 43.849 21.8932 43.7741C21.8881 43.6243 21.8849 43.4142 21.8912 43.1557C21.9037 42.64 21.954 41.9232 22.1054 41.1031C22.4055 39.4775 23.1212 37.3503 24.8264 35.6188C26.2206 34.2032 28.3461 33.4965 29.9277 33.1297C30.7499 32.939 31.4934 32.8253 32.0315 32.7591C32.3013 32.7258 32.5217 32.7042 32.6771 32.6909C32.7549 32.6842 32.8166 32.6795 32.8602 32.6764C32.882 32.6749 32.8993 32.6737 32.9119 32.6729L32.9271 32.672L32.9338 32.6716L32.9352 32.6715C32.9355 32.6715 32.9351 32.6715 33.0081 33.9615C34.2995 34.0017 34.2995 34.0015 34.2995 34.0017L34.2994 34.0047L34.2992 34.0096L34.2986 34.0255C34.2982 34.0387 34.2975 34.0572 34.2964 34.0808C34.2944 34.1278 34.2912 34.195 34.2864 34.2801C34.2768 34.4501 34.2607 34.6922 34.2346 34.9892C34.1824 35.5817 34.0896 36.4003 33.9259 37.3046C33.6116 39.0412 32.9914 41.3678 31.6853 42.8945C30.0711 44.7813 27.7726 45.3035 26.0634 45.4055C25.1908 45.4576 24.4143 45.4045 23.8566 45.3392C23.5763 45.3064 23.3476 45.2701 23.185 45.2411C23.1037 45.2266 23.0386 45.2138 22.9917 45.2042C22.9682 45.1994 22.9492 45.1954 22.9351 45.1923L22.9173 45.1884L22.9112 45.1871L22.9077 45.1863C22.9073 45.1862 22.9068 45.1861 23.1946 43.9265ZM21.9069 44.033L23.1946 43.9265L22.9068 45.1861C22.3579 45.0607 21.9533 44.5942 21.9069 44.033Z" fill="#156319"/>
<path d="M29.8347 41.8359C31.6338 40.009 32.1364 35.4229 32.1364 35.4229C27.5331 38.1534 25.4934 42.0353 24.8777 43.4703C24.8777 43.4703 28.0355 43.6628 29.8347 41.8359Z" fill="#07A00E"/>
<path d="M13.4548 40.6899C13.4548 40.6899 17.3289 38.8044 19.7842 39.3626C22.7436 40.0355 23.7435 43.8009 23.7435 43.8009C23.7435 43.8009 20.857 45.6374 17.7962 44.7119C15.4417 44.0001 13.4548 40.6899 13.4548 40.6899Z" fill="#13CA1B"/>
<path fill-rule="evenodd" clip-rule="evenodd" d="M12.8894 39.5282L13.4548 40.6899L12.3471 41.3548C12.1606 41.0442 12.1132 40.6695 12.2163 40.3222C12.3194 39.9748 12.5637 39.6868 12.8894 39.5282ZM14.2021 41.7675C13.7321 41.1518 13.4548 40.6899 13.4548 40.6899C13.4548 40.6899 13.9333 40.4571 14.6603 40.1793C16.0024 39.6665 18.1918 39.0005 19.7843 39.3627C22.7437 40.0355 23.7436 43.8008 23.7436 43.8008C23.7436 43.8008 20.857 45.6374 17.7962 44.712C16.3212 44.266 14.9904 42.8003 14.2021 41.7675ZM23.7436 43.8008C24.4372 44.8909 24.4368 44.8912 24.4363 44.8914L24.4355 44.892L24.4336 44.8932L24.4289 44.8961L24.4164 44.9039C24.4066 44.91 24.394 44.9178 24.3786 44.9271C24.3478 44.9457 24.3058 44.9705 24.2535 45.0003C24.1489 45.06 24.002 45.1401 23.8182 45.2312C23.4518 45.4126 22.9314 45.6413 22.3014 45.8372C21.0556 46.2247 19.2875 46.5127 17.4223 45.9487C15.8749 45.4808 14.5871 44.2313 13.7645 43.2782C13.3322 42.7773 12.9825 42.3034 12.7406 41.9548C12.6192 41.7798 12.5237 41.6346 12.4572 41.5309C12.4239 41.4791 12.3978 41.4375 12.3794 41.4077L12.3574 41.3719L12.3508 41.361L12.3486 41.3573L12.3471 41.3548C12.3469 41.3546 12.3471 41.3548 13.4548 40.6899C12.8894 39.5282 12.8893 39.5283 12.8894 39.5282L12.8918 39.527L12.8957 39.5252L12.9074 39.5195L12.9476 39.5004C12.9814 39.4844 13.0294 39.462 13.0903 39.4343C13.2118 39.3789 13.3853 39.3019 13.5998 39.2122C14.0274 39.0332 14.6263 38.8001 15.3108 38.5845C16.61 38.1754 18.4814 37.7414 20.0708 38.1027C22.0464 38.5519 23.2803 40.0092 23.9794 41.1657C24.3383 41.7593 24.5872 42.3232 24.7468 42.7377C24.8272 42.9463 24.8862 43.1206 24.9263 43.2466C24.9463 43.3097 24.9616 43.3608 24.9725 43.3985C24.978 43.4173 24.9823 43.4328 24.9856 43.4446L24.9898 43.4597L24.9913 43.4652L24.9921 43.4683C24.9922 43.4688 24.9923 43.4693 23.7436 43.8008ZM24.4372 44.8909L23.7436 43.8008L24.9923 43.4693C25.1368 44.0135 24.9123 44.5887 24.4372 44.8909Z" fill="#156319"/>
<path fill-rule="evenodd" clip-rule="evenodd" d="M14.047 40.4258C13.6765 40.5822 13.4551 40.6899 13.4551 40.6899C13.4551 40.6899 15.4419 44.0001 17.7963 44.712C20.8572 45.6375 23.7437 43.8009 23.7437 43.8009C23.7437 43.8009 23.5052 42.903 22.9167 41.9058C21.9577 42.4505 19.874 43.389 17.5989 42.8645C16.2256 42.5479 14.9155 41.3722 14.047 40.4258Z" fill="#33ED3B"/>
<path d="M39.7746 54.1987C41.3256 61.9271 36.3179 69.4496 28.5894 71.0006C20.861 72.5517 13.3385 67.5439 11.7874 59.8155C10.2364 52.087 15.2442 44.5645 22.9726 43.0135C30.7011 41.4625 38.2236 46.4702 39.7746 54.1987Z" fill="#FE9F81"/>
<path fill-rule="evenodd" clip-rule="evenodd" d="M41.0414 53.9445C42.7329 62.3726 37.2718 70.576 28.8437 72.2675C20.4156 73.9589 12.2122 68.4978 10.5207 60.0698C8.82926 51.6417 14.2903 43.4382 22.7184 41.7468C31.1465 40.0553 39.35 45.5164 41.0414 53.9445ZM28.5895 71.0007C36.3179 69.4497 41.3257 61.9272 39.7747 54.1987C38.2237 46.4703 30.7012 41.4625 22.9727 43.0135C15.2443 44.5645 10.2364 52.087 11.7875 59.8155C13.3385 67.5439 20.861 72.5518 28.5895 71.0007Z" fill="#AB442D"/>
<path fill-rule="evenodd" clip-rule="evenodd" d="M34.3086 68.4564C30.0113 68.6546 25.0183 65.3899 21.9799 59.9613C18.2348 53.2704 18.8443 45.7675 23.2869 42.9541C23.1822 42.9728 23.0774 42.9926 22.9726 43.0136C15.2442 44.5647 10.2363 52.0872 11.7874 59.8156C13.3384 67.5441 20.8609 72.5519 28.5894 71.0009C30.7322 70.5708 32.6658 69.6817 34.3086 68.4564Z" fill="#FF7E6C"/>
<path d="M26.7447 44.4403C28.6306 45.0119 29.4642 47.7686 28.6067 50.5974C27.7492 53.4263 25.5252 55.2561 23.6393 54.6844C21.7534 54.1127 20.9197 51.3561 21.7773 48.5273C22.6348 45.6984 24.8587 43.8686 26.7447 44.4403Z" fill="#FEC0AC"/>
<path fill-rule="evenodd" clip-rule="evenodd" d="M24.1333 48.8158C24.8231 48.9983 25.2344 49.7055 25.0519 50.3953C24.9273 50.8662 24.909 51.3111 24.9849 51.7433C25.1082 52.4461 24.6385 53.1158 23.9356 53.2392C23.2328 53.3626 22.563 52.8928 22.4397 52.19C22.2961 51.372 22.3382 50.549 22.5538 49.7343C22.7363 49.0445 23.4435 48.6333 24.1333 48.8158Z" fill="white"/>
<path fill-rule="evenodd" clip-rule="evenodd" d="M22.8116 42.6789C24.4844 41.6455 26.4131 41.4497 28.0721 41.67C28.4257 41.717 28.6744 42.0417 28.6275 42.3954C28.5805 42.7492 28.2557 42.9977 27.902 42.9508C26.4528 42.7584 24.8449 42.9415 23.4907 43.7781C22.1546 44.6036 20.9849 46.1145 20.4787 48.7424C19.451 54.0791 21.5611 58.4295 22.6944 59.8847C22.9136 60.1662 22.8631 60.5721 22.5816 60.7913C22.3002 61.0105 21.8943 60.9601 21.6751 60.6786C20.3571 58.9864 18.0992 54.2659 19.2101 48.4981C19.7732 45.5738 21.1208 43.7235 22.8116 42.6789Z" fill="#AB442D"/>
<path d="M27.1746 68.0429C27.68 68.5838 27.6512 69.432 27.1103 69.9373C26.5695 70.4427 25.7214 70.4139 25.2159 69.8731C24.7106 69.3322 24.7394 68.4841 25.2803 67.9786C25.8211 67.4733 26.6693 67.5021 27.1746 68.0429Z" fill="#EC6B59"/>
<path d="M31.2124 66.7716C31.7179 67.3126 31.689 68.1607 31.1482 68.6661C30.6074 69.1714 29.7592 69.1427 29.2538 68.6018C28.7484 68.0609 28.7772 67.2128 29.3181 66.7074C29.8589 66.2021 30.7071 66.2308 31.2124 66.7716Z" fill="#EC6B59"/>
<path d="M28.6277 63.6703C29.02 64.0901 28.9977 64.7483 28.5779 65.1405C28.1582 65.5327 27.5 65.5103 27.1078 65.0906C26.7156 64.6709 26.7379 64.0127 27.1577 63.6205C27.5774 63.2283 28.2356 63.2506 28.6277 63.6703Z" fill="#EC6B59"/>
<path d="M33.7994 65.6054C34.1916 66.0252 34.1693 66.6833 33.7495 67.0756C33.3298 67.4677 32.6716 67.4454 32.2794 67.0257C31.8872 66.6059 31.9095 65.9477 32.3293 65.5556C32.749 65.1633 33.4072 65.1857 33.7994 65.6054Z" fill="#EC6B59"/>
<path d="M24.6942 64.6313C25.0864 65.051 25.0641 65.7092 24.6443 66.1014C24.2246 66.4936 23.5664 66.4713 23.1742 66.0515C22.782 65.6318 22.8043 64.9736 23.2241 64.5814C23.6438 64.1892 24.302 64.2115 24.6942 64.6313Z" fill="#EC6B59"/>
<path d="M19.2255 63.3483C19.6176 63.768 19.5953 64.4263 19.1756 64.8184C18.7558 65.2106 18.0976 65.1884 17.7055 64.7686C17.3132 64.3489 17.3356 63.6906 17.7553 63.2984C18.1751 62.9063 18.8332 62.9286 19.2255 63.3483Z" fill="#EC6B59"/>
<path d="M34.808 62.1977C35.2002 62.6174 35.1778 63.2756 34.7581 63.6679C34.3383 64.06 33.6802 64.0377 33.288 63.6179C32.8957 63.1983 32.9181 62.54 33.3378 62.1479C33.7576 61.7556 34.4157 61.7779 34.808 62.1977Z" fill="#EC6B59"/>
<path d="M23.0799 68.0378C23.4721 68.4575 23.4498 69.1157 23.0301 69.5079C22.6103 69.9001 21.9521 69.8778 21.5599 69.458C21.1677 69.0383 21.1901 68.3801 21.6098 67.9879C22.0295 67.5957 22.6877 67.618 23.0799 68.0378Z" fill="#EC6B59"/>
<path d="M21.6962 65.1504C21.8944 65.3626 21.8831 65.6952 21.671 65.8935C21.4588 66.0917 21.1261 66.0804 20.928 65.8682C20.7297 65.6561 20.7411 65.3234 20.9531 65.1252C21.1653 64.927 21.498 64.9383 21.6962 65.1504Z" fill="#EC6B59"/>
<path d="M16.1159 63.5259C16.3141 63.7381 16.3028 64.0708 16.0907 64.2689C15.8785 64.4672 15.5459 64.4559 15.3476 64.2438C15.1494 64.0316 15.1607 63.6989 15.3729 63.5008C15.585 63.3025 15.9177 63.3138 16.1159 63.5259Z" fill="#EC6B59"/>
<path d="M36.6406 64.0191C36.8387 64.2313 36.8275 64.5639 36.6153 64.7621C36.4032 64.9603 36.0706 64.9491 35.8723 64.7369C35.6741 64.5248 35.6854 64.1921 35.8975 63.9939C36.1096 63.7957 36.4423 63.8069 36.6406 64.0191Z" fill="#EC6B59"/>
<path d="M31.8256 63.0088C32.0238 63.2209 32.0125 63.5536 31.8004 63.7518C31.5882 63.9501 31.2556 63.9388 31.0573 63.7267C30.8592 63.5145 30.8704 63.1818 31.0826 62.9836C31.2947 62.7854 31.6273 62.7967 31.8256 63.0088Z" fill="#EC6B59"/>
<path d="M37.3991 61.2313C37.5973 61.4433 37.586 61.776 37.3739 61.9743C37.1617 62.1725 36.8291 62.1612 36.6308 61.9491C36.4326 61.7369 36.4439 61.4043 36.6561 61.206C36.8681 61.0078 37.2008 61.0191 37.3991 61.2313Z" fill="#EC6B59"/>
<path d="M19.7654 66.2032C20.0928 66.5536 20.0742 67.1029 19.7238 67.4302C19.3735 67.7575 18.8241 67.739 18.4968 67.3886C18.1694 67.0383 18.188 66.4889 18.5384 66.1616C18.8888 65.8342 19.4381 65.8528 19.7654 66.2032Z" fill="#EC6B59"/>
</svg>
