<svg width="80" height="80" viewBox="0 0 80 80" fill="none" xmlns="http://www.w3.org/2000/svg">
<path d="M53.871 13.7108C55.4927 11.4452 58.6631 10.9097 60.9523 12.5147C63.2415 14.1198 63.7825 17.2575 62.1608 19.5232L32.354 61.1634C30.7322 63.429 27.5617 63.9645 25.2726 62.3594C22.9834 60.7544 22.4423 57.6167 24.0641 55.3511L53.871 13.7108Z" fill="#CE6767"/>
<path d="M54.5218 14.5118C55.2378 13.5116 56.6375 13.2752 57.6481 13.9838C58.6587 14.6924 58.8976 16.0776 58.1816 17.0778L41.2965 40.6663C40.5805 41.6666 39.1808 41.9029 38.1702 41.1944C37.1597 40.4858 36.9207 39.1005 37.6367 38.1004L54.5218 14.5118Z" fill="#E08181"/>
<path fill-rule="evenodd" clip-rule="evenodd" d="M61.4267 18.0686C61.6785 18.4499 61.5702 18.961 61.1849 19.2101C59.6825 20.1815 57.0222 20.936 53.321 20.4188C52.8652 20.3551 52.548 19.9379 52.6123 19.4869C52.6766 19.0358 53.0982 18.7219 53.5539 18.7855C56.936 19.258 59.1715 18.5417 60.2733 17.8292C60.6586 17.5801 61.175 17.6872 61.4267 18.0686Z" fill="#983232"/>
<path fill-rule="evenodd" clip-rule="evenodd" d="M58.6926 22.0892C58.9443 22.4705 58.836 22.9816 58.4507 23.2307C57.6433 23.7528 56.3496 24.1154 54.978 24.2768C53.5833 24.4408 51.9892 24.4109 50.5312 24.0577C50.0842 23.9494 49.8104 23.503 49.9198 23.0606C50.0293 22.6181 50.4803 22.3472 50.9274 22.4555C52.1517 22.7521 53.5393 22.7849 54.7813 22.6388C56.0465 22.49 57.0444 22.1697 57.5392 21.8499C57.9244 21.6007 58.4408 21.7078 58.6926 22.0892Z" fill="#983232"/>
<path fill-rule="evenodd" clip-rule="evenodd" d="M55.9322 25.8005C56.1838 26.1818 56.0756 26.6929 55.6903 26.942C54.9381 27.4284 53.7122 27.9387 52.3363 28.2307C50.9581 28.5232 49.3431 28.615 47.8379 28.1768C47.3964 28.0483 47.1437 27.5899 47.2736 27.1529C47.4034 26.7159 47.8667 26.4658 48.3082 26.5944C49.4593 26.9294 50.7739 26.8752 51.9869 26.6178C53.2022 26.36 54.2288 25.9167 54.7787 25.5612C55.164 25.312 55.6804 25.4192 55.9322 25.8005Z" fill="#983232"/>
<path fill-rule="evenodd" clip-rule="evenodd" d="M52.5988 30.4139C52.8505 30.7952 52.7422 31.3063 52.3569 31.5555C51.5207 32.0961 50.164 32.3837 48.8046 32.4667C47.4126 32.5517 45.8508 32.4322 44.5228 32.0317C44.0825 31.8989 43.8344 31.438 43.9685 31.0023C44.1027 30.5666 44.5684 30.321 45.0086 30.4538C46.1025 30.7838 47.4574 30.8963 48.702 30.8204C49.9795 30.7424 50.9795 30.4758 51.4454 30.1745C51.8306 29.9254 52.347 30.0326 52.5988 30.4139Z" fill="#983232"/>
<path fill-rule="evenodd" clip-rule="evenodd" d="M55.8257 15.3584C56.2091 15.6105 56.3134 16.1224 56.0587 16.5018L51.1108 23.8729C50.8561 24.2523 50.3389 24.3555 49.9555 24.1035C49.5722 23.8515 49.4679 23.3395 49.7225 22.9602L54.6705 15.589C54.9251 15.2097 55.4424 15.1064 55.8257 15.3584Z" fill="#FBABAB"/>
<path d="M32.3594 31.2657C34.4879 28.2923 38.6488 27.5895 41.6532 29.696L51.3677 36.5072C54.3721 38.6137 55.0822 42.7317 52.9538 45.7051L34.4614 71.539C32.9011 73.7187 30.1611 74.7649 27.5939 73.9404C24.8975 73.0745 21.5166 71.7688 19.2709 70.1175C17.3119 68.677 15.3031 66.3017 13.7909 64.2972C12.19 62.1753 12.2935 59.2979 13.8402 57.1371L32.3594 31.2657Z" fill="#F4CE6C"/>
<path d="M42.153 37.7904C43.2171 36.3037 45.2976 35.9523 46.7998 37.0055L50.7973 39.8083C52.2995 40.8615 52.6545 42.9205 51.5903 44.4072L32.404 71.2104C31.7795 72.0829 30.7657 72.6079 29.6886 72.5233C28.204 72.4066 26.1055 72.1157 24.848 71.3902C22.3072 69.9242 21.9305 67.7836 21.921 66.6879C21.917 66.2223 22.1116 65.7881 22.3835 65.4082L42.153 37.7904Z" fill="#DFB64E"/>
<path fill-rule="evenodd" clip-rule="evenodd" d="M39.1806 31.9591C39.9363 32.479 40.1232 33.507 39.5978 34.2549L20.1186 61.9869C19.5932 62.7349 18.5546 62.9197 17.7988 62.3997C17.0429 61.8797 16.8562 60.8519 17.3816 60.1038L36.8608 32.3719C37.3862 31.6239 38.4248 31.4391 39.1806 31.9591Z" fill="#FDE3A0"/>
<path fill-rule="evenodd" clip-rule="evenodd" d="M50.4733 41.4729C51.0401 41.8629 51.1802 42.6338 50.7861 43.1949L31.307 70.9268C30.9129 71.4878 30.134 71.6264 29.5671 71.2364C29.0003 70.8464 28.8602 70.0755 29.2542 69.5145L48.7334 41.7826C49.1275 41.2215 49.9064 41.0829 50.4733 41.4729Z" fill="#CCA238"/>
<path fill-rule="evenodd" clip-rule="evenodd" d="M35.3743 33.1105C35.8327 33.151 36.1711 33.5516 36.1302 34.0053C36.0508 34.885 36.0822 36.4349 36.4555 38.1272C36.829 39.8207 37.5308 41.593 38.7429 42.9801C39.979 44.3945 40.9198 45.402 41.6482 46.1818C41.8968 46.4481 42.1207 46.6878 42.323 46.9081C43.0912 47.7444 43.6233 48.3722 43.8958 49.114C44.0531 49.5421 43.83 50.0153 43.3974 50.1709C42.9649 50.3267 42.4868 50.1058 42.3295 49.6777C42.1854 49.2856 41.8842 48.8825 41.0898 48.0177C40.8978 47.8087 40.6809 47.5765 40.4374 47.3157C39.7077 46.5343 38.7385 45.4966 37.4823 44.0591C36.0278 42.3947 35.2366 40.3354 34.8272 38.479C34.4174 36.6214 34.3759 34.9033 34.4701 33.8586C34.5111 33.4049 34.9159 33.07 35.3743 33.1105Z" fill="#CB9B1F"/>
<path fill-rule="evenodd" clip-rule="evenodd" d="M29.1938 42.492C29.6523 42.5325 29.9907 42.9331 29.9498 43.3868C29.8704 44.2665 29.9018 45.8164 30.275 47.5087C30.6486 49.2022 31.3503 50.9744 32.5625 52.3616C33.7986 53.776 34.7394 54.7834 35.4678 55.5633C35.7163 55.8295 35.9403 56.0693 36.1426 56.2896C36.9108 57.1259 37.4428 57.7537 37.7154 58.4955C37.8727 58.9236 37.6496 59.3968 37.217 59.5524C36.7845 59.7081 36.3063 59.4873 36.1491 59.0592C36.005 58.6671 35.7038 58.2639 34.9093 57.3992C34.7174 57.1902 34.5005 56.9579 34.257 56.6972C33.5273 55.9158 32.5581 54.878 31.3019 53.4406C29.8474 51.7762 29.0562 49.7169 28.6468 47.8605C28.237 46.0029 28.1954 44.2848 28.2897 43.2401C28.3307 42.7864 28.7354 42.4515 29.1938 42.492Z" fill="#CB9B1F"/>
<path fill-rule="evenodd" clip-rule="evenodd" d="M22.9438 50.2239C23.4023 50.2644 23.7407 50.6651 23.6998 51.1187C23.6204 51.9984 23.6518 53.5484 24.025 55.2406C24.3986 56.9341 25.1003 58.7064 26.3125 60.0935C27.5486 61.508 28.4894 62.5154 29.2178 63.2952C29.4663 63.5615 29.6903 63.8012 29.8926 64.0215C30.6608 64.8578 31.1929 65.4856 31.4654 66.2275C31.6227 66.6555 31.3996 67.1287 30.967 67.2844C30.5345 67.4401 30.0563 67.2192 29.8991 66.7912C29.755 66.399 29.4538 65.9959 28.6593 65.1311C28.4674 64.9221 28.2505 64.6899 28.007 64.4291C27.2773 63.6477 26.3081 62.61 25.0519 61.1725C23.5974 59.5081 22.8062 57.4488 22.3968 55.5924C21.987 53.7348 21.9454 52.0167 22.0397 50.972C22.0807 50.5183 22.4854 50.1834 22.9438 50.2239Z" fill="#CB9B1F"/>
<path d="M27.2916 66.3804C27.2916 66.9071 26.8252 67.334 26.2499 67.334C25.6746 67.334 25.2083 66.9071 25.2083 66.3804C25.2083 65.8537 25.6746 65.4268 26.2499 65.4268C26.8252 65.4268 27.2916 65.8537 27.2916 66.3804Z" fill="#CCA238"/>
<path d="M29.5313 69.267C29.5313 69.7937 29.0649 70.2206 28.4897 70.2206C27.9143 70.2206 27.448 69.7937 27.448 69.267C27.448 68.7403 27.9143 68.3134 28.4897 68.3134C29.0649 68.3134 29.5313 68.7403 29.5313 69.267Z" fill="#CCA238"/>
<path d="M26.2218 69.4732C26.2218 70.2561 25.5286 70.8907 24.6734 70.8907C23.8183 70.8907 23.125 70.2561 23.125 69.4732C23.125 68.6904 23.8183 68.0557 24.6734 68.0557C25.5286 68.0557 26.2218 68.6904 26.2218 69.4732Z" fill="#CCA238"/>
<path d="M33.0066 66.3805C33.0066 67.1633 32.3133 67.7979 31.4581 67.7979C30.6029 67.7979 29.9097 67.1633 29.9097 66.3805C29.9097 65.5976 30.6029 64.9629 31.4581 64.9629C32.3133 64.9629 33.0066 65.5976 33.0066 66.3805Z" fill="#CCA238"/>
<path d="M31.4141 63.5453C31.4141 63.9154 31.0864 64.2155 30.6822 64.2155C30.2779 64.2155 29.9502 63.9154 29.9502 63.5453C29.9502 63.1753 30.2779 62.8752 30.6822 62.8752C31.0864 62.8752 31.4141 63.1753 31.4141 63.5453Z" fill="#CCA238"/>
<path d="M34.6009 64.7567C34.6009 65.1268 34.2731 65.4268 33.8689 65.4268C33.4646 65.4268 33.137 65.1268 33.137 64.7567C33.137 64.3866 33.4646 64.0865 33.8689 64.0865C34.2731 64.0865 34.6009 64.3866 34.6009 64.7567Z" fill="#CCA238"/>
<path d="M35.5722 61.4062C35.5722 61.7763 35.2444 62.0763 34.8402 62.0763C34.4359 62.0763 34.1082 61.7763 34.1082 61.4062C34.1082 61.0361 34.4359 60.7361 34.8402 60.7361C35.2444 60.7361 35.5722 61.0361 35.5722 61.4062Z" fill="#CCA238"/>
<path d="M36.9782 66.084C36.9782 66.4542 36.6504 66.7541 36.2462 66.7541C35.8419 66.7541 35.5142 66.4542 35.5142 66.084C35.5142 65.714 35.8419 65.4139 36.2462 65.4139C36.6504 65.4139 36.9782 65.714 36.9782 66.084Z" fill="#CCA238"/>
<path d="M32.4654 70.2982C32.4654 70.6683 32.1376 70.9683 31.7334 70.9683C31.3291 70.9683 31.0015 70.6683 31.0015 70.2982C31.0015 69.9281 31.3291 69.6281 31.7334 69.6281C32.1376 69.6281 32.4654 69.9281 32.4654 70.2982Z" fill="#CCA238"/>
<path d="M27.7139 71.6384C27.7139 72.0085 27.3863 72.3085 26.9819 72.3085C26.5777 72.3085 26.25 72.0085 26.25 71.6384C26.25 71.2683 26.5777 70.9683 26.9819 70.9683C27.3863 70.9683 27.7139 71.2683 27.7139 71.6384Z" fill="#CCA238"/>
<path d="M21.1276 68.3134C21.1276 68.6836 20.7998 68.9835 20.3956 68.9835C19.9913 68.9835 19.6636 68.6836 19.6636 68.3134C19.6636 67.9434 19.9913 67.6433 20.3956 67.6433C20.7998 67.6433 21.1276 67.9434 21.1276 68.3134Z" fill="#CCA238"/>
<path d="M24.2947 66.9732C24.2947 67.3433 23.9671 67.6433 23.5628 67.6433C23.1585 67.6433 22.8308 67.3433 22.8308 66.9732C22.8308 66.6031 23.1585 66.3031 23.5628 66.3031C23.9671 66.3031 24.2947 66.6031 24.2947 66.9732Z" fill="#CCA238"/>
<path d="M38.396 63.9965C38.396 64.3666 38.0684 64.6666 37.6641 64.6666C37.2598 64.6666 36.9321 64.3666 36.9321 63.9965C36.9321 63.6264 37.2598 63.3264 37.6641 63.3264C38.0684 63.3264 38.396 63.6264 38.396 63.9965Z" fill="#CCA238"/>
<path d="M27.7491 63.9965C27.7491 64.2455 27.5285 64.4474 27.2563 64.4474C26.9843 64.4474 26.7637 64.2455 26.7637 63.9965C26.7637 63.7473 26.9843 63.5454 27.2563 63.5454C27.5285 63.5454 27.7491 63.7473 27.7491 63.9965Z" fill="#CCA238"/>
<path d="M24.6734 64.8984C24.6734 65.1476 24.4528 65.3495 24.1807 65.3495C23.9086 65.3495 23.688 65.1476 23.688 64.8984C23.688 64.6494 23.9086 64.4474 24.1807 64.4474C24.4528 64.4474 24.6734 64.6494 24.6734 64.8984Z" fill="#CCA238"/>
<path d="M29.1904 66.7541C29.1904 67.0033 28.9698 67.2052 28.6977 67.2052C28.4257 67.2052 28.2051 67.0033 28.2051 66.7541C28.2051 66.5051 28.4257 66.3031 28.6977 66.3031C28.9698 66.3031 29.1904 66.5051 29.1904 66.7541Z" fill="#CCA238"/>
<path d="M35.0935 68.5067C35.0935 68.7559 34.8729 68.9578 34.6008 68.9578C34.3287 68.9578 34.1082 68.7559 34.1082 68.5067C34.1082 68.2576 34.3287 68.0557 34.6008 68.0557C34.8729 68.0557 35.0935 68.2576 35.0935 68.5067Z" fill="#CCA238"/>
<path d="M29.9097 72.3084C29.9097 72.5576 29.6891 72.7594 29.417 72.7594C29.1449 72.7594 28.9243 72.5576 28.9243 72.3084C28.9243 72.0593 29.1449 71.8574 29.417 71.8574C29.6891 71.8574 29.9097 72.0593 29.9097 72.3084Z" fill="#CCA238"/>
<path d="M33.4507 62.6818C33.4507 62.9308 33.2301 63.1328 32.958 63.1328C32.6859 63.1328 32.4653 62.9308 32.4653 62.6818C32.4653 62.4326 32.6859 62.2307 32.958 62.2307C33.2301 62.2307 33.4507 62.4326 33.4507 62.6818Z" fill="#CCA238"/>
</svg>
