<svg width="80" height="81" viewBox="0 0 80 81" fill="none" xmlns="http://www.w3.org/2000/svg">
<path fill-rule="evenodd" clip-rule="evenodd" d="M60.2099 43.833C60.5841 51.5474 53.9429 59.2872 44.145 61.9276C34.3821 64.5585 24.7848 61.2369 21.2017 54.4284C19.5456 54.8556 17.8911 54.0193 17.4944 52.5473C17.0978 51.0753 18.1081 49.5209 19.7545 49.0581C19.4315 41.3712 26.0602 33.6771 35.8231 31.0462C45.621 28.4059 55.2519 31.7607 58.8046 38.6184C60.2004 38.5521 61.4627 39.3465 61.8025 40.6072C62.1422 41.8679 61.4499 43.189 60.2099 43.833Z" fill="#FFD12F"/>
<path fill-rule="evenodd" clip-rule="evenodd" d="M61.8899 44.7014C61.7557 53.0874 54.4939 60.8647 44.5786 63.5366C34.7789 66.1775 24.7177 63.2047 20.3028 56.2022C18.3403 56.1849 16.441 55.0435 15.8851 52.9808C15.3293 50.9181 16.3979 48.9768 18.086 47.9758C18.3846 39.7032 25.5898 32.0776 35.3894 29.4367C45.3047 26.7648 55.4909 29.8401 59.8207 37.0231C61.4551 37.3099 62.9362 38.4091 63.4117 40.1733C63.8871 41.9376 63.1588 43.6321 61.8899 44.7014ZM60.2098 43.8328C60.5841 51.5472 53.9429 59.287 44.145 61.9274C34.382 64.5583 24.7847 61.2367 21.2016 54.4282C19.5456 54.8554 17.8911 54.0191 17.4944 52.5471C17.0977 51.0751 18.108 49.5207 19.7545 49.0579C19.4315 41.371 26.0602 33.6769 35.8231 31.046C45.6209 28.4057 55.2518 31.7605 58.8046 38.6182C60.2003 38.5519 61.4627 39.3463 61.8024 40.607C62.1421 41.8677 61.4499 43.1888 60.2098 43.8328Z" fill="#755F13"/>
<path d="M38.2876 37.4415C39.4765 40.0477 37.2712 43.6062 33.3619 45.3895C29.4526 47.1729 25.3196 46.5058 24.1307 43.8996C22.9418 41.2934 25.1472 37.735 29.0565 35.9516C32.9658 34.1682 37.0987 34.8353 38.2876 37.4415Z" fill="#FFEA2F"/>
<path d="M20.3495 50.3937C20.6167 50.9794 20.3037 51.6958 19.6505 51.9938C18.9972 52.2918 18.251 52.0586 17.9838 51.4729C17.7166 50.8872 18.0296 50.1708 18.6829 49.8728C19.3361 49.5747 20.0823 49.808 20.3495 50.3937Z" fill="#FFEA2F"/>
<path fill-rule="evenodd" clip-rule="evenodd" d="M38.1943 57.2601C49.3168 54.2628 56.604 45.4154 54.4707 37.4989C53.8401 35.1589 52.457 33.1622 50.5341 31.5876C54.2046 33.0129 57.1577 35.4392 58.8046 38.6182C60.2003 38.552 61.4627 39.3464 61.8024 40.607C62.1421 41.8677 61.4499 43.1888 60.2098 43.8328C60.584 51.5472 53.9428 59.287 44.145 61.9273C35.6702 64.2111 27.3203 62.0095 22.9207 56.9354C27.2482 58.5147 32.6749 58.7475 38.1943 57.2601Z" fill="#DEB523"/>
<path d="M54.0619 47.4625C53.502 48.075 52.5515 48.1177 51.9389 47.5578C51.3263 46.9979 51.2837 46.0474 51.8436 45.4348C52.4035 44.8223 53.354 44.7796 53.9666 45.3395C54.5791 45.8994 54.6218 46.8499 54.0619 47.4625Z" fill="#C89616"/>
<path d="M55.3617 51.889C54.8018 52.5016 53.8513 52.5442 53.2387 51.9843C52.6262 51.4244 52.5835 50.4739 53.1434 49.8613C53.7033 49.2488 54.6538 49.2061 55.2664 49.766C55.8789 50.3259 55.9216 51.2764 55.3617 51.889Z" fill="#C89616"/>
<path d="M58.1018 47.7774C57.6819 48.2368 56.969 48.2688 56.5096 47.8489C56.0502 47.429 56.0182 46.7161 56.4381 46.2567C56.8581 45.7972 57.5709 45.7652 58.0303 46.1852C58.4898 46.6051 58.5218 47.318 58.1018 47.7774Z" fill="#C89616"/>
<path d="M51.8131 55.7711C51.2532 56.3836 50.3027 56.4263 49.6901 55.8664C49.0776 55.3065 49.0349 54.356 49.5948 53.7434C50.1547 53.1309 51.1052 53.0882 51.7178 53.6481C52.3303 54.208 52.373 55.1585 51.8131 55.7711Z" fill="#C89616"/>
<path d="M50.5133 50.5113C49.9534 51.1239 49.0029 51.1666 48.3903 50.6066C47.7778 50.0467 47.7351 49.0962 48.295 48.4837C48.8549 47.8711 49.8054 47.8284 50.418 48.3883C51.0305 48.9483 51.0732 49.8987 50.5133 50.5113Z" fill="#C89616"/>
<path d="M46.8807 58.0965C46.1468 58.8994 44.901 58.9553 44.0981 58.2214C43.2952 57.4875 43.2393 56.2417 43.9732 55.4389C44.7071 54.636 45.9529 54.58 46.7558 55.3139C47.5586 56.0478 47.6146 57.2936 46.8807 58.0965Z" fill="#C89616"/>
<path d="M40.7323 60.1077C40.1724 60.7203 39.2219 60.763 38.6093 60.2031C37.9968 59.6431 37.9541 58.6927 38.514 58.0801C39.0739 57.4675 40.0244 57.4249 40.637 57.9848C41.2495 58.5447 41.2922 59.4952 40.7323 60.1077Z" fill="#C89616"/>
<path d="M45.2333 52.6257C44.8047 53.0946 44.0771 53.1273 43.6082 52.6987C43.1393 52.2701 43.1066 51.5425 43.5352 51.0736C43.9638 50.6047 44.6914 50.5721 45.1603 51.0007C45.6292 51.4293 45.6619 52.1568 45.2333 52.6257Z" fill="#C89616"/>
<path d="M42.3921 56.3782C42.0467 56.7561 41.4605 56.7824 41.0826 56.437C40.7048 56.0917 40.6784 55.5054 41.0238 55.1275C41.3692 54.7497 41.9555 54.7233 42.3333 55.0687C42.7112 55.4141 42.7375 56.0004 42.3921 56.3782Z" fill="#C89616"/>
<path d="M34.9241 60.9903C34.5042 61.4497 33.7913 61.4817 33.3319 61.0618C32.8724 60.6418 32.8404 59.929 33.2604 59.4696C33.6803 59.0101 34.3932 58.9781 34.8526 59.3981C35.312 59.818 35.344 60.5309 34.9241 60.9903Z" fill="#C89616"/>
<path fill-rule="evenodd" clip-rule="evenodd" d="M30.8167 38.8929C31.2283 39.7162 30.8946 40.7173 30.0713 41.1289C29.412 41.4586 28.8847 41.8852 28.4662 42.4083C27.8912 43.1271 26.8424 43.2436 26.1236 42.6686C25.4048 42.0936 25.2883 41.0448 25.8633 40.326C26.5975 39.4083 27.5109 38.6823 28.5806 38.1475C29.4039 37.7359 30.405 38.0696 30.8167 38.8929Z" fill="white"/>
<path fill-rule="evenodd" clip-rule="evenodd" d="M58.7088 43.0688C60.1044 43.0688 61.2358 41.9375 61.2358 40.5418C61.2358 40.104 61.1244 39.6921 60.9285 39.333C61.7138 39.7616 62.2466 40.5949 62.2466 41.5526C62.2466 42.9482 61.1152 44.0796 59.7196 44.0796C58.7619 44.0796 57.9286 43.5468 57.5 42.7615C57.8591 42.9574 58.271 43.0688 58.7088 43.0688Z" fill="#AE8C14"/>
</svg>
