<svg width="80" height="81" viewBox="0 0 80 81" fill="none" xmlns="http://www.w3.org/2000/svg">
<path d="M19.4737 41.2117C26.0576 28.4388 36.2628 28.6473 40.5424 30.3482L54.3687 42.1994C55.2466 46.0949 55.2575 55.2027 48.2785 60.4699C41.2996 65.7371 28.8558 66.3955 21.7781 63.1035C16.1159 55.4661 17.8826 45.3267 19.4737 41.2117Z" fill="#EA6C25"/>
<path fill-rule="evenodd" clip-rule="evenodd" d="M41.1581 28.7995C41.329 28.8674 41.4875 28.9633 41.6272 29.0829L55.4535 40.9341C55.726 41.1677 55.9159 41.483 55.9948 41.8331C56.4832 44.0004 56.7145 47.5005 55.8972 51.1817C55.0746 54.886 53.1648 58.8705 49.2827 61.8004C45.4666 64.6805 40.277 66.2286 35.2059 66.6573C30.1365 67.0859 24.9475 66.4159 21.0754 64.6149C20.8235 64.4977 20.6048 64.3195 20.4394 64.0963C17.3428 59.9194 16.3108 55.104 16.2396 50.8649C16.1686 46.6361 17.0499 42.8594 17.9194 40.6109C17.9408 40.5555 17.9651 40.5011 17.9924 40.4483C21.4595 33.7222 25.9734 30.2608 30.3349 28.7749C34.6431 27.307 38.6734 27.812 41.1581 28.7995ZM21.7782 63.1037C16.116 55.4663 17.8827 45.327 19.4739 41.2119C26.0578 28.439 36.263 28.6475 40.5425 30.3484L54.3689 42.1995C55.2468 46.095 55.2577 55.2029 48.2787 60.4701C41.2997 65.7373 28.856 66.3957 21.7782 63.1037Z" fill="#923805"/>
<path d="M35.707 46.3582C33.941 51.5911 29.2394 54.7296 25.2058 53.3683C21.172 52.0069 19.3338 46.6613 21.0999 41.4284C22.8659 36.1956 27.5674 33.057 31.6011 34.4183C35.6348 35.7797 37.4731 41.1253 35.707 46.3582Z" fill="#FD8542"/>
<path fill-rule="evenodd" clip-rule="evenodd" d="M28.5327 64.9004C35.2258 65.6955 43.1994 64.3032 48.2785 60.4699C55.2575 55.2027 55.2465 46.0949 54.3687 42.1994L40.5424 30.3481C38.615 29.5822 35.486 29.1189 32.027 30.0076C32.394 30.1105 32.7335 30.2255 33.0424 30.3481L46.8687 42.1994C47.7465 46.0949 47.7575 55.2027 40.7785 60.4699C37.5203 62.9289 33.071 64.3835 28.5327 64.9004Z" fill="#CB5817"/>
<path fill-rule="evenodd" clip-rule="evenodd" d="M29.4354 35.2553C29.6972 35.6339 29.6024 36.153 29.2239 36.4146C26.6517 38.193 21.3279 44.6573 21.9778 55.7848C22.0045 56.2442 21.6539 56.6385 21.1944 56.6653C20.7349 56.6921 20.3407 56.3414 20.3139 55.882C19.6304 44.176 25.2233 37.1543 28.2761 35.0437C28.6547 34.782 29.1737 34.8767 29.4354 35.2553Z" fill="#FFC09D"/>
<path d="M57.8254 18.0033C50.7147 20.1102 47.8397 26.782 47.291 29.8545L49.4308 31.6651C51.5377 26.3979 55.0684 25.2047 57.8254 24.7519C60.3274 24.6203 60.3283 25.9196 62.105 26.3979C65.5287 27.3197 66.8235 25.2457 67.043 24.0935C67.043 20.884 64.9361 15.8964 57.8254 18.0033Z" fill="#85360A"/>
<path fill-rule="evenodd" clip-rule="evenodd" d="M46.2144 31.1267C45.7607 30.7428 45.5458 30.1464 45.6502 29.5614C46.2586 26.1548 49.4003 18.7613 57.3518 16.4053C61.3302 15.2264 64.3131 15.9528 66.2661 17.8633C68.1026 19.6598 68.7096 22.2035 68.7096 24.0934C68.7096 24.1981 68.6997 24.3025 68.6802 24.4053C68.5042 25.3292 67.9271 26.5488 66.7335 27.3872C65.4751 28.2712 63.7647 28.5707 61.6717 28.0072C60.6224 27.7247 59.8853 27.1653 59.4855 26.862C59.4086 26.8036 59.3441 26.7547 59.2923 26.7191C59.1155 26.5974 58.9877 26.5313 58.8329 26.4862C58.6797 26.4414 58.4275 26.3968 58.0007 26.4123C56.7675 26.6219 55.4988 26.9808 54.3212 27.7813C53.133 28.5891 51.9215 29.9259 50.9782 32.284C50.7792 32.7814 50.3533 33.1528 49.8334 33.2823C49.3136 33.4118 48.7632 33.2833 48.3542 32.9373L46.2144 31.1267ZM57.8253 24.7518C59.3409 24.6721 59.9387 25.1173 60.5695 25.5873C60.98 25.893 61.4045 26.2093 62.1049 26.3978C65.5286 27.3196 66.8234 25.2456 67.0429 24.0934C67.0429 20.8839 64.9361 15.8963 57.8253 18.0033C50.7147 20.1101 47.8397 26.7818 47.291 29.8544L49.4307 31.665C49.6581 31.0968 49.9019 30.576 50.1596 30.0984C52.2904 26.149 55.3657 25.1558 57.8253 24.7518Z" fill="#4D1F05"/>
<path fill-rule="evenodd" clip-rule="evenodd" d="M59.8436 23.0576C59.8519 23.5178 59.4857 23.8976 59.0255 23.906C57.3282 23.9369 52.9471 25.0198 49.8349 29.1958C49.5598 29.5648 49.0377 29.641 48.6687 29.366C48.2996 29.091 48.2234 28.5689 48.4984 28.1998C51.9694 23.5425 56.8731 22.2782 58.9953 22.2396C59.4554 22.2312 59.8352 22.5975 59.8436 23.0576Z" fill="#4D1F05"/>
<path fill-rule="evenodd" clip-rule="evenodd" d="M56.9792 20.0875C59.6779 18.8281 62.1351 19.2352 63.1344 19.6659C63.557 19.8481 63.7519 20.3384 63.5698 20.7611C63.3876 21.1836 62.8973 21.3786 62.4746 21.1965C61.8827 20.9413 59.9232 20.5528 57.6839 21.5978C57.2669 21.7925 56.771 21.6121 56.5764 21.1951C56.3818 20.778 56.5621 20.2821 56.9792 20.0875Z" fill="#BE5B23"/>
<path d="M27.5 22.7082C25.7224 27.2512 27.3843 29.2368 28.125 30.4165C30.5116 30.4165 34.2157 32.7362 41.4581 38.1679C47.3006 42.5498 53.3381 50.1342 54.2708 53.6457C55.6151 54.3315 59.5833 54.2707 61.4583 51.7707C63.8143 48.6292 63.5692 46.2058 63.1029 44.505C61.5886 39.2378 57.5942 32.1382 53.5562 28.5388C45.773 21.6014 40.7176 20.0997 36.9387 18.9771L36.875 18.9582C34.6804 18.3272 28.9673 18.9582 27.5 22.7082Z" fill="#863203"/>
<path fill-rule="evenodd" clip-rule="evenodd" d="M28.125 32.0834C27.5516 32.0834 27.0184 31.7885 26.7135 31.3029C26.6745 31.2408 26.627 31.1686 26.5732 31.0868C26.2119 30.538 25.5638 29.5534 25.246 28.2064C24.8686 26.6068 24.9597 24.6268 25.9479 22.101C26.9521 19.5349 29.3324 18.2048 31.4501 17.5899C33.5629 16.9764 35.8684 16.9348 37.3355 17.3565L37.3497 17.3607L37.4134 17.3796C41.3413 18.5464 46.6423 20.1438 54.6651 27.2949C56.86 29.2512 58.9708 32.0847 60.7133 35.0529C62.4609 38.0298 63.9013 41.2502 64.7047 44.0446L64.7103 44.0644C64.9792 45.0452 65.2075 46.3206 64.9886 47.836C64.769 49.3567 64.116 51.0051 62.7917 52.7709C61.515 54.4731 59.6008 55.2588 57.9505 55.5451C56.3588 55.8214 54.6252 55.6977 53.5135 55.1304C53.0918 54.9154 52.7815 54.5311 52.66 54.0737C52.4896 53.4322 52.0383 52.4642 51.28 51.2397C50.5377 50.041 49.5579 48.6863 48.4152 47.2881C46.1237 44.4846 43.2486 41.5943 40.4581 39.5014C36.8395 36.7874 34.1664 34.8984 32.1225 33.6902C30.0262 32.4509 28.8379 32.0834 28.125 32.0834ZM36.9388 18.9773L36.875 18.9584C34.6804 18.3274 28.9674 18.9584 27.5 22.7084C25.8502 26.9247 27.1631 28.9383 27.9526 30.1491C28.0138 30.2429 28.0718 30.3319 28.125 30.4167C30.5117 30.4167 34.2158 32.7363 41.4581 38.1681C47.3006 42.5499 53.3381 50.1344 54.2709 53.6459C55.6151 54.3317 59.5834 54.2709 61.4584 51.7709C63.8144 48.6294 63.5693 46.206 63.103 44.5052C61.5886 39.2379 57.5943 32.1383 53.5562 28.539C45.773 21.6015 40.7177 20.0998 36.9388 18.9773Z" fill="#491C03"/>
<path fill-rule="evenodd" clip-rule="evenodd" d="M31.3287 22.5695C31.7505 20.5418 33.7362 19.24 35.7638 19.6619C38.6647 20.2655 42.1887 21.4324 45.4234 23.3264C48.642 25.2109 51.8381 27.9742 53.6202 31.8812C54.4797 33.7655 53.6489 35.9898 51.7647 36.8493C49.8803 37.7088 47.656 36.878 46.7965 34.9937C45.8703 32.9632 44.049 31.2126 41.6339 29.7986C39.235 28.394 36.5088 27.4775 34.2362 27.0046C32.2085 26.5828 30.9067 24.5971 31.3287 22.5695Z" fill="#A84610"/>
<path fill-rule="evenodd" clip-rule="evenodd" d="M34.2283 22.2684C34.3313 21.5858 34.9682 21.1159 35.6509 21.219C38.3536 21.6269 44.3925 23.3187 49.3119 28.6772C49.7787 29.1858 49.7449 29.9765 49.2364 30.4434C48.7278 30.9103 47.937 30.8764 47.4702 30.3679C43.0561 25.5597 37.6195 24.0444 35.2777 23.691C34.5951 23.5879 34.1252 22.951 34.2283 22.2684Z" fill="#D87138"/>
<path fill-rule="evenodd" clip-rule="evenodd" d="M31.4124 39.7981C31.5814 39.37 32.0654 39.1599 32.4935 39.3289C34.6041 40.1621 37.8679 42.3184 40.9559 45.1689C44.0489 48.0239 47.0649 51.6659 48.5878 55.5275C48.7566 55.9557 48.5464 56.4396 48.1183 56.6084C47.6901 56.7774 47.2062 56.5671 47.0373 56.1389C45.6435 52.6047 42.8263 49.1635 39.8254 46.3935C36.8196 43.6189 33.7293 41.6086 31.8816 40.8792C31.4534 40.7102 31.2434 40.2262 31.4124 39.7981Z" fill="#DD621D"/>
<path fill-rule="evenodd" clip-rule="evenodd" d="M27.7776 43.5409C27.9722 43.1239 28.4681 42.9436 28.8852 43.1382C30.5429 43.9118 33.4382 45.7819 36.248 48.5102C39.0601 51.2409 41.8449 54.8877 43.1918 59.2323C43.328 59.6719 43.0821 60.1388 42.6425 60.2751C42.2029 60.4113 41.7361 60.1654 41.5998 59.7258C40.3633 55.7372 37.7791 52.3202 35.0869 49.7059C32.3921 47.0893 29.6476 45.3332 28.1804 44.6485C27.7633 44.4538 27.583 43.958 27.7776 43.5409Z" fill="#DD621D"/>
<path fill-rule="evenodd" clip-rule="evenodd" d="M25.3906 49.7516C25.5853 49.3345 26.0811 49.1543 26.4982 49.3489C29.7958 50.8877 34.0085 54.0514 37.1151 61.0145C37.3026 61.4348 37.114 61.9275 36.6936 62.115C36.2734 62.3025 35.7806 62.1139 35.5931 61.6935C32.658 55.115 28.7458 52.237 25.7934 50.8592C25.3763 50.6645 25.196 50.1687 25.3906 49.7516Z" fill="#DD621D"/>
<path d="M58.1251 43.8541C58.1251 44.6595 57.5188 45.3124 56.7709 45.3124C56.023 45.3124 55.4167 44.6595 55.4167 43.8541C55.4167 43.0487 56.023 42.3958 56.7709 42.3958C57.5188 42.3958 58.1251 43.0487 58.1251 43.8541Z" fill="#AD460C"/>
<path d="M51.6147 42.8417C51.6147 43.4225 51.1775 43.8934 50.6381 43.8934C50.0988 43.8934 49.6616 43.4225 49.6616 42.8417C49.6616 42.2609 50.0988 41.79 50.6381 41.79C51.1775 41.79 51.6147 42.2609 51.6147 42.8417Z" fill="#AD460C"/>
<path d="M55.9114 40.4459C55.9114 41.0268 55.4742 41.4976 54.9348 41.4976C54.3955 41.4976 53.9583 41.0268 53.9583 40.4459C53.9583 39.8651 54.3955 39.3943 54.9348 39.3943C55.4742 39.3943 55.9114 39.8651 55.9114 40.4459Z" fill="#AD460C"/>
<path d="M59.5312 39.8173C59.5312 40.3981 59.094 40.869 58.5546 40.869C58.0153 40.869 57.5781 40.3981 57.5781 39.8173C57.5781 39.2365 58.0153 38.7656 58.5546 38.7656C59.094 38.7656 59.5312 39.2365 59.5312 39.8173Z" fill="#AD460C"/>
<path d="M62.7762 46.5103C62.7762 47.3157 62.17 47.9687 61.422 47.9687C60.6742 47.9687 60.0679 47.3157 60.0679 46.5103C60.0679 45.7049 60.6742 45.052 61.422 45.052C62.17 45.052 62.7762 45.7049 62.7762 46.5103Z" fill="#AD460C"/>
<path d="M57.8285 51.5623C57.8285 52.3678 57.2222 53.0207 56.4743 53.0207C55.7265 53.0207 55.1201 52.3678 55.1201 51.5623C55.1201 50.7569 55.7265 50.104 56.4743 50.104C57.2222 50.104 57.8285 50.7569 57.8285 51.5623Z" fill="#AD460C"/>
<path d="M61.2501 43.0242C61.2501 43.5043 60.8887 43.8935 60.4427 43.8935C59.9969 43.8935 59.6355 43.5043 59.6355 43.0242C59.6355 42.544 59.9969 42.1548 60.4427 42.1548C60.8887 42.1548 61.2501 42.544 61.2501 43.0242Z" fill="#AD460C"/>
<path d="M60.8753 50.1043C60.8753 50.5844 60.5139 50.9736 60.068 50.9736C59.6222 50.9736 59.2607 50.5844 59.2607 50.1043C59.2607 49.6241 59.6222 49.2349 60.068 49.2349C60.5139 49.2349 60.8753 49.6241 60.8753 50.1043Z" fill="#AD460C"/>
<path d="M58.3853 47.7083C58.3853 48.1884 58.0239 48.5776 57.5781 48.5776C57.1322 48.5776 56.7708 48.1884 56.7708 47.7083C56.7708 47.2281 57.1322 46.8389 57.5781 46.8389C58.0239 46.8389 58.3853 47.2281 58.3853 47.7083Z" fill="#AD460C"/>
<path d="M57.1669 37.4732C57.1669 37.8311 56.8975 38.1213 56.5651 38.1213C56.2328 38.1213 55.9634 37.8311 55.9634 37.4732C55.9634 37.1153 56.2328 36.8252 56.5651 36.8252C56.8975 36.8252 57.1669 37.1153 57.1669 37.4732Z" fill="#AD460C"/>
<path d="M52.2916 39.4561C52.2916 39.814 52.0222 40.1042 51.6899 40.1042C51.3576 40.1042 51.0881 39.814 51.0881 39.4561C51.0881 39.0983 51.3576 38.8081 51.6899 38.8081C52.0222 38.8081 52.2916 39.0983 52.2916 39.4561Z" fill="#AD460C"/>
<path d="M47.8927 39.7979C47.8927 40.1558 47.6233 40.4459 47.291 40.4459C46.9586 40.4459 46.6892 40.1558 46.6892 39.7979C46.6892 39.44 46.9586 39.1499 47.291 39.1499C47.6233 39.1499 47.8927 39.44 47.8927 39.7979Z" fill="#AD460C"/>
<path d="M53.9583 46.4497C53.9583 46.9299 53.5969 47.3192 53.151 47.3192C52.7052 47.3192 52.3438 46.9299 52.3438 46.4497C52.3438 45.9696 52.7052 45.5803 53.151 45.5803C53.5969 45.5803 53.9583 45.9696 53.9583 46.4497Z" fill="#AD460C"/>
</svg>
