<svg width="80" height="81" viewBox="0 0 80 81" fill="none" xmlns="http://www.w3.org/2000/svg">
<path d="M58.3335 50.1665C58.3335 61.2122 49.3792 70.1665 38.3335 70.1665C27.2878 70.1665 18.3335 61.2122 18.3335 50.1665C18.3335 39.1208 27.2878 30.1665 38.3335 30.1665C49.3792 30.1665 58.3335 39.1208 58.3335 50.1665Z" fill="#FFAC2F"/>
<path fill-rule="evenodd" clip-rule="evenodd" d="M60.0001 50.1667C60.0001 62.1328 50.2996 71.8333 38.3334 71.8333C26.3672 71.8333 16.6667 62.1328 16.6667 50.1667C16.6667 38.2005 26.3672 28.5 38.3334 28.5C50.2996 28.5 60.0001 38.2005 60.0001 50.1667ZM38.3334 70.1667C49.3791 70.1667 58.3334 61.2124 58.3334 50.1667C58.3334 39.121 49.3791 30.1667 38.3334 30.1667C27.2877 30.1667 18.3334 39.121 18.3334 50.1667C18.3334 61.2124 27.2877 70.1667 38.3334 70.1667Z" fill="#884A28"/>
<path fill-rule="evenodd" clip-rule="evenodd" d="M38.3335 70.1665C49.3792 70.1665 58.3335 61.2122 58.3335 50.1665C58.3335 39.1208 49.3792 30.1665 38.3335 30.1665C37.5393 30.1665 36.7558 30.2128 35.9858 30.3028C43.5265 31.3094 49.3431 37.767 49.3431 45.5832C49.3431 54.0976 42.4409 60.9998 33.9265 60.9998C25.9016 60.9998 19.3088 54.8684 18.5773 47.0348C18.4168 48.0551 18.3335 49.1011 18.3335 50.1665C18.3335 61.2122 27.2878 70.1665 38.3335 70.1665Z" fill="#FF862F"/>
<path d="M51.0119 45.0476C51.0119 45.9352 50.2923 46.6547 49.4047 46.6547C48.5171 46.6547 47.7976 45.9352 47.7976 45.0476C47.7976 44.16 48.5171 43.4404 49.4047 43.4404C50.2923 43.4404 51.0119 44.16 51.0119 45.0476Z" fill="#DD7429"/>
<path d="M55.8334 48.2619C55.8334 49.1495 55.1139 49.8691 54.2263 49.8691C53.3387 49.8691 52.6191 49.1495 52.6191 48.2619C52.6191 47.3743 53.3387 46.6548 54.2263 46.6548C55.1139 46.6548 55.8334 47.3743 55.8334 48.2619Z" fill="#DD7429"/>
<path d="M55.0298 43.0386C55.0298 43.7043 54.4902 44.244 53.8245 44.244C53.1588 44.244 52.6191 43.7043 52.6191 43.0386C52.6191 42.3729 53.1588 41.8333 53.8245 41.8333C54.4902 41.8333 55.0298 42.3729 55.0298 43.0386Z" fill="#DD7429"/>
<path d="M56.0098 55.1665C56.0098 56.5472 54.8905 57.6665 53.5098 57.6665C52.1291 57.6665 51.0098 56.5472 51.0098 55.1665C51.0098 53.7858 52.1291 52.6665 53.5098 52.6665C54.8905 52.6665 56.0098 53.7858 56.0098 55.1665Z" fill="#DD7429"/>
<path d="M51.0119 50.6726C51.0119 51.5602 50.2923 52.2797 49.4047 52.2797C48.5171 52.2797 47.7976 51.5602 47.7976 50.6726C47.7976 49.785 48.5171 49.0654 49.4047 49.0654C50.2923 49.0654 51.0119 49.785 51.0119 50.6726Z" fill="#DD7429"/>
<path d="M52.6191 60.375C52.6191 61.2626 51.8995 61.9821 51.0119 61.9821C50.1243 61.9821 49.4048 61.2626 49.4048 60.375C49.4048 59.4874 50.1243 58.7678 51.0119 58.7678C51.8995 58.7678 52.6191 59.4874 52.6191 60.375Z" fill="#DD7429"/>
<path d="M48.3906 63.4404C48.3906 64.328 47.671 65.0475 46.7834 65.0475C45.8958 65.0475 45.1763 64.328 45.1763 63.4404C45.1763 62.5528 45.8958 61.8333 46.7834 61.8333C47.671 61.8333 48.3906 62.5528 48.3906 63.4404Z" fill="#DD7429"/>
<path d="M48.631 57.9643C48.631 58.8519 47.9115 59.5715 47.0239 59.5715C46.1363 59.5715 45.4167 58.8519 45.4167 57.9643C45.4167 57.0767 46.1363 56.3572 47.0239 56.3572C47.9115 56.3572 48.631 57.0767 48.631 57.9643Z" fill="#DD7429"/>
<path d="M42.7381 65.628C42.7381 66.2937 42.1985 66.8333 41.5328 66.8333C40.867 66.8333 40.3274 66.2937 40.3274 65.628C40.3274 64.9623 40.867 64.4226 41.5328 64.4226C42.1985 64.4226 42.7381 64.9623 42.7381 65.628Z" fill="#DD7429"/>
<path d="M54.0358 29.8476C54.0358 29.8476 50.2266 23.3407 46.3545 23.1713C42.4825 23.0019 39.1902 26.37 39.1902 26.37C39.1902 26.37 42.1758 30.0128 46.0478 30.1822C49.9199 30.3516 54.0358 29.8476 54.0358 29.8476Z" fill="#64AC1D"/>
<path fill-rule="evenodd" clip-rule="evenodd" d="M55.4741 29.0056L54.0357 29.8476L54.2383 31.502C54.7952 31.4338 55.2805 31.0899 55.5294 30.587C55.7783 30.0842 55.7575 29.4898 55.4741 29.0056ZM39.1901 26.3701C37.9983 25.2051 37.9986 25.2047 37.999 25.2043L38.0017 25.2016L38.0063 25.1969L38.0193 25.1838C38.0296 25.1735 38.0431 25.16 38.0598 25.1436C38.0932 25.1108 38.1392 25.0662 38.1974 25.0115C38.3135 24.9023 38.4785 24.7522 38.6869 24.5754C39.1021 24.2233 39.6988 23.7574 40.4339 23.2958C41.8713 22.393 44.0067 21.4003 46.4273 21.5063C47.8377 21.568 49.1098 22.1936 50.1467 22.9225C51.1973 23.6611 52.1356 24.5968 52.9035 25.4779C53.6771 26.3655 54.3146 27.2402 54.7572 27.8896C54.9795 28.2157 55.1551 28.4886 55.2767 28.6826C55.3376 28.7797 55.385 28.8572 55.4182 28.9121C55.4348 28.9395 55.4478 28.9613 55.4571 28.977L55.4684 28.996L55.4719 29.002L55.4732 29.0041L55.4741 29.0056C55.4743 29.006 55.4741 29.0056 54.0357 29.8476C54.2383 31.502 54.2385 31.5019 54.2383 31.502L54.2223 31.5039L54.1829 31.5086C54.149 31.5125 54.0999 31.5182 54.0368 31.5253C53.9106 31.5394 53.7281 31.5592 53.4978 31.5822C53.0376 31.6282 52.385 31.6874 51.6089 31.7412C50.064 31.8482 47.9982 31.9359 45.9749 31.8474C43.5543 31.7415 41.5137 30.5661 40.1606 29.5413C39.4687 29.0172 38.9149 28.501 38.5321 28.1139C38.3399 27.9196 38.1887 27.7557 38.0825 27.6367C38.0294 27.5772 37.9874 27.5287 37.957 27.4931C37.9418 27.4753 37.9295 27.4607 37.9202 27.4496L37.9084 27.4354L37.9042 27.4303L37.9017 27.4274C37.9014 27.4269 37.9011 27.4265 39.1901 26.3701ZM39.1901 26.3701L37.9983 25.2051C37.4044 25.8126 37.3626 26.7695 37.9011 27.4265L39.1901 26.3701ZM52.9972 28.282C51.6025 26.3452 48.993 23.2868 46.3544 23.1713C42.4824 23.0019 39.1901 26.3701 39.1901 26.3701C39.1901 26.3701 42.1757 30.0129 46.0477 30.1823C48.2922 30.2805 50.6186 30.1524 52.1778 30.0274C53.3085 29.9367 54.0357 29.8476 54.0357 29.8476C54.0357 29.8476 53.6492 29.1874 52.9972 28.282Z" fill="#156319"/>
<path d="M58.8059 14.5897C58.8059 14.5897 54.2282 22.6549 49.3426 25.2303C44.457 27.8057 38.1649 25.4704 38.1649 25.4704C38.1649 25.4704 39.7938 18.9596 44.6794 16.3842C49.565 13.8088 58.8059 14.5897 58.8059 14.5897Z" fill="#87D623"/>
<path fill-rule="evenodd" clip-rule="evenodd" d="M60.2555 15.4125L58.806 14.5898L58.9463 12.929C59.5125 12.9769 60.0154 13.3099 60.2803 13.8126C60.5453 14.3153 60.5359 14.9183 60.2555 15.4125ZM56.9202 14.4967C58.077 14.5282 58.806 14.5898 58.806 14.5898C58.806 14.5898 58.4448 15.2261 57.8172 16.1983C56.2102 18.6874 52.856 23.3784 49.3427 25.2305C44.4571 27.8059 38.1649 25.4706 38.1649 25.4706C38.1649 25.4706 39.7939 18.9597 44.6795 16.3843C48.1929 14.5323 53.9585 14.4159 56.9202 14.4967ZM38.1649 25.4706C36.5481 25.0661 36.5482 25.0656 36.5484 25.065L36.5494 25.061L36.5513 25.0535L36.557 25.0315C36.5616 25.0137 36.5679 24.9897 36.576 24.96C36.5922 24.9004 36.6154 24.8174 36.6461 24.7136C36.7074 24.5061 36.7988 24.2144 36.9237 23.8596C37.1728 23.152 37.5592 22.182 38.1127 21.1218C39.2019 19.0357 41.0304 16.4238 43.9023 14.9099C46.6958 13.4374 50.5507 12.9842 53.5026 12.8562C55.0169 12.7905 56.3696 12.8083 57.344 12.8424C57.832 12.8594 58.2273 12.8807 58.5029 12.8978C58.6408 12.9064 58.7489 12.914 58.8239 12.9195C58.8614 12.9223 58.8906 12.9246 58.9111 12.9262L58.9354 12.9281L58.9425 12.9287L58.9463 12.929C58.9467 12.9291 58.9463 12.929 58.806 14.5898C60.2555 15.4125 60.2556 15.4122 60.2555 15.4125L60.2536 15.4158L60.25 15.422L60.2379 15.4431C60.2277 15.461 60.213 15.4864 60.1941 15.5189C60.1563 15.5839 60.1015 15.6774 60.0306 15.796C59.889 16.0331 59.6832 16.3711 59.4215 16.7834C58.899 17.6066 58.1493 18.7327 57.2394 19.9449C55.4657 22.3079 52.9134 25.2322 50.1199 26.7048C47.248 28.2187 44.0599 28.2513 41.7233 27.9711C40.5358 27.8287 39.5172 27.5993 38.7927 27.405C38.4293 27.3076 38.1371 27.2181 37.9312 27.1514C37.8282 27.1181 37.7466 27.0903 37.6883 27.07C37.6592 27.0599 37.6359 27.0516 37.6186 27.0453L37.5972 27.0376L37.5899 27.0349L37.586 27.0335C37.5855 27.0333 37.585 27.0331 38.1649 25.4706ZM36.5481 25.0661L38.1649 25.4706L37.585 27.0331C36.7886 26.7375 36.3419 25.8902 36.5481 25.0661Z" fill="#156319"/>
<path d="M48.9199 24.4872C53.0737 22.2976 57.0925 15.6809 57.0925 15.6809C47.6471 18.0878 41.4573 22.8512 39.5432 24.932C39.5432 24.932 44.766 26.6769 48.9199 24.4872Z" fill="#79C01E"/>
<path d="M30.7885 21.1267C32.5002 21.8333 36.6668 28.5 37.8257 31.8864C37.9224 32.1689 38.6985 31.8735 38.6176 31.6267C38.1458 28.5012 36.2502 21 34.1668 18.5C31.7242 18.6451 30.7943 20.4414 30.7885 21.1267Z" fill="#8C5936"/>
<path fill-rule="evenodd" clip-rule="evenodd" d="M30.1373 22.661C29.5174 22.3979 29.1161 21.7871 29.1218 21.1126C29.1293 20.2261 29.6222 19.2155 30.3699 18.4479C31.1902 17.6057 32.4205 16.9341 34.0679 16.8363C34.5963 16.8049 35.1082 17.0264 35.4471 17.433C36.1208 18.2415 36.7051 19.3518 37.2041 20.5038C37.714 21.681 38.1813 23.0123 38.5894 24.3387C39.39 26.9408 39.9956 29.6331 40.2531 31.2971C40.4568 32.2251 39.8563 32.8658 39.6713 33.0364C39.398 33.2884 39.0893 33.4395 38.8444 33.5262C38.6042 33.6113 38.2469 33.6977 37.8421 33.6588C37.4535 33.6215 36.5784 33.3894 36.2487 32.4261C35.7321 30.9163 34.4815 28.5325 33.1124 26.403C32.4354 25.35 31.759 24.4056 31.1681 23.6984C30.872 23.3441 30.6163 23.072 30.4088 22.8819C30.2236 22.7122 30.1347 22.6619 30.1355 22.6604C30.1356 22.6603 30.1362 22.6605 30.1373 22.661ZM38.6175 31.6267C38.6169 31.6232 38.6164 31.6196 38.6158 31.616C38.5617 31.259 38.4892 30.8454 38.4001 30.389C38.2555 29.6492 38.0674 28.797 37.8433 27.8915C36.993 24.4555 35.6259 20.251 34.1667 18.5C32.9265 18.5737 32.0763 19.073 31.539 19.6365C31.4399 19.7404 31.3514 19.8466 31.2731 19.9526C30.9399 20.4039 30.7907 20.8536 30.7884 21.1267C32.0231 21.6364 34.5352 25.2474 36.2744 28.4914C36.6804 29.2487 37.0444 29.9861 37.34 30.6593C37.5108 31.0482 37.6589 31.4157 37.7791 31.7533C37.7951 31.7982 37.8106 31.8426 37.8256 31.8865C37.9223 32.169 38.6984 31.8735 38.6175 31.6267ZM36.9634 31.836C36.9757 31.9346 36.9984 32.0381 37.0338 32.1462C37.0048 32.0579 36.9833 31.9674 36.9695 31.8755C36.9675 31.8624 36.9655 31.8492 36.9634 31.836Z" fill="#583A24"/>
<path d="M34.7216 18.7896C35.1677 19.4097 34.653 20.5426 33.5722 21.32C32.4914 22.0973 31.2536 22.2249 30.8076 21.6047C30.3616 20.9846 30.8762 19.8517 31.957 19.0743C33.0379 18.2969 34.2756 18.1694 34.7216 18.7896Z" fill="#C27A49"/>
<path d="M35.379 37.3859C36.7692 39.7719 34.9949 43.3965 31.416 45.4819C27.8371 47.5672 23.8088 47.3235 22.4186 44.9376C21.0284 42.5516 22.8027 38.9269 26.3816 36.8416C29.9605 34.7563 33.9888 35 35.379 37.3859Z" fill="#FFC671"/>
<path fill-rule="evenodd" clip-rule="evenodd" d="M28.4026 39.4622C28.8941 40.2405 28.6616 41.2698 27.8833 41.7613C27.2895 42.1362 26.831 42.59 26.4847 43.1242C25.984 43.8966 24.9519 44.1168 24.1795 43.6161C23.4072 43.1154 23.1869 42.0834 23.6876 41.311C24.3088 40.3528 25.1218 39.5628 26.1035 38.9428C26.8818 38.4514 27.9112 38.6839 28.4026 39.4622Z" fill="white"/>
</svg>
