<svg width="80" height="81" viewBox="0 0 80 81" fill="none" xmlns="http://www.w3.org/2000/svg">
<path d="M33.3333 16.8646C36.0386 20.7891 34.8469 24.0344 33.913 25.1665C38.6279 23.8835 44.0579 24.6319 46.1835 25.1665C43.7874 21.7703 45.5072 17.9024 46.6666 16.3929C43.9613 17.0722 42.3832 19.1917 41.9323 20.1665C41.855 17.9778 40.483 15.9212 39.8067 15.1665C38.7246 17.0533 38.3252 19.1602 38.2608 19.9778C37.0241 18.6948 34.4605 17.3678 33.3333 16.8646Z" fill="#D72424"/>
<path fill-rule="evenodd" clip-rule="evenodd" d="M32.5127 26.0705C32.1189 25.4606 32.1652 24.6658 32.6273 24.1058C33.1048 23.5269 34.2282 21.0996 31.9609 17.8105C31.537 17.1955 31.574 16.3735 32.0515 15.7991C32.529 15.2247 33.3304 15.0382 34.0125 15.3426C34.6301 15.6183 35.6102 16.1049 36.6057 16.695C36.7956 16.8075 36.9909 16.9266 37.1878 17.0514C37.4602 16.1877 37.841 15.2437 38.3608 14.3373C38.627 13.8731 39.0999 13.565 39.632 13.5089C40.1641 13.4529 40.6907 13.6557 41.0478 14.0541C41.4887 14.5461 42.0848 15.3747 42.5874 16.3885C42.6239 16.4622 42.6602 16.5374 42.6961 16.6141C43.6195 15.8382 44.8052 15.1418 46.2606 14.7764C46.9486 14.6036 47.6705 14.8853 48.0598 15.4782C48.4491 16.0712 48.4204 16.8456 47.9883 17.4081C47.5515 17.9767 46.9571 19.0756 46.7336 20.3582C46.5167 21.6026 46.6559 22.9451 47.5453 24.2056C47.9471 24.7752 47.9521 25.5346 47.5577 26.1094C47.1633 26.6842 46.4529 26.9528 45.7769 26.7828C43.8017 26.286 38.6859 25.5949 34.3505 26.7746C33.6499 26.9653 32.9066 26.6804 32.5127 26.0705ZM43.318 18.2987C42.6064 18.9952 42.1444 19.7076 41.9322 20.1664C41.9042 19.3735 41.7063 18.598 41.4331 17.8954C41.2689 17.4732 41.0776 17.0773 40.8795 16.7198C40.4975 16.0301 40.0907 15.4834 39.8066 15.1664C39.4854 15.7264 39.2244 16.3058 39.0144 16.8652C38.8577 17.2825 38.7295 17.6888 38.6258 18.0674C38.4005 18.8909 38.2917 19.5839 38.2607 19.9778C37.8645 19.5667 37.3321 19.1511 36.7543 18.7596C36.5009 18.5878 36.2387 18.4207 35.9755 18.2605C34.9659 17.6464 33.9408 17.1358 33.3332 16.8645C33.9414 17.7469 34.3527 18.595 34.6142 19.3924C35.1058 20.8918 35.068 22.2121 34.8145 23.2451C34.6031 24.1061 34.242 24.7675 33.9129 25.1664C34.6243 24.9728 35.3521 24.8255 36.0823 24.7167C38.983 24.2845 41.9227 24.4604 44.0357 24.7609C44.9159 24.8861 45.6527 25.033 46.1834 25.1664C45.744 24.5437 45.4431 23.905 45.2516 23.268C44.7644 21.6464 44.9871 20.035 45.4441 18.7219C45.7867 17.7377 46.2609 16.9209 46.6665 16.3929C45.6366 16.6514 44.7701 17.1188 44.0669 17.6522C43.7924 17.8605 43.5427 18.0788 43.318 18.2987Z" fill="#732533"/>
<path fill-rule="evenodd" clip-rule="evenodd" d="M33.913 25.1665C34.8469 24.0344 36.0386 20.7891 33.3333 16.8646C33.8965 17.116 34.8182 17.5731 35.7539 18.1276C37.2507 21.0858 36.6152 23.526 35.8731 24.749C35.2132 24.8541 34.5564 24.9914 33.913 25.1665ZM40.6028 24.4701C42.9936 24.5383 45.0546 24.8826 46.1835 25.1665C46.0967 25.0435 46.0153 24.9198 45.9391 24.7957C44.4886 24.5768 42.6075 24.4111 40.6028 24.4701ZM45.9889 17.4667C46.2141 17.0389 46.4501 16.6748 46.6666 16.3929C45.2015 16.7608 44.0669 17.5511 43.263 18.3532C43.4495 18.9288 43.5769 19.5423 43.599 20.1665C43.8984 19.5191 44.6951 18.3667 45.9889 17.4667ZM40.7956 16.5712C40.4388 15.9516 40.07 15.4604 39.8067 15.1665C39.0868 16.4217 38.669 17.7744 38.4511 18.78C39.0172 19.1656 39.5381 19.5739 39.9275 19.9778C39.9761 19.3606 40.2156 18.0086 40.7956 16.5712Z" fill="#FE3434"/>
<path d="M60 44.333C60 55.3787 51.0457 64.333 40 64.333C28.9543 64.333 20 55.3787 20 44.333C20 33.2873 28.9543 24.333 40 24.333C51.0457 24.333 60 33.2873 60 44.333Z" fill="#FE3434"/>
<path fill-rule="evenodd" clip-rule="evenodd" d="M61.6666 44.3332C61.6666 56.2993 51.9661 65.9998 39.9999 65.9998C28.0337 65.9998 18.3333 56.2993 18.3333 44.3332C18.3333 32.367 28.0337 22.6665 39.9999 22.6665C51.9661 22.6665 61.6666 32.367 61.6666 44.3332ZM39.9999 64.3332C51.0456 64.3332 59.9999 55.3789 59.9999 44.3332C59.9999 33.2875 51.0456 24.3332 39.9999 24.3332C28.9542 24.3332 19.9999 33.2875 19.9999 44.3332C19.9999 55.3789 28.9542 64.3332 39.9999 64.3332Z" fill="#732533"/>
<path fill-rule="evenodd" clip-rule="evenodd" d="M40 64.3333C51.0457 64.3333 60 55.379 60 44.3333C60 33.2876 51.0457 24.3333 40 24.3333C35.2617 24.3333 30.9082 25.981 27.4813 28.7348C29.9707 27.0103 32.9923 25.9999 36.25 25.9999C44.7644 25.9999 51.6667 32.9022 51.6667 41.4166C51.6667 49.931 44.7644 56.8332 36.25 56.8332C27.7356 56.8332 20.8333 49.931 20.8333 41.4166C20.8333 39.5181 21.1765 37.6997 21.8042 36.0202C20.6457 38.5518 20 41.3671 20 44.3333C20 55.379 28.9543 64.3333 40 64.3333Z" fill="#D72424"/>
<path d="M54.0815 41.0166C54.0815 41.9023 53.3635 42.6203 52.4778 42.6203C51.592 42.6203 50.874 41.9023 50.874 41.0166C50.874 40.1309 51.592 39.4128 52.4778 39.4128C53.3635 39.4128 54.0815 40.1309 54.0815 41.0166Z" fill="#B42222"/>
<path d="M57.9167 43.248C57.9167 44.1338 57.1987 44.8518 56.313 44.8518C55.4272 44.8518 54.7092 44.1338 54.7092 43.248C54.7092 42.3623 55.4272 41.6443 56.313 41.6443C57.1987 41.6443 57.9167 42.3623 57.9167 43.248Z" fill="#B42222"/>
<path d="M57.1148 38.0358C57.1148 38.7001 56.5763 39.2386 55.912 39.2386C55.2477 39.2386 54.7092 38.7001 54.7092 38.0358C54.7092 37.3715 55.2477 36.833 55.912 36.833C56.5763 36.833 57.1148 37.3715 57.1148 38.0358Z" fill="#B42222"/>
<path d="M56.9404 48.8611C56.9404 49.7468 56.2224 50.4648 55.3367 50.4648C54.4509 50.4648 53.7329 49.7468 53.7329 48.8611C53.7329 47.9753 54.4509 47.2573 55.3367 47.2573C56.2224 47.2573 56.9404 47.9753 56.9404 48.8611Z" fill="#B42222"/>
<path d="M53.1054 46.6296C53.1054 47.5153 52.3874 48.2334 51.5017 48.2334C50.616 48.2334 49.8979 47.5153 49.8979 46.6296C49.8979 45.7439 50.616 45.0259 51.5017 45.0259C52.3874 45.0259 53.1054 45.7439 53.1054 46.6296Z" fill="#B42222"/>
<path d="M54.9999 53.9163C54.9999 55.0669 54.0672 55.9997 52.9166 55.9997C51.766 55.9997 50.8333 55.0669 50.8333 53.9163C50.8333 52.7657 51.766 51.833 52.9166 51.833C54.0672 51.833 54.9999 52.7657 54.9999 53.9163Z" fill="#B42222"/>
<path d="M49.1665 51.4163C49.1665 52.1066 48.6069 52.6663 47.9165 52.6663C47.2261 52.6663 46.6665 52.1066 46.6665 51.4163C46.6665 50.7259 47.2261 50.1663 47.9165 50.1663C48.6069 50.1663 49.1665 50.7259 49.1665 51.4163Z" fill="#B42222"/>
<path d="M44.738 61.0948C44.738 61.634 44.301 62.071 43.7618 62.071C43.2227 62.071 42.7856 61.634 42.7856 61.0948C42.7856 60.5557 43.2227 60.1187 43.7618 60.1187C44.301 60.1187 44.738 60.5557 44.738 61.0948Z" fill="#B42222"/>
<path d="M50.8333 58.4997C50.8333 59.4202 50.0871 60.1663 49.1667 60.1663C48.2462 60.1663 47.5 59.4202 47.5 58.4997C47.5 57.5792 48.2462 56.833 49.1667 56.833C50.0871 56.833 50.8333 57.5792 50.8333 58.4997Z" fill="#B42222"/>
<path d="M47.4999 55.1663C47.4999 55.6266 47.1268 55.9997 46.6666 55.9997C46.2063 55.9997 45.8333 55.6266 45.8333 55.1663C45.8333 54.7061 46.2063 54.333 46.6666 54.333C47.1268 54.333 47.4999 54.7061 47.4999 55.1663Z" fill="#B42222"/>
<path d="M37.0455 31.5524C38.4357 33.9384 36.6614 37.563 33.0825 39.6484C29.5036 41.7337 25.4753 41.49 24.0851 39.1041C22.6949 36.7181 24.4692 33.0934 28.0481 31.0081C31.627 28.9228 35.6553 29.1665 37.0455 31.5524Z" fill="#FF7878"/>
<path fill-rule="evenodd" clip-rule="evenodd" d="M30.0691 33.6287C30.5606 34.407 30.3281 35.4363 29.5498 35.9278C28.956 36.3027 28.4975 36.7565 28.1512 37.2907C27.6505 38.0631 26.6184 38.2833 25.846 37.7826C25.0737 37.2819 24.8534 36.2499 25.3541 35.4775C25.9753 34.5193 26.7883 33.7293 27.77 33.1093C28.5483 32.6179 29.5777 32.8504 30.0691 33.6287Z" fill="white"/>
</svg>
