<svg width="80" height="82" viewBox="0 0 80 82" fill="none" xmlns="http://www.w3.org/2000/svg">
<path d="M17.5 30.6592C17.5 30.6592 22.0238 35.6185 40.1191 35.6185C58.2143 35.6185 62.7381 30.6592 62.7381 30.6592L56.0275 65.8076C55.9776 66.069 55.8974 66.3239 55.7424 66.5403C54.9413 67.6588 51.5229 71.1605 40.1191 71.1605C28.7152 71.1605 25.2967 67.6588 24.4957 66.5403C24.3407 66.3239 24.2605 66.069 24.2106 65.8076L17.5 30.6592Z" fill="#F47A53"/>
<path fill-rule="evenodd" clip-rule="evenodd" d="M16.754 29.1688C17.4119 28.8395 18.2066 28.9809 18.7105 29.5135C18.7115 29.5145 18.7126 29.5156 18.714 29.517C18.7265 29.529 18.7581 29.5589 18.8111 29.604C18.917 29.6943 19.1091 29.8466 19.4055 30.0416C19.9979 30.4312 21.0123 30.9947 22.5959 31.5735C25.7658 32.7318 31.2194 33.9519 40.1191 33.9519C49.0188 33.9519 54.4724 32.7318 57.6423 31.5735C59.2259 30.9947 60.2404 30.4312 60.8327 30.0416C61.1291 29.8466 61.3212 29.6943 61.427 29.604C61.48 29.5589 61.5117 29.529 61.5242 29.517C61.5255 29.5156 61.5267 29.5145 61.5276 29.5135C62.0316 28.9809 62.8263 28.8395 63.4841 29.1688C64.1512 29.5026 64.5151 30.239 64.3753 30.9717L57.6647 66.1202C57.5936 66.4923 57.4524 67.015 57.0974 67.5107C55.8868 69.2013 51.8696 72.8272 40.1191 72.8272C28.3686 72.8272 24.3515 69.2013 23.1407 67.5107C22.7857 67.015 22.6445 66.4923 22.5735 66.1202L15.8629 30.9717C15.723 30.239 16.087 29.5026 16.754 29.1688ZM60.7844 32.005C62.2079 31.2405 62.7381 30.6592 62.7381 30.6592L56.0275 65.8076C55.9777 66.069 55.8974 66.3239 55.7424 66.5403C54.9414 67.6589 51.5229 71.1605 40.1191 71.1605C28.7153 71.1605 25.2968 67.6589 24.4957 66.5403C24.3408 66.3239 24.2605 66.069 24.2106 65.8076L17.5 30.6592C17.5 30.6592 18.0303 31.2405 19.4538 32.005C22.1882 33.4736 28.2189 35.6185 40.1191 35.6185C52.0194 35.6185 58.0499 33.4736 60.7844 32.005Z" fill="#C1461E"/>
<path d="M36.6935 71.0452C37.7465 71.1196 38.8861 71.1605 40.1191 71.1605C41.352 71.1605 42.4916 71.1196 43.5446 71.0452L45.5521 35.4553C43.8939 35.5598 42.0867 35.6185 40.1191 35.6185C38.1515 35.6185 36.3444 35.5598 34.686 35.4553L36.6935 71.0452Z" fill="#FFE4C4"/>
<path d="M56.0276 65.8076L62.7382 30.6592C62.7382 30.6592 60.2536 33.3829 51.602 34.7933L49.3169 70.1451C53.5765 69.0211 55.2186 67.2718 55.7424 66.5405C55.8974 66.3241 55.9777 66.0691 56.0276 65.8076Z" fill="#E25F35"/>
<path d="M24.2057 65.814L17.4951 30.6655C17.4951 30.6655 18.8548 32.1561 23.0649 33.5029L27.9529 69.1109C25.8351 68.1385 24.8705 67.0766 24.4912 66.5473C24.3362 66.3309 24.2556 66.0754 24.2057 65.814Z" fill="#FFAA8F"/>
<path d="M56.0275 65.8076L62.7381 30.6592C62.7381 30.6592 61.3784 32.1498 57.1684 33.4965L52.2803 69.1046C54.398 68.1322 55.3627 67.0703 55.7419 66.5409C55.8969 66.3246 55.9776 66.0691 56.0275 65.8076Z" fill="#EE8E59"/>
<path fill-rule="evenodd" clip-rule="evenodd" d="M26.6887 39.218C27.1504 39.1965 27.5732 39.5473 27.6329 40.0016L29.2214 52.085C29.2812 52.5392 28.9552 52.925 28.4934 52.9466C28.0317 52.9681 27.6089 52.6172 27.5492 52.163L25.9607 40.0796C25.901 39.6253 26.2269 39.2396 26.6887 39.218Z" fill="#FFE6DF"/>
<path d="M50.7235 67.2924C50.7235 68.1293 49.9839 68.8078 49.0717 68.8078C48.1594 68.8078 47.4199 68.1293 47.4199 67.2924C47.4199 66.4556 48.1594 65.7771 49.0717 65.7771C49.9839 65.7771 50.7235 66.4556 50.7235 67.2924Z" fill="#C04923"/>
<path d="M54.7916 65.3351C54.7916 65.9627 54.237 66.4716 53.5528 66.4716C52.8686 66.4716 52.314 65.9627 52.314 65.3351C52.314 64.7073 52.8686 64.1985 53.5528 64.1985C54.237 64.1985 54.7916 64.7073 54.7916 65.3351Z" fill="#C04923"/>
<path d="M51.4342 63.1253C51.4342 63.753 50.8795 64.2618 50.1954 64.2618C49.5112 64.2618 48.9565 63.753 48.9565 63.1253C48.9565 62.4976 49.5112 61.9888 50.1954 61.9888C50.8795 61.9888 51.4342 62.4976 51.4342 63.1253Z" fill="#C04923"/>
<path d="M56.3895 57.8213C56.3895 58.449 55.8349 58.9578 55.1507 58.9578C54.4665 58.9578 53.9119 58.449 53.9119 57.8213C53.9119 57.1936 54.4665 56.6848 55.1507 56.6848C55.8349 56.6848 56.3895 57.1936 56.3895 57.8213Z" fill="#C04923"/>
<path d="M53.0859 58.9581C53.0859 59.3765 52.7162 59.7158 52.26 59.7158C51.8039 59.7158 51.4341 59.3765 51.4341 58.9581C51.4341 58.5396 51.8039 58.2004 52.26 58.2004C52.7162 58.2004 53.0859 58.5396 53.0859 58.9581Z" fill="#C04923"/>
<path d="M56.3894 54.412C56.3894 54.8304 56.0195 55.1696 55.5635 55.1696C55.1073 55.1696 54.7375 54.8304 54.7375 54.412C54.7375 53.9935 55.1073 53.6543 55.5635 53.6543C56.0195 53.6543 56.3894 53.9935 56.3894 54.412Z" fill="#C04923"/>
<path d="M55.4948 61.5467C55.4948 62.1744 54.9401 62.6832 54.2559 62.6832C53.5718 62.6832 53.0171 62.1744 53.0171 61.5467C53.0171 60.919 53.5718 60.4102 54.2559 60.4102C54.9401 60.4102 55.4948 60.919 55.4948 61.5467Z" fill="#C04923"/>
<path d="M53.9117 54.7908C53.9117 55.4185 53.3572 55.9273 52.6729 55.9273C51.9887 55.9273 51.4341 55.4185 51.4341 54.7908C51.4341 54.1631 51.9887 53.6543 52.6729 53.6543C53.3572 53.6543 53.9117 54.1631 53.9117 54.7908Z" fill="#C04923"/>
<path d="M55.5636 51.3812C55.5636 51.7997 55.1939 52.1389 54.7377 52.1389C54.2816 52.1389 53.9119 51.7997 53.9119 51.3812C53.9119 50.9628 54.2816 50.6235 54.7377 50.6235C55.1939 50.6235 55.5636 50.9628 55.5636 51.3812Z" fill="#C04923"/>
<path d="M45.6994 67.9869C45.6994 68.4054 45.3296 68.7446 44.8734 68.7446C44.4174 68.7446 44.0476 68.4054 44.0476 67.9869C44.0476 67.5685 44.4174 67.2292 44.8734 67.2292C45.3296 67.2292 45.6994 67.5685 45.6994 67.9869Z" fill="#C04923"/>
<path d="M62.7381 30.659C62.7381 34.311 52.6112 37.2715 40.1191 37.2715C27.6269 37.2715 17.5 34.311 17.5 30.659C17.5 27.0071 27.6269 24.0466 40.1191 24.0466C52.6112 24.0466 62.7381 27.0071 62.7381 30.659Z" fill="#952C0A"/>
<path fill-rule="evenodd" clip-rule="evenodd" d="M56.5807 36.9344C52.297 38.1867 46.4774 38.9381 40.119 38.9381C33.7606 38.9381 27.9409 38.1867 23.6573 36.9344C21.5264 36.3115 19.6807 35.5375 18.3298 34.6039C17.0299 33.7054 15.8333 32.4 15.8333 30.659C15.8333 28.9181 17.0299 27.6125 18.3298 26.714C19.6807 25.7804 21.5264 25.0065 23.6573 24.3835C27.9409 23.1312 33.7606 22.3799 40.119 22.3799C46.4774 22.3799 52.297 23.1312 56.5807 24.3835C58.7116 25.0065 60.5573 25.7804 61.9082 26.714C63.2081 27.6125 64.4047 28.9181 64.4047 30.659C64.4047 32.4 63.2081 33.7054 61.9082 34.6039C60.5573 35.5375 58.7116 36.3115 56.5807 36.9344ZM40.119 37.2715C52.6112 37.2715 62.738 34.311 62.738 30.659C62.738 27.0071 52.6112 24.0465 40.119 24.0465C27.6268 24.0465 17.4999 27.0071 17.4999 30.659C17.4999 34.311 27.6268 37.2715 40.119 37.2715Z" fill="#C1461E"/>
<path d="M62.7381 29.8256C62.7381 33.4776 52.6112 36.4381 40.1191 36.4381C27.6269 36.4381 17.5 33.4776 17.5 29.8256C17.5 26.1736 27.6269 23.2131 40.1191 23.2131C52.6112 23.2131 62.7381 26.1736 62.7381 29.8256Z" fill="#E09C35"/>
<path d="M36.4063 22.6186C36.4063 25.4376 34.1211 27.7227 31.3022 27.7227C28.4832 27.7227 26.198 25.4376 26.198 22.6186C26.198 19.7997 28.4832 17.5144 31.3022 17.5144C34.1211 17.5144 36.4063 19.7997 36.4063 22.6186Z" fill="#FFF8BB"/>
<path d="M24.0698 30.813C24.0698 31.7376 23.3203 32.4871 22.3958 32.4871C21.4712 32.4871 20.7217 31.7376 20.7217 30.813C20.7217 29.8884 21.4712 29.1389 22.3958 29.1389C23.3203 29.1389 24.0698 29.8884 24.0698 30.813Z" fill="#FFF8BB"/>
<path d="M38.4895 33.9641C38.4895 34.8887 37.74 35.6382 36.8154 35.6382C35.8909 35.6382 35.1414 34.8887 35.1414 33.9641C35.1414 33.0395 35.8909 32.29 36.8154 32.29C37.74 32.29 38.4895 33.0395 38.4895 33.9641Z" fill="#FFF8BB"/>
<path d="M57.5764 31.8308C57.5764 32.7554 56.8269 33.5049 55.9024 33.5049C54.9778 33.5049 54.2283 32.7554 54.2283 31.8308C54.2283 30.9062 54.9778 30.1567 55.9024 30.1567C56.8269 30.1567 57.5764 30.9062 57.5764 31.8308Z" fill="#FFF8BB"/>
<path d="M44.3943 33.9641C44.3943 34.8887 43.6448 35.6382 42.7202 35.6382C41.7956 35.6382 41.0461 34.8887 41.0461 33.9641C41.0461 33.0395 41.7956 32.29 42.7202 32.29C43.6448 32.29 44.3943 33.0395 44.3943 33.9641Z" fill="#FFF8BB"/>
<path d="M27.3253 25.5549C27.3253 28.3738 25.04 30.659 22.2211 30.659C19.4021 30.659 17.1169 28.3738 17.1169 25.5549C17.1169 22.7359 19.4021 20.4507 22.2211 20.4507C25.04 20.4507 27.3253 22.7359 27.3253 25.5549Z" fill="#FFF8BB"/>
<path d="M50.8036 21.0758C50.8036 23.8948 48.5183 26.18 45.6994 26.18C42.8805 26.18 40.5952 23.8948 40.5952 21.0758C40.5952 18.2568 42.8805 15.9717 45.6994 15.9717C48.5183 15.9717 50.8036 18.2568 50.8036 21.0758Z" fill="#FFF8BB"/>
<path d="M61.6424 26.9091C61.6424 29.728 59.3572 32.0133 56.5382 32.0133C53.7193 32.0133 51.4341 29.728 51.4341 26.9091C51.4341 24.0901 53.7193 21.8049 56.5382 21.8049C59.3572 21.8049 61.6424 24.0901 61.6424 26.9091Z" fill="#FFF8BB"/>
<path d="M44.0477 23.2131C44.0477 26.0321 41.7624 28.3172 38.9435 28.3172C36.1245 28.3172 33.8394 26.0321 33.8394 23.2131C33.8394 20.3941 36.1245 18.1089 38.9435 18.1089C41.7624 18.1089 44.0477 20.3941 44.0477 23.2131Z" fill="#FFF8BB"/>
<path d="M38.9435 18.0028C38.9435 20.1026 37.2413 21.8048 35.1414 21.8048C33.0416 21.8048 31.3394 20.1026 31.3394 18.0028C31.3394 15.9029 33.0416 14.2007 35.1414 14.2007C37.2413 14.2007 38.9435 15.9029 38.9435 18.0028Z" fill="#FFF8BB"/>
<path d="M30.4687 29.5914C30.4687 31.8207 28.6615 33.6279 26.4323 33.6279C24.2029 33.6279 22.3958 31.8207 22.3958 29.5914C22.3958 27.3621 24.2029 25.5549 26.4323 25.5549C28.6615 25.5549 30.4687 27.3621 30.4687 29.5914Z" fill="#FFF8BB"/>
<path d="M37.4826 30.0941C37.4826 32.7086 35.3632 34.8281 32.7487 34.8281C30.1342 34.8281 28.0146 32.7086 28.0146 30.0941C28.0146 27.4796 30.1342 25.3601 32.7487 25.3601C35.3632 25.3601 37.4826 27.4796 37.4826 30.0941Z" fill="#FFF8BB"/>
<path d="M55.9023 29.6119C55.9023 32.2264 53.7828 34.3459 51.1683 34.3459C48.5538 34.3459 46.4343 32.2264 46.4343 29.6119C46.4343 26.9974 48.5538 24.8779 51.1683 24.8779C53.7828 24.8779 55.9023 26.9974 55.9023 29.6119Z" fill="#FFF8BB"/>
<path d="M44.853 30.4073C44.853 33.0218 42.7335 35.1413 40.119 35.1413C37.5045 35.1413 35.385 33.0218 35.385 30.4073C35.385 27.7928 37.5045 25.6733 40.119 25.6733C42.7335 25.6733 44.853 27.7928 44.853 30.4073Z" fill="#FFF8BB"/>
<path d="M51.8725 29.4359C51.8725 32.7408 49.1934 35.4199 45.8885 35.4199C42.5836 35.4199 39.9045 32.7408 39.9045 29.4359C39.9045 26.1311 42.5836 23.4519 45.8885 23.4519C49.1934 23.4519 51.8725 26.1311 51.8725 29.4359Z" fill="#FFF8BB"/>
<path d="M29.204 21.0758C29.204 23.1756 27.5018 24.8778 25.4019 24.8778C23.3021 24.8778 21.5999 23.1756 21.5999 21.0758C21.5999 18.9759 23.3021 17.2737 25.4019 17.2737C27.5018 17.2737 29.204 18.9759 29.204 21.0758Z" fill="#FFF8BB"/>
<path d="M44.121 18.8165C44.121 20.9163 42.4188 22.6186 40.3189 22.6186C38.2191 22.6186 36.5168 20.9163 36.5168 18.8165C36.5168 16.7167 38.2191 15.0144 40.3189 15.0144C42.4188 15.0144 44.121 16.7167 44.121 18.8165Z" fill="#FFF8BB"/>
<path d="M54.9582 21.3165C54.9582 23.4163 53.2559 25.1186 51.1561 25.1186C49.0563 25.1186 47.354 23.4163 47.354 21.3165C47.354 19.2167 49.0563 17.5144 51.1561 17.5144C53.2559 17.5144 54.9582 19.2167 54.9582 21.3165Z" fill="#FFF8BB"/>
<path d="M59.0385 24.0465C59.0385 26.1463 57.3362 27.8486 55.2364 27.8486C53.1366 27.8486 51.4343 26.1463 51.4343 24.0465C51.4343 21.9466 53.1366 20.2444 55.2364 20.2444C57.3362 20.2444 59.0385 21.9466 59.0385 24.0465Z" fill="#FFF8BB"/>
<path d="M61.9439 23.9809C61.9439 25.5855 60.6431 26.8863 59.0385 26.8863C57.434 26.8863 56.1333 25.5855 56.1333 23.9809C56.1333 22.3764 57.434 21.0757 59.0385 21.0757C60.6431 21.0757 61.9439 22.3764 61.9439 23.9809Z" fill="#FFF8BB"/>
<path d="M47.2391 17.1059C47.2391 18.7105 45.9383 20.0113 44.3338 20.0113C42.7292 20.0113 41.4285 18.7105 41.4285 17.1059C41.4285 15.5014 42.7292 14.2007 44.3338 14.2007C45.9383 14.2007 47.2391 15.5014 47.2391 17.1059Z" fill="#FFF8BB"/>
<path d="M31.8945 28.3056C31.8945 29.1452 31.2139 29.8257 30.3744 29.8257C29.5348 29.8257 28.8542 29.1452 28.8542 28.3056C28.8542 27.4661 29.5348 26.7854 30.3744 26.7854C31.2139 26.7854 31.8945 27.4661 31.8945 28.3056Z" fill="#FDD27F"/>
<path d="M44.4687 21.5314C44.4687 22.371 43.7881 23.0516 42.9486 23.0516C42.1091 23.0516 41.4285 22.371 41.4285 21.5314C41.4285 20.6918 42.1091 20.0112 42.9486 20.0112C43.7881 20.0112 44.4687 20.6918 44.4687 21.5314Z" fill="#FDD27F"/>
<path d="M53.9119 29.3688C53.9119 30.2084 53.2313 30.889 52.3917 30.889C51.5522 30.889 50.8716 30.2084 50.8716 29.3688C50.8716 28.5292 51.5522 27.8486 52.3917 27.8486C53.2313 27.8486 53.9119 28.5292 53.9119 29.3688Z" fill="#EEAC2B"/>
<path d="M57.4648 23.0515C57.4648 23.4192 57.1667 23.7172 56.799 23.7172C56.4314 23.7172 56.1333 23.4192 56.1333 23.0515C56.1333 22.6838 56.4314 22.3857 56.799 22.3857C57.1667 22.3857 57.4648 22.6838 57.4648 23.0515Z" fill="#EEAC2B"/>
<path d="M59.4961 25.7844C59.4961 26.1522 59.198 26.4502 58.8303 26.4502C58.4626 26.4502 58.1646 26.1522 58.1646 25.7844C58.1646 25.4167 58.4626 25.1187 58.8303 25.1187C59.198 25.1187 59.4961 25.4167 59.4961 25.7844Z" fill="#FDD27F"/>
<path d="M60.3701 30.6589C60.3701 31.0266 60.072 31.3247 59.7043 31.3247C59.3367 31.3247 59.0386 31.0266 59.0386 30.6589C59.0386 30.2912 59.3367 29.9932 59.7043 29.9932C60.072 29.9932 60.3701 30.2912 60.3701 30.6589Z" fill="#EEAC2B"/>
<path d="M56.5681 31.8308C56.5681 32.1985 56.27 32.4965 55.9023 32.4965C55.5347 32.4965 55.2366 32.1985 55.2366 31.8308C55.2366 31.463 55.5347 31.165 55.9023 31.165C56.27 31.165 56.5681 31.463 56.5681 31.8308Z" fill="#FDD27F"/>
<path d="M57.0629 27.8486C57.0629 28.2163 56.7649 28.5144 56.3972 28.5144C56.0294 28.5144 55.7314 28.2163 55.7314 27.8486C55.7314 27.4809 56.0294 27.1829 56.3972 27.1829C56.7649 27.1829 57.0629 27.4809 57.0629 27.8486Z" fill="#EEAC2B"/>
<path d="M53.7231 24.4529C53.7231 24.8206 53.425 25.1186 53.0574 25.1186C52.6897 25.1186 52.3916 24.8206 52.3916 24.4529C52.3916 24.0852 52.6897 23.7871 53.0574 23.7871C53.425 23.7871 53.7231 24.0852 53.7231 24.4529Z" fill="#FDD27F"/>
<path d="M45.8884 33.4621C45.8884 33.8298 45.5903 34.1279 45.2226 34.1279C44.855 34.1279 44.5569 33.8298 44.5569 33.4621C44.5569 33.0945 44.855 32.7964 45.2226 32.7964C45.5903 32.7964 45.8884 33.0945 45.8884 33.4621Z" fill="#EEAC2B"/>
<path d="M38.9958 17.7966C38.9958 18.0853 38.7616 18.3195 38.4729 18.3195C38.184 18.3195 37.95 18.0853 37.95 17.7966C37.95 17.5078 38.184 17.2737 38.4729 17.2737C38.7616 17.2737 38.9958 17.5078 38.9958 17.7966Z" fill="#FDD27F"/>
<path d="M50.8037 20.0115C50.8037 20.3791 50.5056 20.6772 50.1379 20.6772C49.7703 20.6772 49.4722 20.3791 49.4722 20.0115C49.4722 19.6438 49.7703 19.3457 50.1379 19.3457C50.5056 19.3457 50.8037 19.6438 50.8037 20.0115Z" fill="#FDD27F"/>
<path d="M45.3791 17.5146C45.3791 17.8823 45.081 18.1804 44.7134 18.1804C44.3457 18.1804 44.0476 17.8823 44.0476 17.5146C44.0476 17.147 44.3457 16.8489 44.7134 16.8489C45.081 16.8489 45.3791 17.147 45.3791 17.5146Z" fill="#FDD27F"/>
<path d="M47.905 24.0466C47.905 24.4143 47.6069 24.7124 47.2392 24.7124C46.8716 24.7124 46.5735 24.4143 46.5735 24.0466C46.5735 23.6789 46.8716 23.3809 47.2392 23.3809C47.6069 23.3809 47.905 23.6789 47.905 24.0466Z" fill="#EEAC2B"/>
<path d="M50.8715 26.0259C50.8715 26.3935 50.5735 26.6916 50.2058 26.6916C49.838 26.6916 49.54 26.3935 49.54 26.0259C49.54 25.6582 49.838 25.3601 50.2058 25.3601C50.5735 25.3601 50.8715 25.6582 50.8715 26.0259Z" fill="#EEAC2B"/>
<path d="M45.1345 25.7844C45.1345 26.1522 44.8364 26.4502 44.4687 26.4502C44.1011 26.4502 43.803 26.1522 43.803 25.7844C43.803 25.4167 44.1011 25.1187 44.4687 25.1187C44.8364 25.1187 45.1345 25.4167 45.1345 25.7844Z" fill="#FDD27F"/>
<path d="M47.3541 29.2832C47.3541 29.8166 46.9218 30.249 46.3884 30.249C45.8549 30.249 45.4226 29.8166 45.4226 29.2832C45.4226 28.7498 45.8549 28.3174 46.3884 28.3174C46.9218 28.3174 47.3541 28.7498 47.3541 29.2832Z" fill="#FDD27F"/>
<path d="M50.8714 32.7966C50.8714 33.33 50.4391 33.7624 49.9057 33.7624C49.3723 33.7624 48.9399 33.33 48.9399 32.7966C48.9399 32.2632 49.3723 31.8308 49.9057 31.8308C50.4391 31.8308 50.8714 32.2632 50.8714 32.7966Z" fill="#FDD27F"/>
<path d="M38.4484 32.0413C38.4484 32.5746 38.016 33.007 37.4826 33.007C36.9493 33.007 36.5168 32.5746 36.5168 32.0413C36.5168 31.5079 36.9493 31.0754 37.4826 31.0754C38.016 31.0754 38.4484 31.5079 38.4484 32.0413Z" fill="#FDD27F"/>
<path d="M39.9999 26.6916C39.9999 27.225 39.5675 27.6573 39.0342 27.6573C38.5008 27.6573 38.0684 27.225 38.0684 26.6916C38.0684 26.1582 38.5008 25.7258 39.0342 25.7258C39.5675 25.7258 39.9999 26.1582 39.9999 26.6916Z" fill="#FDD27F"/>
<path d="M26.1411 29.8257C26.1411 30.359 25.7086 30.7914 25.1753 30.7914C24.6419 30.7914 24.2095 30.359 24.2095 29.8257C24.2095 29.2923 24.6419 28.8599 25.1753 28.8599C25.7086 28.8599 26.1411 29.2923 26.1411 29.8257Z" fill="#FDD27F"/>
<path d="M24.2093 23.3808C24.2093 23.9142 23.777 24.3465 23.2436 24.3465C22.7102 24.3465 22.2778 23.9142 22.2778 23.3808C22.2778 22.8474 22.7102 22.415 23.2436 22.415C23.777 22.415 24.2093 22.8474 24.2093 23.3808Z" fill="#FDD27F"/>
<path d="M33.2336 22.0414C33.2336 22.5749 32.8012 23.0073 32.2678 23.0073C31.7344 23.0073 31.302 22.5749 31.302 22.0414C31.302 21.5081 31.7344 21.0757 32.2678 21.0757C32.8012 21.0757 33.2336 21.5081 33.2336 22.0414Z" fill="#FDD27F"/>
<path d="M35.4601 17.2737C35.4601 17.8885 34.9616 18.3869 34.3469 18.3869C33.7321 18.3869 33.2336 17.8885 33.2336 17.2737C33.2336 16.6588 33.7321 16.1604 34.3469 16.1604C34.9616 16.1604 35.4601 16.6588 35.4601 17.2737Z" fill="#FFFFFE"/>
<path d="M43.002 30.3467C43.002 30.8867 42.5641 31.3246 42.0241 31.3246C41.484 31.3246 41.0461 30.8867 41.0461 30.3467C41.0461 29.8066 41.484 29.3687 42.0241 29.3687C42.5641 29.3687 43.002 29.8066 43.002 30.3467Z" fill="#FFFFFE"/>
<path d="M31.8943 32.0131C31.8943 32.5532 31.4565 32.9911 30.9164 32.9911C30.3763 32.9911 29.9385 32.5532 29.9385 32.0131C29.9385 31.473 30.3763 31.0352 30.9164 31.0352C31.4565 31.0352 31.8943 31.473 31.8943 32.0131Z" fill="#FFFFFE"/>
<path d="M36.1194 28.1608C36.1194 28.7009 35.6816 29.1388 35.1415 29.1388C34.6014 29.1388 34.1636 28.7009 34.1636 28.1608C34.1636 27.6207 34.6014 27.1829 35.1415 27.1829C35.6816 27.1829 36.1194 27.6207 36.1194 28.1608Z" fill="#FFFFFE"/>
<path d="M38.4728 21.8048C38.4728 22.345 38.0349 22.7828 37.4948 22.7828C36.9547 22.7828 36.5168 22.345 36.5168 21.8048C36.5168 21.2647 36.9547 20.8269 37.4948 20.8269C38.0349 20.8269 38.4728 21.2647 38.4728 21.8048Z" fill="#FFFFFE"/>
<path d="M28.097 24.6952C28.097 25.2354 27.6592 25.6732 27.119 25.6732C26.5789 25.6732 26.1411 25.2354 26.1411 24.6952C26.1411 24.1551 26.5789 23.7173 27.119 23.7173C27.6592 23.7173 28.097 24.1551 28.097 24.6952Z" fill="#FFFFFE"/>
<path d="M26.1654 19.8491C26.1654 20.3892 25.7276 20.827 25.1875 20.827C24.6473 20.827 24.2095 20.3892 24.2095 19.8491C24.2095 19.3089 24.6473 18.8711 25.1875 18.8711C25.7276 18.8711 26.1654 19.3089 26.1654 19.8491Z" fill="#FFFFFE"/>
<path d="M22.0242 27.2158C22.0242 27.8732 21.4914 28.406 20.834 28.406C20.1767 28.406 19.6438 27.8732 19.6438 27.2158C19.6438 26.5585 20.1767 26.0256 20.834 26.0256C21.4914 26.0256 22.0242 26.5585 22.0242 27.2158Z" fill="#FFFFFE"/>
</svg>
