<svg width="80" height="81" viewBox="0 0 80 81" fill="none" xmlns="http://www.w3.org/2000/svg">
<path d="M59.1827 42.6284C59.3466 49.6433 55.7902 60.1302 46.7146 64.4072C44.4336 65.4822 43.1661 64.4391 40.4151 64.5717C37.9571 64.6902 37.1977 65.5571 34.8567 64.7189C25.1353 61.2383 20.8187 51.043 20.6432 43.5288C20.4137 33.705 28.4494 28.5154 39.7224 34.926C49.9513 28.3838 58.9531 32.8046 59.1827 42.6284Z" fill="#FF542F"/>
<path fill-rule="evenodd" clip-rule="evenodd" d="M39.6748 33.0003C34.0982 30.0681 28.9837 29.6856 25.1138 31.6541C21.0009 33.7462 18.8518 38.2052 18.9771 43.5678C19.1626 51.5077 23.7071 62.4973 34.295 66.2881C35.758 66.8119 36.8201 66.8161 37.8563 66.6498C38.2121 66.5927 38.5026 66.5325 38.7759 66.4759C39.2997 66.3674 39.76 66.272 40.4954 66.2366C41.3695 66.1944 41.9989 66.2846 42.7143 66.3871C42.9757 66.4245 43.2485 66.4636 43.549 66.4985C44.6843 66.6303 45.9116 66.6282 47.4252 65.9149C57.3032 61.2598 61.0221 50.0012 60.849 42.5895C60.7219 37.1519 58.1245 32.925 53.8555 31.1067C49.8613 29.4054 44.807 29.9838 39.6748 33.0003ZM46.7147 64.4073C55.7903 60.1303 59.3466 49.6434 59.1828 42.6284C58.9532 32.8047 49.9514 28.3839 39.7225 34.9261C28.4495 28.5155 20.4138 33.7051 20.6433 43.5289C20.8188 51.043 25.1354 61.2384 34.8568 64.719C36.3767 65.2632 37.2299 65.0887 38.3142 64.8668C38.8999 64.747 39.5531 64.6134 40.4152 64.5718C41.4613 64.5214 42.2929 64.641 43.0472 64.7494C44.2767 64.9262 45.3011 65.0735 46.7147 64.4073Z" fill="#734125"/>
<path fill-rule="evenodd" clip-rule="evenodd" d="M43.008 59.9591C52.0837 55.6821 54.8986 45.1952 54.7347 38.1803C54.6867 36.1259 54.2551 34.3079 53.5089 32.777C56.8923 34.3631 59.0714 37.859 59.1828 42.6283C59.3467 49.6432 55.7904 60.1302 46.7148 64.4072C45.3012 65.0734 44.2768 64.9261 43.0473 64.7493C42.2929 64.6409 41.4613 64.5213 40.4152 64.5717C39.5531 64.6133 38.9 64.7469 38.3143 64.8667C37.23 65.0886 36.3768 65.2631 34.8569 64.7189C31.3012 63.4458 28.4686 61.2745 26.2972 58.6646C27.3277 59.2931 28.4493 59.8347 29.6674 60.2708C31.2352 60.8321 32.426 60.6288 33.7799 60.3976C34.4477 60.2836 35.1552 60.1628 35.9672 60.1236C36.9866 60.0745 37.9041 60.1868 38.7713 60.2929C40.2444 60.4732 41.5723 60.6357 43.008 59.9591Z" fill="#ED4A27"/>
<path d="M53.6515 40.7842C53.5384 41.5952 52.7892 42.1609 51.9782 42.0478C51.1672 41.9347 50.6014 41.1855 50.7146 40.3745C50.8277 39.5635 51.5769 38.9977 52.3879 39.1109C53.1989 39.224 53.7647 39.9732 53.6515 40.7842Z" fill="#C53622"/>
<path d="M57.6645 45.0769C57.5513 45.8879 56.8022 46.4537 55.9911 46.3405C55.1801 46.2274 54.6144 45.4782 54.7275 44.6672C54.8407 43.8562 55.5898 43.2904 56.4008 43.4036C57.2119 43.5167 57.7776 44.2659 57.6645 45.0769Z" fill="#C53622"/>
<path d="M57.5786 39.4609C57.4938 40.0691 56.9319 40.4935 56.3236 40.4086C55.7154 40.3237 55.291 39.7619 55.3759 39.1536C55.4608 38.5453 56.0226 38.121 56.6309 38.2059C57.2392 38.2907 57.6635 38.8526 57.5786 39.4609Z" fill="#C53622"/>
<path d="M56.2062 50.2339C56.0931 51.0449 55.3439 51.6106 54.5329 51.4975C53.7219 51.3844 53.1561 50.6352 53.2693 49.8242C53.3824 49.0132 54.1316 48.4474 54.9426 48.5606C55.7536 48.6737 56.3193 49.4229 56.2062 50.2339Z" fill="#C53622"/>
<path d="M52.1933 45.9412C52.0801 46.7522 51.331 47.3179 50.5199 47.2048C49.7089 47.0916 49.1432 46.3425 49.2563 45.5315C49.3695 44.7204 50.1186 44.1547 50.9297 44.2678C51.7407 44.381 52.3064 45.1302 52.1933 45.9412Z" fill="#C53622"/>
<path d="M53.7592 55.855C53.6461 56.666 52.8969 57.2317 52.0859 57.1186C51.2748 57.0055 50.7091 56.2563 50.8222 55.4453C50.9354 54.6343 51.6846 54.0685 52.4956 54.1817C53.3066 54.2948 53.8723 55.044 53.7592 55.855Z" fill="#C53622"/>
<path d="M50.7802 51.3604C50.667 52.1714 49.9179 52.7371 49.1069 52.624C48.2958 52.5108 47.7301 51.7617 47.8432 50.9507C47.9564 50.1396 48.7056 49.5739 49.5166 49.687C50.3276 49.8002 50.8933 50.5493 50.7802 51.3604Z" fill="#C53622"/>
<path d="M50.8198 59.1459C50.735 59.7542 50.1731 60.1785 49.5648 60.0937C48.9566 60.0088 48.5323 59.4469 48.6171 58.8387C48.702 58.2304 49.2638 57.8061 49.8721 57.8909C50.4804 57.9758 50.9047 58.5377 50.8198 59.1459Z" fill="#C53622"/>
<path d="M48.0399 19.7489C48.0399 19.7489 49.6871 26.5407 47.9526 30.2385C45.8621 34.6952 39.5491 34.9766 39.5491 34.9766C39.5491 34.9766 37.6377 29.7667 40.1636 25.2365C42.1067 21.7518 48.0399 19.7489 48.0399 19.7489Z" fill="#7CD623"/>
<path fill-rule="evenodd" clip-rule="evenodd" d="M49.6596 19.3561L48.0399 19.7489L47.5068 18.1698C47.9496 18.0203 48.4349 18.0636 48.8443 18.2892C49.2536 18.5148 49.5494 18.9019 49.6596 19.3561ZM46.4734 20.3777C47.4008 19.9647 48.0399 19.7489 48.0399 19.7489C48.0399 19.7489 48.1972 20.3977 48.3634 21.4034C48.735 23.6517 49.151 27.6836 47.9526 30.2385C45.8621 34.6952 39.5491 34.9766 39.5491 34.9766C39.5491 34.9766 37.6377 29.7667 40.1636 25.2366C41.469 22.8955 44.5751 21.2232 46.4734 20.3777ZM39.5491 34.9766C37.9844 35.5507 37.9842 35.5501 37.984 35.5495L37.9825 35.5454L37.9799 35.5381L37.9726 35.5179C37.967 35.5018 37.9596 35.4807 37.9507 35.4547C37.933 35.4028 37.9093 35.3312 37.8813 35.2415C37.8252 35.0623 37.7514 34.8098 37.673 34.4958C37.5165 33.8698 37.3389 32.9887 37.2487 31.9494C37.0701 29.8901 37.2253 27.084 38.708 24.4249C39.9224 22.2469 42.2548 20.687 44.0357 19.7209C44.9626 19.2182 45.8203 18.8343 46.4463 18.5758C46.7604 18.4461 47.0187 18.3469 47.2016 18.2791C47.2931 18.2452 47.3659 18.219 47.4176 18.2008C47.4434 18.1917 47.464 18.1845 47.4789 18.1793L47.4972 18.1731L47.5052 18.1703L47.5068 18.1698C47.5072 18.1697 47.5068 18.1698 48.0399 19.7489C49.6596 19.3561 49.6595 19.3557 49.6596 19.3561L49.6605 19.3597L49.6619 19.3657L49.6665 19.3852L49.6823 19.4528C49.6955 19.5102 49.7139 19.5922 49.7364 19.6963C49.7813 19.9042 49.8424 20.2012 49.9095 20.5674C50.0434 21.2978 50.2034 22.3142 50.3066 23.4572C50.5045 25.6495 50.5319 28.6642 49.4615 30.9462C48.1377 33.7687 45.5314 35.1651 43.505 35.8563C42.4698 36.2094 41.5157 36.4036 40.8215 36.5103C40.4725 36.564 40.1844 36.5963 39.9785 36.6154C39.8754 36.6249 39.7925 36.6312 39.7326 36.6353C39.7025 36.6373 39.6782 36.6388 39.6599 36.6398L39.637 36.641L39.629 36.6414L39.6259 36.6415L39.6245 36.6416C39.6239 36.6416 39.6233 36.6416 39.5491 34.9766ZM37.9844 35.5507L39.5491 34.9766L39.6233 36.6416C38.8977 36.674 38.2346 36.2326 37.9844 35.5507Z" fill="#156319"/>
<path d="M46.8361 30.2636C48.3927 27.4718 47.4767 21.7939 47.4767 21.7939C42.8497 26.6009 41.685 31.9419 41.4207 33.8705C41.4207 33.8705 45.2794 33.0553 46.8361 30.2636Z" fill="#6FC21C"/>
<path d="M30.8527 27.596C32.4549 27.9789 37.767 32.4988 39.2562 35.3133C39.3805 35.5481 40.0213 35.1806 39.9159 34.975C39.0667 32.2942 36.3579 25.9667 34.1796 24.0597C31.3104 23.9993 30.7624 26.9931 30.8527 27.596Z" fill="#943D31"/>
<path fill-rule="evenodd" clip-rule="evenodd" d="M30.4651 29.2171C29.8038 29.0591 29.3048 28.5151 29.2042 27.8427C29.137 27.3937 29.203 26.8591 29.3062 26.4084C29.4208 25.9082 29.6269 25.3116 29.9729 24.7286C30.6974 23.5076 32.0594 22.3481 34.2145 22.3934C34.6062 22.4017 34.9825 22.5477 35.2773 22.8057C36.0016 23.4398 36.6805 24.3517 37.2823 25.2994C37.8988 26.2704 38.4978 27.3816 39.0427 28.4941C40.1095 30.6723 41.0184 32.958 41.4799 34.3945C41.8223 35.2722 41.3325 35.9909 41.182 36.1812C40.9574 36.4654 40.6852 36.6557 40.467 36.7741C40.2531 36.8902 39.9247 37.0277 39.5282 37.052C39.148 37.0753 38.2552 36.9855 37.7829 36.0928C37.1845 34.962 35.6744 33.2919 33.9871 31.7865C33.168 31.0557 32.3592 30.4101 31.6776 29.9339C31.3362 29.6954 31.0436 29.5113 30.8097 29.3827C30.5982 29.2665 30.4902 29.2267 30.4679 29.2185C30.4632 29.2167 30.4623 29.2164 30.4651 29.2171ZM39.9157 34.975C39.9147 34.9719 39.9137 34.9689 39.9128 34.9658C39.7999 34.6101 39.6545 34.1907 39.4821 33.7263C39.2632 33.1365 39.0008 32.4742 38.7063 31.7776C37.4816 28.8812 35.7011 25.3919 34.1795 24.0597C31.3102 23.9993 30.7623 26.9931 30.8525 27.5961C32.0076 27.8721 35.0909 30.2983 37.2798 32.6856C37.7431 33.1908 38.1662 33.6942 38.5226 34.1752C38.7878 34.5331 39.016 34.8785 39.1962 35.2029C39.2168 35.24 39.2367 35.2768 39.256 35.3133C39.3803 35.5481 40.0211 35.1806 39.9157 34.975ZM38.3123 35.4326C38.3401 35.5305 38.3795 35.6318 38.4327 35.7356C38.3903 35.6529 38.3549 35.5669 38.3268 35.4783C38.322 35.4632 38.3172 35.448 38.3123 35.4326Z" fill="#633526"/>
<path d="M34.7343 24.1153C35.2578 24.6738 34.8931 25.8662 33.9197 26.7787C32.9463 27.6911 31.7329 27.9781 31.2094 27.4196C30.6859 26.8612 31.0506 25.6688 32.0239 24.7563C32.9973 23.8438 34.2108 23.5569 34.7343 24.1153Z" fill="#C26649"/>
<path d="M31.8161 34.9802C34.0202 36.065 34.4879 39.6246 32.8607 42.9308C31.2335 46.2369 28.1276 48.0377 25.9235 46.9529C23.7194 45.8682 23.2517 42.3086 24.8789 39.0024C26.5061 35.6962 29.612 33.8954 31.8161 34.9802Z" fill="#FF896F"/>
<path fill-rule="evenodd" clip-rule="evenodd" d="M29.2644 37.6339C29.9712 38.2235 30.0663 39.2745 29.4767 39.9814C29.0927 40.4417 28.8415 40.9275 28.7016 41.4475C28.4625 42.3364 27.548 42.8631 26.6592 42.624C25.7703 42.3849 25.2436 41.4704 25.4827 40.5816C25.7538 39.5736 26.2391 38.6589 26.9169 37.8462C27.5065 37.1394 28.5575 37.0443 29.2644 37.6339Z" fill="white"/>
</svg>
