<svg width="80" height="81" viewBox="0 0 80 81" fill="none" xmlns="http://www.w3.org/2000/svg">
<path d="M41.7214 27.0934C41.7214 30.2326 39.1765 32.7774 36.0373 32.7774C32.8981 32.7774 30.3533 30.2326 30.3533 27.0934C30.3533 23.9543 32.8981 21.4094 36.0373 21.4094C39.1765 21.4094 41.7214 23.9543 41.7214 27.0934Z" fill="#E8B73B"/>
<path fill-rule="evenodd" clip-rule="evenodd" d="M43.3882 27.0936C43.3882 31.1533 40.0972 34.4443 36.0374 34.4443C31.9778 34.4443 28.6868 31.1533 28.6868 27.0936C28.6868 23.0339 31.9778 19.7429 36.0374 19.7429C40.0972 19.7429 43.3882 23.0339 43.3882 27.0936ZM36.0374 32.7776C39.1767 32.7776 41.7215 30.2328 41.7215 27.0936C41.7215 23.9544 39.1767 21.4096 36.0374 21.4096C32.8983 21.4096 30.3534 23.9544 30.3534 27.0936C30.3534 30.2328 32.8983 32.7776 36.0374 32.7776Z" fill="#B6860D"/>
<path d="M36.0374 24.6963C36.0374 25.5134 35.375 26.1758 34.5579 26.1758C33.7408 26.1758 33.0784 25.5134 33.0784 24.6963C33.0784 23.8792 33.7408 23.2168 34.5579 23.2168C35.375 23.2168 36.0374 23.8792 36.0374 24.6963Z" fill="#FED97A"/>
<path d="M64.79 38.0541C64.79 41.1934 62.2451 43.7381 59.1059 43.7381C55.9667 43.7381 53.4219 41.1934 53.4219 38.0541C53.4219 34.915 55.9667 32.3701 59.1059 32.3701C62.2451 32.3701 64.79 34.915 64.79 38.0541Z" fill="#975A2E"/>
<path fill-rule="evenodd" clip-rule="evenodd" d="M66.4566 38.054C66.4566 42.1137 63.1655 45.4047 59.1058 45.4047C55.0461 45.4047 51.7551 42.1137 51.7551 38.054C51.7551 33.9944 55.0461 30.7034 59.1058 30.7034C63.1655 30.7034 66.4566 33.9944 66.4566 38.054ZM59.1058 43.738C62.245 43.738 64.7899 41.1933 64.7899 38.054C64.7899 34.9149 62.245 32.37 59.1058 32.37C55.9666 32.37 53.4218 34.9149 53.4218 38.054C53.4218 41.1933 55.9666 43.738 59.1058 43.738Z" fill="#773F17"/>
<path d="M69.7175 49.9476C66.5001 50.5569 58.2705 47.4028 54.5577 45.7496C48.8061 42.0039 46.2905 37.5806 45.7517 35.8371C49.7293 30.3524 56.0476 33.4627 58.7096 35.7034C64.4441 34.9368 65.9759 38.3025 66.025 40.0811C70.9295 40.4257 71.7434 43.4068 71.5373 44.8542C72.8971 46.3073 73.739 49.1859 69.7175 49.9476Z" fill="#A8E12D"/>
<path fill-rule="evenodd" clip-rule="evenodd" d="M72.4327 49.667C71.8226 50.191 70.9698 50.5587 69.8726 50.7664C68.9112 50.9485 67.6682 50.841 66.3629 50.6008C65.0352 50.3566 63.5534 49.9572 62.0735 49.4921C59.1129 48.5615 56.0971 47.3473 54.2189 46.511C54.1786 46.4931 54.1399 46.472 54.103 46.448C48.2106 42.6105 45.5594 38.0366 44.9556 36.0832C44.8782 35.8327 44.9232 35.5602 45.0772 35.348C47.2778 32.3135 50.1839 31.6378 52.8513 32.0497C55.2881 32.4261 57.53 33.7007 58.9616 34.8337C61.8065 34.5261 63.7715 35.1934 65.0483 36.3108C66.0784 37.2125 66.5902 38.3472 66.7755 39.3177C69.0024 39.601 70.4612 40.4461 71.3434 41.5274C72.1689 42.5393 72.4272 43.6838 72.3969 44.5736C73.0623 45.3961 73.6187 46.5707 73.4726 47.7617C73.3866 48.463 73.0579 49.13 72.4327 49.667ZM71.8184 47.5588C71.8986 46.9042 71.5208 46.0562 70.9289 45.4237C70.7564 45.2394 70.6768 44.9868 70.7124 44.7368C70.7866 44.2153 70.6785 43.349 70.052 42.581C69.4409 41.832 68.25 41.0729 65.9666 40.9125C65.5389 40.8824 65.2039 40.5327 65.192 40.1042C65.1729 39.4087 64.8548 38.3564 63.9506 37.565C63.069 36.7934 61.5133 36.1695 58.8201 36.5295C58.5875 36.5606 58.3526 36.4922 58.1731 36.3411C56.9188 35.2852 54.8109 34.0387 52.5969 33.6969C50.5497 33.3807 48.4207 33.8286 46.6883 35.9833C47.3968 37.7592 49.8078 41.6452 54.9574 45.0153C56.7959 45.8312 59.7181 47.0047 62.5734 47.9022C64.0171 48.3559 65.4281 48.7342 66.6644 48.9617C67.9229 49.1932 68.9152 49.2514 69.5624 49.1288C70.476 48.9558 71.0261 48.678 71.3468 48.4027C71.6522 48.1403 71.7821 47.854 71.8184 47.5588Z" fill="#5E9D0D"/>
<path d="M53.9227 29.5934C53.9227 32.7326 51.3779 35.2774 48.2387 35.2774C45.0995 35.2774 42.5547 32.7326 42.5547 29.5934C42.5547 26.4543 45.0995 23.9094 48.2387 23.9094C51.3779 23.9094 53.9227 26.4543 53.9227 29.5934Z" fill="#975A2E"/>
<path fill-rule="evenodd" clip-rule="evenodd" d="M55.5895 29.5936C55.5895 33.6533 52.2985 36.9443 48.2389 36.9443C44.1792 36.9443 40.8882 33.6533 40.8882 29.5936C40.8882 25.5339 44.1792 22.2429 48.2389 22.2429C52.2985 22.2429 55.5895 25.5339 55.5895 29.5936ZM48.2389 35.2776C51.378 35.2776 53.9228 32.7328 53.9228 29.5936C53.9228 26.4544 51.378 23.9096 48.2389 23.9096C45.0997 23.9096 42.5549 26.4544 42.5549 29.5936C42.5549 32.7328 45.0997 35.2776 48.2389 35.2776Z" fill="#773F17"/>
<path d="M48.2388 26.877C48.2388 27.8705 47.4334 28.676 46.4399 28.676C45.4463 28.676 44.6409 27.8705 44.6409 26.877C44.6409 25.8835 45.4463 25.0781 46.4399 25.0781C47.4334 25.0781 48.2388 25.8835 48.2388 26.877Z" fill="#CA7A3F"/>
<path d="M24.3231 36.9443C24.3231 40.0834 21.7783 42.6283 18.6391 42.6283C15.4999 42.6283 12.9551 40.0834 12.9551 36.9443C12.9551 33.8051 15.4999 31.2603 18.6391 31.2603C21.7783 31.2603 24.3231 33.8051 24.3231 36.9443Z" fill="#975A2E"/>
<path fill-rule="evenodd" clip-rule="evenodd" d="M25.9897 36.9442C25.9897 41.0038 22.6987 44.2948 18.639 44.2948C14.5793 44.2948 11.2883 41.0038 11.2883 36.9442C11.2883 32.8845 14.5793 29.5935 18.639 29.5935C22.6987 29.5935 25.9897 32.8845 25.9897 36.9442ZM18.639 42.6282C21.7782 42.6282 24.323 40.0833 24.323 36.9442C24.323 33.805 21.7782 31.2602 18.639 31.2602C15.4998 31.2602 12.955 33.805 12.955 36.9442C12.955 40.0833 15.4998 42.6282 18.639 42.6282Z" fill="#773F17"/>
<path d="M52.9687 40.5179C49.8342 38.2981 49.075 33.9826 51.273 30.879C53.471 27.7754 57.7938 27.0589 60.9283 29.2788L52.9687 40.5179Z" fill="#FA5252"/>
<path fill-rule="evenodd" clip-rule="evenodd" d="M52.0056 41.8782C52.7568 42.4102 53.797 42.2325 54.329 41.4813L62.2885 30.2421C62.8205 29.491 62.6429 28.4507 61.8917 27.9188C58.0188 25.176 52.652 26.0485 49.9131 29.9159C47.1742 33.7833 48.1327 39.1354 52.0056 41.8782ZM51.7238 39.3924C52.0844 39.8071 52.5 40.186 52.9689 40.5181L60.9285 29.2789C60.4596 28.9469 59.9642 28.6806 59.4533 28.4781C56.5484 27.3268 53.1425 28.2397 51.2732 30.8791C49.404 33.5185 49.6735 37.0344 51.7238 39.3924Z" fill="#BC2121"/>
<path d="M17.6243 28.7773C18.5656 25.0535 22.3176 22.7903 26.0047 23.7223C29.6919 24.6543 31.9178 28.4286 30.9765 32.1523L17.6243 28.7773Z" fill="#FA5252"/>
<path fill-rule="evenodd" clip-rule="evenodd" d="M16.0083 28.3688C15.7827 29.2612 16.3233 30.1675 17.2157 30.3931L30.5678 33.7681C31.4603 33.9937 32.3666 33.4531 32.5922 32.5608C33.7552 27.9597 31.0075 23.2678 26.4129 22.1064C21.8184 20.945 17.1713 23.7677 16.0083 28.3688ZM18.2255 27.2102C17.9685 27.6959 17.7648 28.2203 17.6241 28.7773L30.9763 32.1523C31.1171 31.5953 31.187 31.0373 31.1918 30.4877C31.219 27.3631 29.1402 24.5148 26.0045 23.7223C22.8689 22.9297 19.6863 24.4479 18.2255 27.2102Z" fill="#BC2121"/>
<path d="M23.4306 27.051C23.1085 27.8019 22.2385 28.1495 21.4876 27.8274C20.7367 27.5052 20.3891 26.6353 20.7113 25.8844C21.0335 25.1334 21.9034 24.7859 22.6543 25.108C23.4052 25.4302 23.7528 26.3001 23.4306 27.051Z" fill="#FE9595"/>
<path d="M55.9951 31.073C55.9951 31.8901 55.3327 32.5525 54.5156 32.5525C53.6985 32.5525 53.0361 31.8901 53.0361 31.073C53.0361 30.2558 53.6985 29.5935 54.5156 29.5935C55.3327 29.5935 55.9951 30.2558 55.9951 31.073Z" fill="#FE9595"/>
<path d="M11.7037 50.0453C15.752 51.0637 26.2769 47.058 31.0333 44.9278C38.4444 39.966 41.7861 33.8889 42.5305 31.4706C37.6959 23.5741 29.5907 27.6157 26.1423 30.6236C18.9152 29.2563 16.8563 33.8998 16.7303 36.3924C10.5131 36.6263 9.37617 40.7667 9.58483 42.8077C7.81225 44.7769 6.64347 48.7721 11.7037 50.0453Z" fill="#A8E12D"/>
<path fill-rule="evenodd" clip-rule="evenodd" d="M8.39442 49.2384C9.10475 49.9611 10.1326 50.5093 11.5006 50.8534C12.6841 51.1512 14.2405 51.0673 15.8972 50.7974C17.5781 50.5236 19.4611 50.0405 21.3467 49.4643C25.1189 48.3115 28.9722 46.7641 31.3741 45.6883C31.4169 45.6692 31.4581 45.6464 31.4971 45.6203C39.0573 40.5586 42.523 34.328 43.3271 31.7158C43.3975 31.4872 43.3662 31.2394 43.2414 31.0354C41.9594 28.9416 40.428 27.5897 38.7626 26.8264C37.1002 26.0646 35.3633 25.9159 33.709 26.1317C30.6103 26.5358 27.7281 28.2254 25.9019 29.7348C22.3051 29.1438 19.8231 29.9825 18.2135 31.4435C16.8513 32.68 16.1999 34.2855 15.9802 35.6048C13.0874 35.8615 11.2158 36.9763 10.0924 38.408C9.01908 39.7759 8.69508 41.3501 8.73175 42.5244C7.85206 43.6123 7.11863 45.1838 7.25177 46.7578C7.32638 47.6398 7.67467 48.5061 8.39442 49.2384ZM8.9125 46.6173C8.81975 45.5208 9.41033 44.2473 10.2043 43.3653C10.3618 43.1903 10.4379 42.9571 10.414 42.723C10.3278 41.8797 10.5231 40.5591 11.4037 39.4368C12.2604 38.3448 13.85 37.3347 16.7618 37.2252C17.1933 37.2089 17.5408 36.8658 17.5627 36.4345C17.6173 35.3558 18.0982 33.7991 19.3337 32.6776C20.5335 31.5886 22.5718 30.7962 25.9876 31.4424C26.2388 31.4899 26.4978 31.4196 26.6903 31.2516C28.3392 29.8133 31.0798 28.1553 33.9245 27.7843C35.3319 27.6008 36.7432 27.7343 38.0682 28.3415C39.3107 28.911 40.5295 29.9209 41.6143 31.5807C40.725 34.0242 37.4923 39.5815 30.6283 44.1962C28.2694 45.2494 24.5173 46.7526 20.8596 47.8703C19.0134 48.4345 17.2088 48.8951 15.6292 49.1524C14.0252 49.4138 12.7479 49.4487 11.9073 49.2372C10.7452 48.9448 10.0214 48.5161 9.58308 48.0701C9.15417 47.6338 8.95667 47.1393 8.9125 46.6173Z" fill="#5E9D0D"/>
<path d="M40.0001 30.9998C23.9916 30.9998 10.8151 43.1256 9.15472 58.6934C8.95947 60.524 10.4706 62.0215 12.3116 62.0215H67.6885C69.5295 62.0215 71.0406 60.524 70.8454 58.6934C69.185 43.1256 56.0085 30.9998 40.0001 30.9998Z" fill="#F7A913"/>
<path fill-rule="evenodd" clip-rule="evenodd" d="M7.49733 58.5168C9.24714 42.1108 23.1303 29.3333 40 29.3333C56.8696 29.3333 70.7527 42.1108 72.5026 58.5168C72.8155 61.451 70.3963 63.6883 67.6884 63.6883H12.3115C9.60356 63.6883 7.18438 61.451 7.49733 58.5168ZM9.15456 58.6936C10.8151 43.1258 23.9914 30.9999 40 30.9999C56.0085 30.9999 69.1848 43.1258 70.8453 58.6936C71.0406 60.5242 69.5293 62.0217 67.6884 62.0217H12.3115C10.4706 62.0217 8.95939 60.5242 9.15456 58.6936Z" fill="#AE6C08"/>
<path fill-rule="evenodd" clip-rule="evenodd" d="M62.3824 62.0217C63.0594 61.4106 63.4571 60.5173 63.3606 59.5258C62.0824 46.3973 53.324 35.4603 41.4019 31.031C56.772 31.7145 69.2337 43.5825 70.8454 58.6935C71.0406 60.5241 69.5294 62.0217 67.6884 62.0217H62.3824Z" fill="#ED9E05"/>
<path d="M22.7396 54.3577C21.5717 57.5155 18.416 59.2585 15.6911 58.2507C12.9662 57.243 11.7041 53.8661 12.872 50.7082C14.0398 47.5504 18.6814 40.7212 21.4062 41.7289C24.1311 42.7367 23.9075 51.1998 22.7396 54.3577Z" fill="#FFBB38"/>
<path d="M61.2248 56.7812C61.2248 57.5291 60.6719 58.1353 59.9899 58.1353C59.3078 58.1353 58.7549 57.5291 58.7549 56.7812C58.7549 56.0333 59.3078 55.427 59.9899 55.427C60.6719 55.427 61.2248 56.0333 61.2248 56.7812Z" fill="#CB8807"/>
<path d="M62.8823 51.7392C62.8823 52.4871 62.3293 53.0933 61.6473 53.0933C60.9653 53.0933 60.4124 52.4871 60.4124 51.7392C60.4124 50.9913 60.9653 50.385 61.6473 50.385C62.3293 50.385 62.8823 50.9913 62.8823 51.7392Z" fill="#CB8807"/>
<path d="M53.2348 58.1352C53.2348 58.8831 52.6819 59.4893 51.9999 59.4893C51.3178 59.4893 50.7649 58.8831 50.7649 58.1352C50.7649 57.3873 51.3178 56.781 51.9999 56.781C52.6819 56.781 53.2348 57.3873 53.2348 58.1352Z" fill="#CB8807"/>
<path d="M64.6395 58.1352C64.6395 58.732 64.1981 59.2159 63.6538 59.2159C63.1095 59.2159 62.6682 58.732 62.6682 58.1352C62.6682 57.5384 63.1095 57.0544 63.6538 57.0544C64.1981 57.0544 64.6395 57.5384 64.6395 58.1352Z" fill="#CB8807"/>
<path d="M56.8886 55.2367C56.8886 55.8336 56.4474 56.3174 55.9031 56.3174C55.3587 56.3174 54.9175 55.8336 54.9175 55.2367C54.9175 54.6398 55.3587 54.156 55.9031 54.156C56.4474 54.156 56.8886 54.6398 56.8886 55.2367Z" fill="#CB8807"/>
<path d="M66.6106 50.3849C66.6106 50.9819 66.1693 51.4657 65.625 51.4657C65.0807 51.4657 64.6394 50.9819 64.6394 50.3849C64.6394 49.7881 65.0807 49.3042 65.625 49.3042C66.1693 49.3042 66.6106 49.7881 66.6106 50.3849Z" fill="#CB8807"/>
<path d="M68.159 57.4582C68.159 58.055 67.7177 58.5389 67.1733 58.5389C66.629 58.5389 66.1877 58.055 66.1877 57.4582C66.1877 56.8614 66.629 56.3774 67.1733 56.3774C67.7177 56.3774 68.159 56.8614 68.159 57.4582Z" fill="#CB8807"/>
<path d="M58.2717 59.4475C58.2717 59.9493 57.9007 60.3561 57.443 60.3561C56.9853 60.3561 56.6143 59.9493 56.6143 59.4475C56.6143 58.9457 56.9853 58.5388 57.443 58.5388C57.9007 58.5388 58.2717 58.9457 58.2717 59.4475Z" fill="#CB8807"/>
<path d="M48.6982 58.8514C48.6982 59.3532 48.3272 59.76 47.8695 59.76C47.4118 59.76 47.0408 59.3532 47.0408 58.8514C47.0408 58.3495 47.4118 57.9426 47.8695 57.9426C48.3272 57.9426 48.6982 58.3495 48.6982 58.8514Z" fill="#CB8807"/>
<path d="M53.0513 54.8412C53.0513 55.2196 52.7715 55.5263 52.4264 55.5263C52.0813 55.5263 51.8015 55.2196 51.8015 54.8412C51.8015 54.4628 52.0813 54.156 52.4264 54.156C52.7715 54.156 53.0513 54.4628 53.0513 54.8412Z" fill="#CB8807"/>
<path d="M59.7202 53.7784C59.7202 54.1568 59.4405 54.4636 59.0954 54.4636C58.7502 54.4636 58.4705 54.1568 58.4705 53.7784C58.4705 53.4 58.7502 53.0933 59.0954 53.0933C59.4405 53.0933 59.7202 53.4 59.7202 53.7784Z" fill="#CB8807"/>
<path d="M59.5215 51.0702C59.5215 51.4486 59.2417 51.7553 58.8966 51.7553C58.5516 51.7553 58.2717 51.4486 58.2717 51.0702C58.2717 50.6918 58.5516 50.385 58.8966 50.385C59.2417 50.385 59.5215 50.6918 59.5215 51.0702Z" fill="#CB8807"/>
<path d="M57.1528 52.4581C57.1528 52.8365 56.8731 53.1434 56.5279 53.1434C56.1828 53.1434 55.9031 52.8365 55.9031 52.4581C55.9031 52.0798 56.1828 51.7729 56.5279 51.7729C56.8731 51.7729 57.1528 52.0798 57.1528 52.4581Z" fill="#CB8807"/>
<path d="M64.1321 47.5882C64.1321 47.9667 63.8522 48.2734 63.5072 48.2734C63.1621 48.2734 62.8823 47.9667 62.8823 47.5882C62.8823 47.2098 63.1621 46.9031 63.5072 46.9031C63.8522 46.9031 64.1321 47.2098 64.1321 47.5882Z" fill="#CB8807"/>
<path d="M55.1715 58.1351C55.1715 58.5135 54.8918 58.8204 54.5467 58.8204C54.2016 58.8204 53.9219 58.5135 53.9219 58.1351C53.9219 57.7568 54.2016 57.45 54.5467 57.45C54.8918 57.45 55.1715 57.7568 55.1715 58.1351Z" fill="#CB8807"/>
<path d="M45.323 60.1554C45.323 60.4389 45.1134 60.6688 44.8548 60.6688C44.5963 60.6688 44.3867 60.4389 44.3867 60.1554C44.3867 59.8719 44.5963 59.6421 44.8548 59.6421C45.1134 59.6421 45.323 59.8719 45.323 60.1554Z" fill="#CB8807"/>
<path d="M50.6196 60.3564C50.6196 60.6398 50.41 60.8696 50.1515 60.8696C49.8929 60.8696 49.6833 60.6398 49.6833 60.3564C49.6833 60.0728 49.8929 59.843 50.1515 59.843C50.41 59.843 50.6196 60.0728 50.6196 60.3564Z" fill="#CB8807"/>
<path d="M66.6106 60.0028C66.6106 60.2863 66.401 60.5161 66.1425 60.5161C65.8839 60.5161 65.6743 60.2863 65.6743 60.0028C65.6743 59.7193 65.8839 59.4895 66.1425 59.4895C66.401 59.4895 66.6106 59.7193 66.6106 60.0028Z" fill="#CB8807"/>
<path d="M69.3552 58.9341C69.3552 59.2176 69.1456 59.4475 68.887 59.4475C68.6285 59.4475 68.4189 59.2176 68.4189 58.9341C68.4189 58.6507 68.6285 58.4209 68.887 58.4209C69.1456 58.4209 69.3552 58.6507 69.3552 58.9341Z" fill="#CB8807"/>
<path d="M68.4189 54.8411C68.4189 55.1246 68.2093 55.3545 67.9508 55.3545C67.6922 55.3545 67.4827 55.1246 67.4827 54.8411C67.4827 54.5576 67.6922 54.3279 67.9508 54.3279C68.2093 54.3279 68.4189 54.5576 68.4189 54.8411Z" fill="#CB8807"/>
<path d="M61.6474 59.76C61.6474 60.2618 61.2764 60.6686 60.8187 60.6686C60.361 60.6686 59.99 60.2618 59.99 59.76C59.99 59.2582 60.361 58.8513 60.8187 58.8513C61.2764 58.8513 61.6474 59.2582 61.6474 59.76Z" fill="#CB8807"/>
<path d="M66.1877 54.1561C66.1877 55.0938 65.4945 55.8538 64.6394 55.8538C63.7842 55.8538 63.0911 55.0938 63.0911 54.1561C63.0911 53.2184 63.7842 52.4583 64.6394 52.4583C65.4945 52.4583 66.1877 53.2184 66.1877 54.1561Z" fill="#CB8807"/>
<path fill-rule="evenodd" clip-rule="evenodd" d="M32.9871 57.3955C32.3576 56.7882 31.9771 56.4649 31.2599 56.5184C30.5592 56.5708 30.1592 56.8929 29.5856 57.4045C29.5635 57.4242 29.5411 57.4443 29.5185 57.4645C28.9581 57.9659 28.217 58.6289 26.993 58.804C25.4091 59.0306 24.3272 58.295 23.4979 57.7311C23.4878 57.7243 23.4778 57.7174 23.4678 57.7107C22.6028 57.1227 21.9959 56.7289 21.0795 56.8284C20.201 56.9237 19.2391 57.3516 18.4541 57.7989C18.0709 58.0173 17.7485 58.2293 17.5226 58.3862C17.4101 58.4644 17.3223 58.5284 17.2639 58.5719C17.2347 58.5936 17.2129 58.6102 17.1991 58.6208L17.1843 58.6321L17.1821 58.6339C16.8204 58.9184 16.2964 58.8561 16.0118 58.4945C15.7271 58.1329 15.7896 57.6089 16.1512 57.3243L16.6665 57.9789C16.1512 57.3243 16.1511 57.3244 16.1512 57.3243L16.1526 57.3232L16.1549 57.3214L16.1618 57.316L16.1852 57.2979C16.205 57.2828 16.2331 57.2615 16.2688 57.2349C16.3403 57.1817 16.4427 57.1071 16.5716 57.0175C16.8286 56.8389 17.1936 56.5989 17.629 56.3509C18.4809 55.8654 19.6806 55.3038 20.8996 55.1714C22.4526 55.0029 23.5199 55.7297 24.3341 56.2843C24.3579 56.3004 24.3814 56.3164 24.4047 56.3323C25.2596 56.9133 25.8561 57.283 26.757 57.1542C27.4731 57.0518 27.8816 56.6911 28.4762 56.1607C29.0656 55.635 29.8323 54.9537 31.1359 54.8564C32.6401 54.7442 33.504 55.578 34.1213 56.1739L34.1443 56.1961C34.7854 56.8146 35.1779 57.1681 35.9126 57.1461C36.6691 57.1235 37.068 56.7947 37.6701 56.2933C38.2859 55.7803 39.0958 55.1114 40.5018 55.1672C41.937 55.2243 42.7086 56.1015 43.2413 56.7071C43.2638 56.7327 43.2859 56.7579 43.3076 56.7824C43.8647 57.4127 44.1805 57.7099 44.8436 57.6683C45.524 57.6255 45.9757 57.2315 46.6736 56.5889L46.7019 56.5628C47.3389 55.9759 48.2174 55.1666 49.5833 55.1666C50.3727 55.1666 50.9834 55.3799 51.4821 55.7221C51.9236 56.025 52.2516 56.4162 52.5002 56.7125C52.5147 56.7299 52.5291 56.7469 52.5431 56.7635C52.821 57.0939 53.0156 57.3104 53.2532 57.4594C53.4611 57.5896 53.7455 57.6929 54.2275 57.6678C55.0541 57.6247 55.7587 57.2484 56.6533 56.7528L56.7064 56.7234C57.5407 56.2609 58.5576 55.6971 59.8031 55.6364C61.0586 55.575 62.1701 56.0307 62.9312 56.4602C63.3181 56.6785 63.632 56.8999 63.8508 57.0681C63.9606 57.1524 64.0474 57.2241 64.1086 57.2764C64.1393 57.3026 64.1636 57.3239 64.1811 57.3397L64.2025 57.359L64.2095 57.3654L64.212 57.3676L64.2129 57.3685C64.2131 57.3687 64.2137 57.3693 63.6458 57.9791L64.2137 57.3693C64.5506 57.683 64.5693 58.2103 64.2556 58.5471C63.9425 58.8833 63.4164 58.9025 63.0796 58.5905C63.0795 58.5904 63.0796 58.5905 63.0796 58.5905C63.0793 58.5903 63.0789 58.5899 63.0786 58.5896C63.0785 58.5895 63.0787 58.5898 63.0786 58.5896L63.0778 58.5889L32.9871 57.3955ZM63.0778 58.5889L63.0706 58.5824C63.0618 58.5745 63.0469 58.5614 63.0261 58.5437C62.9846 58.5083 62.9201 58.4549 62.8353 58.3897C62.665 58.2588 62.4168 58.0837 62.1121 57.9117C61.4902 57.5608 60.7006 57.2612 59.8843 57.301C59.0587 57.3414 58.3546 57.7157 57.461 58.2107L57.4011 58.2439C56.569 58.7053 55.5548 59.2675 54.3141 59.3321C53.5171 59.3737 52.8885 59.1977 52.3682 58.8717C51.8819 58.5669 51.535 58.1544 51.274 57.844L51.2675 57.8363C50.9812 57.4959 50.7855 57.2654 50.5392 57.0964C50.3244 56.949 50.0439 56.8333 49.5833 56.8333C48.9255 56.8333 48.486 57.1856 47.8026 57.8149C47.7761 57.8393 47.7493 57.8641 47.722 57.8893C47.1032 58.4614 46.2502 59.2499 44.948 59.3316C43.4211 59.4274 42.6217 58.523 42.0631 57.8909L42.0588 57.8861C41.4778 57.2288 41.1362 56.8604 40.4356 56.8326C39.6996 56.8034 39.3152 57.0919 38.7367 57.5739C38.7168 57.5904 38.6966 57.6073 38.6763 57.6243C38.0902 58.1138 37.3021 58.772 35.9624 58.8121C34.497 58.8559 33.6466 58.0334 33.0428 57.4493C33.024 57.4311 33.0054 57.4132 32.9871 57.3955" fill="#FFC961"/>
<path fill-rule="evenodd" clip-rule="evenodd" d="M45.1487 50.356C45.7782 49.7486 46.1586 49.4254 46.8759 49.4789C47.5766 49.5312 47.9765 49.8533 48.5502 50.365C48.5723 50.3847 48.5946 50.4047 48.6173 50.425C49.1777 50.9263 49.9188 51.5894 51.1428 51.7645C52.7267 51.9911 53.8085 51.2555 54.6379 50.6916C54.6479 50.6847 54.658 50.6779 54.6679 50.6711C55.533 50.0831 56.1399 49.6894 57.0563 49.7888C57.9348 49.8842 58.8966 50.3121 59.6818 50.7594C60.0649 50.9777 60.3873 51.1897 60.6131 51.3466C60.7257 51.4249 60.8135 51.4889 60.8719 51.5324C60.9011 51.5541 60.9229 51.5706 60.9368 51.5813L60.9514 51.5926L60.9538 51.5944C61.3154 51.8788 61.8394 51.8166 62.124 51.455C62.4087 51.0933 62.3462 50.5694 61.9846 50.2847L61.4693 50.9393C61.9846 50.2847 61.9847 50.2848 61.9846 50.2847L61.9832 50.2836L61.9809 50.2819L61.974 50.2765L61.9506 50.2584C61.9308 50.2432 61.9028 50.222 61.867 50.1954C61.7955 50.1421 61.693 50.0676 61.5643 49.9781C61.3072 49.7994 60.9422 49.5593 60.5068 49.3113C59.6548 48.8259 58.4552 48.2642 57.2362 48.1319C55.6833 47.9633 54.6159 48.6901 53.8016 49.2447C53.7779 49.2609 53.7543 49.2769 53.7311 49.2927C52.8763 49.8737 52.2797 50.2435 51.3788 50.1146C50.6628 50.0122 50.2542 49.6516 49.6596 49.1211C49.0702 48.5956 48.3035 47.9141 46.9999 47.8169C45.4956 47.7046 44.6318 48.5385 44.0145 49.1343L43.9914 49.1566C43.3504 49.7751 42.9578 50.1286 42.2233 50.1066C41.4668 50.084 41.0678 49.7551 40.4658 49.2537C39.8499 48.7407 39.04 48.0718 37.634 48.1277C36.1988 48.1847 35.4272 49.062 34.8945 49.6676C34.8719 49.6931 34.8498 49.7183 34.8282 49.7428C34.2711 50.3731 33.9553 50.6703 33.2922 50.6287C32.6118 50.5861 32.16 50.192 31.4623 49.5494L31.4338 49.5232C30.7968 48.9364 29.9184 48.1271 28.5525 48.1271C27.7631 48.1271 27.1524 48.3404 26.6537 48.6826C26.2122 48.9855 25.8841 49.3766 25.6356 49.673C25.621 49.6903 25.6068 49.7073 25.5928 49.724C25.3148 50.0545 25.1203 50.2709 24.8825 50.4198C24.6747 50.5501 24.3903 50.6533 23.9083 50.6282C23.0818 50.5851 22.377 50.2088 21.4825 49.7132L21.4294 49.6839C20.5951 49.2213 19.5781 48.6576 18.3327 48.5968C17.873 48.5744 17.4822 48.9288 17.4598 49.3885C17.4373 49.8482 17.7918 50.2391 18.2514 50.2615C19.077 50.3018 19.7813 50.6761 20.6748 51.1711L20.7347 51.2043C21.5668 51.6657 22.581 52.228 23.8217 52.2926C24.6187 52.3341 25.2473 52.1581 25.7675 51.8321C26.2538 51.5274 26.6008 51.1148 26.8618 50.8045L26.8683 50.7967C27.1546 50.4563 27.3503 50.2259 27.5966 50.0569C27.8114 49.9095 28.0919 49.7937 28.5525 49.7937C29.2103 49.7937 29.6498 50.1461 30.3333 50.7754C30.3597 50.7997 30.3865 50.8246 30.4138 50.8498C31.0325 51.4218 31.8855 52.2104 33.1878 52.2921C34.7148 52.3879 35.5141 51.4835 36.0728 50.8514L36.077 50.8466C36.6579 50.1892 36.9996 49.8209 37.7002 49.7931C38.4362 49.7638 38.8205 50.0525 39.3991 50.5343C39.419 50.5509 39.4391 50.5677 39.4595 50.5847C40.0456 51.0742 40.8337 51.7325 42.1734 51.7726C43.6388 51.8164 44.4891 50.9939 45.093 50.4097C45.1118 50.3916 45.1303 50.3736 45.1487 50.356Z" fill="#FFC961"/>
<path fill-rule="evenodd" clip-rule="evenodd" d="M48.4693 43.4351C49.0987 44.0425 49.4792 44.3656 50.1965 44.3121C50.8971 44.2599 51.2971 43.9377 51.8708 43.4261C51.8929 43.4064 51.9152 43.3864 51.9379 43.3661C52.4983 42.8647 53.2394 42.2016 54.4634 42.0266C56.0472 41.8 57.1291 42.5356 57.9585 43.0995C57.9686 43.1063 57.9786 43.1131 57.9886 43.12C58.8536 43.7079 59.4605 44.1017 60.3769 44.0022C60.8345 43.9526 61.2456 44.2832 61.2953 44.7408C61.345 45.1983 61.0143 45.6095 60.5568 45.6591C59.0039 45.8277 57.9366 45.1009 57.1222 44.5464C57.0985 44.5302 57.075 44.5142 57.0516 44.4983C56.1968 43.9173 55.6002 43.5476 54.6994 43.6764C53.9833 43.7789 53.5748 44.1396 52.9801 44.6699C52.3908 45.1956 51.6241 45.8769 50.3205 45.9741C48.8162 46.0864 47.9524 45.2526 47.3351 44.6567L47.3121 44.6346C46.671 44.016 46.2785 43.6625 45.5438 43.6845C44.7873 43.7071 44.3884 44.0359 43.7864 44.5374C43.1705 45.0503 42.3606 45.7192 40.9546 45.6634C39.5194 45.6064 38.7478 44.7291 38.2151 44.1235C38.1926 44.0979 38.1705 44.0728 38.1487 44.0482C37.5916 43.4179 37.2759 43.1207 36.6127 43.1624C35.9324 43.2051 35.4806 43.5991 34.7828 44.2416L34.7545 44.2678C34.1175 44.8547 33.239 45.664 31.8731 45.664C31.0836 45.664 30.473 45.4506 29.9742 45.1085C29.5328 44.8056 29.2047 44.4145 28.9562 44.1181C28.9416 44.1007 28.9273 44.0837 28.9133 44.0671C28.6355 43.7366 28.4408 43.5201 28.2031 43.3712C27.9953 43.241 27.7109 43.1377 27.229 43.1629C26.4023 43.2059 25.6976 43.5822 24.8031 44.0778L24.7501 44.1072C23.9157 44.5697 22.8987 45.1335 21.6533 45.1942C21.1936 45.2167 20.8028 44.8622 20.7803 44.4026C20.7579 43.9429 21.1123 43.5521 21.5721 43.5296C22.3976 43.4893 23.1018 43.115 23.9954 42.6199C24.0153 42.6089 24.0352 42.5979 24.0553 42.5867C24.8874 42.1254 25.9016 41.5631 27.1422 41.4985C27.9393 41.457 28.5679 41.6329 29.0881 41.9589C29.5745 42.2637 29.9214 42.6762 30.1824 42.9866L30.1889 42.9943C30.4751 43.3347 30.6709 43.5652 30.9171 43.7341C31.132 43.8816 31.4126 43.9973 31.8731 43.9973C32.5309 43.9973 32.9704 43.645 33.6538 43.0156C33.6802 42.9913 33.7071 42.9666 33.7344 42.9413C34.3531 42.3692 35.2061 41.5806 36.5084 41.499C38.0353 41.4031 38.8346 42.3076 39.3933 42.9396L39.3976 42.9445C39.9786 43.6018 40.3201 43.9702 41.0207 43.9981C41.7568 44.0272 42.1411 43.7386 42.7197 43.2567C42.7396 43.2401 42.7597 43.2233 42.7801 43.2063C43.3661 42.7168 44.1543 42.0586 45.494 42.0186C46.9594 41.9747 47.8097 42.7972 48.4136 43.3813C48.4324 43.3995 48.451 43.4174 48.4693 43.4351Z" fill="#FFC961"/>
<path fill-rule="evenodd" clip-rule="evenodd" d="M52.1392 36.4847C52.7686 37.092 53.1491 37.4153 53.8664 37.3617C54.3254 37.3274 54.7252 37.6718 54.7595 38.1308C54.7936 38.5897 54.4494 38.9895 53.9904 39.0238C52.4861 39.136 51.6223 38.3022 51.005 37.7064C50.9973 37.6989 50.9896 37.6914 50.982 37.6841C50.3409 37.0656 49.9484 36.7121 49.2137 36.734C48.4572 36.7567 48.0583 37.0854 47.4562 37.5869C46.8404 38.0999 46.0305 38.7689 44.6245 38.7129C43.1893 38.6559 42.4176 37.7787 41.885 37.1731C41.8625 37.1474 41.8404 37.1224 41.8186 37.0978C41.2616 36.4675 40.9458 36.1704 40.2826 36.2119C39.6023 36.2546 39.1506 36.6487 38.4527 37.2913L38.4244 37.3174C37.7874 37.9043 36.9089 38.7136 35.543 38.7136C34.7536 38.7136 34.1429 38.5002 33.6441 38.158C33.2026 37.8551 32.8746 37.464 32.6261 37.1677C32.6116 37.1504 32.5972 37.1333 32.5832 37.1166C32.3054 36.7862 32.1107 36.5698 31.8731 36.4208C31.6652 36.2905 31.3808 36.1874 30.8988 36.2124C30.0722 36.2555 29.3676 36.6319 28.473 37.1274C28.4554 37.1371 28.4377 37.1469 28.4199 37.1568C27.5856 37.6193 26.5686 38.183 25.3232 38.2439C24.8636 38.2663 24.4726 37.9119 24.4502 37.4521C24.4278 36.9924 24.7822 36.6016 25.242 36.5792C26.0676 36.5389 26.7717 36.1645 27.6653 35.6695C27.6852 35.6585 27.7051 35.6474 27.7252 35.6363C28.5573 35.1749 29.5715 34.6127 30.8121 34.548C31.6092 34.5065 32.2378 34.6825 32.7581 35.0085C33.2444 35.3133 33.5913 35.7259 33.8523 36.0362L33.8588 36.0439C34.1451 36.3844 34.3408 36.6148 34.5871 36.7838C34.8019 36.9311 35.0824 37.0469 35.543 37.0469C36.2008 37.0469 36.6403 36.6946 37.3237 36.0652C37.3501 36.0409 37.377 36.0161 37.4043 35.9909C38.0231 35.4189 38.8761 34.6303 40.1783 34.5485C41.7052 34.4528 42.5046 35.3572 43.0632 35.9893L43.0675 35.994C43.6485 36.6514 43.9901 37.0198 44.6906 37.0476C45.4267 37.0769 45.8111 36.7882 46.3896 36.3063C46.4095 36.2898 46.4296 36.2729 46.45 36.2559C47.0361 35.7664 47.8242 35.1082 49.1639 35.0681C50.6293 35.0243 51.4796 35.8468 52.0835 36.4309C52.1023 36.4491 52.1209 36.467 52.1392 36.4847Z" fill="#FFC961"/>
<path fill-rule="evenodd" clip-rule="evenodd" d="M28.0268 36.6491C28.2436 37.0551 28.0902 37.5599 27.6842 37.7766C20.9725 41.3596 16.7027 47.7905 15.162 52.2116C15.0105 52.6461 14.5354 52.8757 14.1008 52.7242C13.6662 52.5728 13.4367 52.0977 13.5882 51.6631C15.2419 46.9175 19.7568 40.1192 26.8992 36.3063C27.3052 36.0897 27.8101 36.2431 28.0268 36.6491Z" fill="#FFEECE"/>
</svg>
