<svg width="80" height="81" viewBox="0 0 80 81" fill="none" xmlns="http://www.w3.org/2000/svg">
<path d="M54.2827 69.4374C54.2827 71.2552 47.8803 72.7288 39.9825 72.7288C32.0848 72.7288 25.6824 71.2552 25.6824 69.4374C25.6824 67.6196 32.0848 66.146 39.9825 66.146C47.8803 66.146 54.2827 67.6196 54.2827 69.4374Z" fill="#A0D6ED"/>
<path fill-rule="evenodd" clip-rule="evenodd" d="M50.468 73.3889C47.725 74.0202 44.0187 74.3954 39.9825 74.3954C35.9462 74.3954 32.2399 74.0202 29.4969 73.3889C28.1388 73.0762 26.9246 72.6804 26.0095 72.1824C25.5528 71.9339 25.0919 71.6181 24.7273 71.208C24.3535 70.7877 24.0156 70.1882 24.0156 69.4373C24.0156 68.6864 24.3535 68.0869 24.7273 67.6666C25.0919 67.2565 25.5528 66.9407 26.0095 66.6922C26.9246 66.1942 28.1388 65.7983 29.4969 65.4857C32.2399 64.8544 35.9462 64.4792 39.9825 64.4792C44.0187 64.4792 47.725 64.8544 50.468 65.4857C51.8261 65.7983 53.0403 66.1942 53.9555 66.6922C54.4121 66.9407 54.873 67.2565 55.2376 67.6666C55.6114 68.0869 55.9493 68.6864 55.9493 69.4373C55.9493 70.1882 55.6114 70.7877 55.2376 71.208C54.873 71.6181 54.4121 71.9339 53.9555 72.1824C53.0403 72.6804 51.8261 73.0762 50.468 73.3889ZM39.9825 72.7287C47.8802 72.7287 54.2826 71.2551 54.2826 69.4373C54.2826 67.6195 47.8802 66.1459 39.9825 66.1459C32.0847 66.1459 25.6823 67.6195 25.6823 69.4373C25.6823 71.2551 32.0847 72.7287 39.9825 72.7287Z" fill="#377894"/>
<path d="M43.1515 69.1314C43.1515 70.1689 39.4974 71.01 34.9899 71.01C30.4823 71.01 26.8281 70.1689 26.8281 69.1314C26.8281 68.0939 30.4823 67.2529 34.9899 67.2529C39.4974 67.2529 43.1515 68.0939 43.1515 69.1314Z" fill="#D7F3FF"/>
<path d="M38.698 39.3985C38.698 38.6794 39.281 38.0964 40.0001 38.0964C40.7192 38.0964 41.3022 38.6794 41.3022 39.3985V67.3019C41.3022 68.021 40.7192 68.604 40.0001 68.604C39.281 68.604 38.698 68.021 38.698 67.3019V39.3985Z" fill="#A0D6ED"/>
<path fill-rule="evenodd" clip-rule="evenodd" d="M42.9688 39.3984V67.3019C42.9688 68.9414 41.6396 70.2706 40 70.2706C38.3604 70.2706 37.0312 68.9414 37.0312 67.3019V39.3984C37.0312 37.7589 38.3604 36.4297 40 36.4297C41.6396 36.4297 42.9688 37.7589 42.9688 39.3984ZM40 38.0964C39.2809 38.0964 38.6979 38.6793 38.6979 39.3984V67.3019C38.6979 68.0209 39.2809 68.6039 40 68.6039C40.7191 68.6039 41.3021 68.0209 41.3021 67.3019V39.3984C41.3021 38.6793 40.7191 38.0964 40 38.0964Z" fill="#649DB6"/>
<path fill-rule="evenodd" clip-rule="evenodd" d="M39.3751 49.3853C39.8353 49.3853 40.2084 49.7583 40.2084 50.2186V58.0311C40.2084 58.4913 39.8353 58.8644 39.3751 58.8644C38.9148 58.8644 38.5417 58.4913 38.5417 58.0311V50.2186C38.5417 49.7583 38.9148 49.3853 39.3751 49.3853Z" fill="#C8EFFF"/>
<path d="M25.6134 11.208H54.3278L57.8921 32.2303C59.0223 36.7841 56.2255 40.11 51.7607 42.4362C47.617 44.5951 44.6504 45.0132 39.9706 45.0132C35.2908 45.0132 32.3541 44.5365 28.1805 42.4362C25.1763 40.9244 20.8973 37.9299 22.049 32.2303L25.6134 11.208Z" fill="#BBE9FD"/>
<path fill-rule="evenodd" clip-rule="evenodd" d="M23.97 10.9296C24.1059 10.128 24.8002 9.5415 25.6132 9.5415H54.3277C55.1407 9.5415 55.835 10.128 55.9709 10.9296L59.5252 31.8925C60.1809 34.6036 59.6731 37.0291 58.3155 39.0866C56.9856 41.1023 54.9009 42.6795 52.5307 43.9144C48.0748 46.2359 44.8196 46.68 39.9704 46.68C35.0999 46.68 31.8922 46.17 27.4311 43.9251C25.8464 43.1277 23.7713 41.8683 22.2474 39.9359C20.6766 37.9441 19.7383 35.2886 20.4099 31.927L23.97 10.9296ZM22.0489 32.2305C20.8972 37.9301 25.1761 40.9246 28.1803 42.4363C32.354 44.5367 35.2907 45.0133 39.9704 45.0133C44.6502 45.0133 47.6169 44.5953 51.7606 42.4363C56.2253 40.1102 59.0222 36.7843 57.892 32.2305L54.3277 11.2082H25.6132L22.0489 32.2305Z" fill="#6BB3D1"/>
<path d="M39.9706 45.0132C44.6504 45.0132 47.617 44.5951 51.7607 42.4362C56.2255 40.11 59.0223 36.7841 57.8921 32.2304L56.6778 25.0681H23.2634L22.049 32.2304C20.8973 37.9299 25.1763 40.9244 28.1805 42.4362C32.3541 44.5365 35.2908 45.0132 39.9706 45.0132Z" fill="#99130C"/>
<path fill-rule="evenodd" clip-rule="evenodd" d="M56.6777 25.0683L57.892 32.2305C59.0222 36.7843 56.2253 40.1102 51.7606 42.4364C47.6169 44.5953 44.6502 45.0134 39.9704 45.0134C35.2907 45.0134 32.354 44.5367 28.1803 42.4364C25.1761 40.9246 20.8972 37.9301 22.0489 32.2305L23.2632 25.0683H56.6777ZM20.4099 31.927C19.7383 35.2886 20.6766 37.9441 22.2474 39.9359C23.7713 41.8683 25.8464 43.1277 27.4311 43.9251C31.8922 46.1701 35.0999 46.68 39.9704 46.68C44.8196 46.68 48.0748 46.2359 52.5307 43.9144C54.9009 42.6795 56.9856 41.1023 58.3155 39.0866C59.6731 37.0291 60.1809 34.6036 59.5252 31.8925L58.3208 24.7896C58.185 23.9881 57.4906 23.4016 56.6777 23.4016H23.2632C22.4503 23.4016 21.7559 23.9881 21.6201 24.7896L20.4099 31.927Z" fill="#5B0501"/>
<path d="M33.9063 37.9948C33.9063 40.9638 31.3803 41.6518 28.5938 40.9115C25.8074 40.1711 23.3855 37.6302 23.0991 34.9218C22.8127 32.2133 23.7501 29.505 26.5626 30.1302C29.3752 30.7554 33.9063 35.0258 33.9063 37.9948Z" fill="#780A04"/>
<path d="M54.2827 10.8957C54.2827 12.7134 47.8803 14.1871 39.9825 14.1871C32.0848 14.1871 25.6824 12.7134 25.6824 10.8957C25.6824 9.07784 32.0848 7.60425 39.9825 7.60425C47.8803 7.60425 54.2827 9.07784 54.2827 10.8957Z" fill="#D7F3FF"/>
<path fill-rule="evenodd" clip-rule="evenodd" d="M50.468 14.8472C47.725 15.4785 44.0187 15.8537 39.9825 15.8537C35.9462 15.8537 32.2399 15.4785 29.4969 14.8472C28.1388 14.5345 26.9246 14.1387 26.0095 13.6407C25.5528 13.3922 25.0919 13.0763 24.7273 12.6663C24.3535 12.2459 24.0156 11.6465 24.0156 10.8956C24.0156 10.1447 24.3535 9.54518 24.7273 9.12484C25.0919 8.71476 25.5528 8.39898 26.0095 8.15046C26.9246 7.65244 28.1388 7.25659 29.4969 6.944C32.2399 6.31266 35.9462 5.9375 39.9825 5.9375C44.0187 5.9375 47.725 6.31266 50.468 6.944C51.8261 7.25659 53.0403 7.65244 53.9555 8.15046C54.4121 8.39898 54.873 8.71476 55.2376 9.12484C55.6114 9.54518 55.9493 10.1447 55.9493 10.8956C55.9493 11.6465 55.6114 12.2459 55.2376 12.6663C54.873 13.0763 54.4121 13.3922 53.9555 13.6407C53.0403 14.1387 51.8261 14.5345 50.468 14.8472ZM39.9825 14.187C47.8802 14.187 54.2826 12.7133 54.2826 10.8956C54.2826 9.07776 47.8802 7.60417 39.9825 7.60417C32.0847 7.60417 25.6823 9.07776 25.6823 10.8956C25.6823 12.7133 32.0847 14.187 39.9825 14.187Z" fill="#6BB3D1"/>
<path fill-rule="evenodd" clip-rule="evenodd" d="M40.0001 9.16392C40.0073 8.70376 40.3861 8.33647 40.8463 8.34361C46.3304 8.42863 50.0148 9.79326 51.2638 10.5466C51.6579 10.7843 51.7846 11.2965 51.5469 11.6906C51.3092 12.0847 50.797 12.2114 50.4029 11.9738C49.4644 11.4077 46.0863 10.0918 40.8204 10.0101C40.3603 10.0029 39.9929 9.62409 40.0001 9.16392Z" fill="white"/>
<path d="M54.4389 33.9718C54.4389 35.1223 53.5061 36.0551 52.3555 36.0551C51.2049 36.0551 50.2722 35.1223 50.2722 33.9718C50.2722 32.8212 51.2049 31.8884 52.3555 31.8884C53.5061 31.8884 54.4389 32.8212 54.4389 33.9718Z" fill="#E3160C"/>
<path d="M51.2617 38.8935C51.2617 39.7133 50.5971 40.3779 49.7773 40.3779C48.9576 40.3779 48.293 39.7133 48.293 38.8935C48.293 38.0738 48.9576 37.4092 49.7773 37.4092C50.5971 37.4092 51.2617 38.0738 51.2617 38.8935Z" fill="#E3160C"/>
<path d="M47.2252 38.4898C47.2252 39.1119 46.721 39.6161 46.0989 39.6161C45.4769 39.6161 44.9727 39.1119 44.9727 38.4898C44.9727 37.8678 45.4769 37.3635 46.0989 37.3635C46.721 37.3635 47.2252 37.8678 47.2252 38.4898Z" fill="#E3160C"/>
<path d="M51.3986 30.0394C51.3986 30.6615 50.8943 31.1658 50.2723 31.1658C49.6502 31.1658 49.146 30.6615 49.146 30.0394C49.146 29.4174 49.6502 28.9131 50.2723 28.9131C50.8943 28.9131 51.3986 29.4174 51.3986 30.0394Z" fill="#E3160C"/>
<path d="M51.9911 26.4001C51.9911 26.7704 51.6908 27.0707 51.3205 27.0707C50.9502 27.0707 50.6499 26.7704 50.6499 26.4001C50.6499 26.0297 50.9502 25.7295 51.3205 25.7295C51.6908 25.7295 51.9911 26.0297 51.9911 26.4001Z" fill="#E3160C"/>
<path d="M55.1094 24.551C55.1094 24.9213 54.8092 25.2215 54.4389 25.2215C54.0685 25.2215 53.7683 24.9213 53.7683 24.551C53.7683 24.1806 54.0685 23.8804 54.4389 23.8804C54.8092 23.8804 55.1094 24.1806 55.1094 24.551Z" fill="#E3160C"/>
<path d="M44.5886 40.5536C44.5886 40.924 44.2885 41.2242 43.9181 41.2242C43.5477 41.2242 43.2476 40.924 43.2476 40.5536C43.2476 40.1833 43.5477 39.8831 43.9181 39.8831C44.2885 39.8831 44.5886 40.1833 44.5886 40.5536Z" fill="#E3160C"/>
<path d="M41.3412 42.6629C41.3412 43.0333 41.0409 43.3335 40.6706 43.3335C40.3002 43.3335 40 43.0333 40 42.6629C40 42.2926 40.3002 41.9924 40.6706 41.9924C41.0409 41.9924 41.3412 42.2926 41.3412 42.6629Z" fill="#E3160C"/>
<path d="M44.9728 36.0551C44.9728 36.4254 44.6725 36.7256 44.3022 36.7256C43.9318 36.7256 43.6316 36.4254 43.6316 36.0551C43.6316 35.6847 43.9318 35.3845 44.3022 35.3845C44.6725 35.3845 44.9728 35.6847 44.9728 36.0551Z" fill="#E3160C"/>
<path d="M47.7982 30.2084C47.7982 30.5788 47.498 30.879 47.1276 30.879C46.7573 30.879 46.457 30.5788 46.457 30.2084C46.457 29.8381 46.7573 29.5378 47.1276 29.5378C47.498 29.5378 47.7982 29.8381 47.7982 30.2084Z" fill="#E3160C"/>
<path d="M48.7097 33.9717C48.7097 34.7915 48.0451 35.4561 47.2253 35.4561C46.4056 35.4561 45.741 34.7915 45.741 33.9717C45.741 33.1519 46.4056 32.4873 47.2253 32.4873C48.0451 32.4873 48.7097 33.1519 48.7097 33.9717Z" fill="#E3160C"/>
<path d="M55.9233 28.555C55.9233 29.3747 55.2588 30.0393 54.439 30.0393C53.6192 30.0393 52.9546 29.3747 52.9546 28.555C52.9546 27.7351 53.6192 27.0706 54.439 27.0706C55.2588 27.0706 55.9233 27.7351 55.9233 28.555Z" fill="#E3160C"/>
<path d="M57.1473 32.9168C57.1473 33.3412 56.8033 33.6851 56.3791 33.6851C55.9548 33.6851 55.6108 33.3412 55.6108 32.9168C55.6108 32.4926 55.9548 32.1487 56.3791 32.1487C56.8033 32.1487 57.1473 32.4926 57.1473 32.9168Z" fill="#E3160C"/>
<path d="M54.4388 37.7216C54.4388 38.1459 54.0948 38.4898 53.6706 38.4898C53.2463 38.4898 52.9023 38.1459 52.9023 37.7216C52.9023 37.2973 53.2463 36.9534 53.6706 36.9534C54.0948 36.9534 54.4388 37.2973 54.4388 37.7216Z" fill="#E3160C"/>
<path d="M47.2254 41.9926C47.2254 42.4169 46.8815 42.7608 46.4571 42.7608C46.0329 42.7608 45.689 42.4169 45.689 41.9926C45.689 41.5683 46.0329 41.2244 46.4571 41.2244C46.8815 41.2244 47.2254 41.5683 47.2254 41.9926Z" fill="#E3160C"/>
<path d="M56.6667 25.1613C56.6667 27.2782 49.2106 28.9944 40.013 28.9944C30.8155 28.9944 23.3594 27.2782 23.3594 25.1613C23.3594 23.0443 30.8155 21.3281 40.013 21.3281C49.2106 21.3281 56.6667 23.0443 56.6667 25.1613Z" fill="#C12F28"/>
<path fill-rule="evenodd" clip-rule="evenodd" d="M52.1627 29.496C48.9939 30.2254 44.6991 30.6612 40.013 30.6612C35.3269 30.6612 31.0321 30.2254 27.8632 29.496C26.2922 29.1345 24.9057 28.6802 23.8715 28.1174C23.3552 27.8365 22.848 27.4866 22.4521 27.0413C22.047 26.5857 21.6926 25.9498 21.6926 25.1615C21.6926 24.3731 22.047 23.7371 22.4521 23.2815C22.848 22.8362 23.3552 22.4864 23.8715 22.2055C24.9057 21.6426 26.2922 21.1885 27.8632 20.8268C31.0321 20.0975 35.3269 19.6616 40.013 19.6616C44.6991 19.6616 48.9939 20.0975 52.1627 20.8268C53.7338 21.1885 55.1203 21.6426 56.1545 22.2055C56.6708 22.4864 57.178 22.8362 57.5739 23.2815C57.979 23.7371 58.3333 24.3731 58.3333 25.1615C58.3333 25.9498 57.979 26.5857 57.5739 27.0413C57.178 27.4866 56.6708 27.8365 56.1545 28.1174C55.1203 28.6802 53.7338 29.1345 52.1627 29.496ZM40.013 28.9945C49.2105 28.9945 56.6666 27.2784 56.6666 25.1615C56.6666 23.0445 49.2105 21.3283 40.013 21.3283C30.8155 21.3283 23.3593 23.0445 23.3593 25.1615C23.3593 27.2784 30.8155 28.9945 40.013 28.9945Z" fill="#6C0905"/>
<path d="M43.9843 25.7296C43.9843 26.9511 39.682 27.9413 34.375 27.9413C29.0679 27.9413 24.7656 26.9511 24.7656 25.7296C24.7656 24.5081 29.0679 23.5178 34.375 23.5178C39.682 23.5178 43.9843 24.5081 43.9843 25.7296Z" fill="#A91A13"/>
<path fill-rule="evenodd" clip-rule="evenodd" d="M43.1277 23.1215C43.1641 22.6627 43.5656 22.3202 44.0243 22.3567C46.6427 22.5645 50.9646 23.0902 53.6018 24.189C54.0267 24.366 54.2276 24.8539 54.0506 25.2787C53.8736 25.7036 53.3857 25.9045 52.9608 25.7275C50.598 24.743 46.5242 24.227 43.8925 24.0182C43.4337 23.9817 43.0912 23.5802 43.1277 23.1215Z" fill="#F93F35"/>
<path fill-rule="evenodd" clip-rule="evenodd" d="M25.3903 30.3428C25.8395 30.4433 26.1221 30.8888 26.0217 31.3378L26.0208 31.3419L26.0175 31.3569L26.0042 31.418C25.9927 31.4718 25.976 31.5509 25.956 31.65C25.9157 31.8484 25.862 32.1253 25.8085 32.4389C25.6989 33.0805 25.599 33.8223 25.599 34.3591C25.599 35.4396 25.8614 36.4747 26.6801 37.3616C26.9923 37.6998 26.9712 38.227 26.633 38.5392C26.2948 38.8513 25.7676 38.8303 25.4555 38.4921C24.2741 37.2123 23.9323 35.7265 23.9324 34.3591C23.9324 33.6719 24.0539 32.8122 24.1656 32.1583C24.2227 31.824 24.2798 31.5297 24.3225 31.3188C24.344 31.2131 24.3619 31.128 24.3745 31.0688L24.3895 31.0001L24.3935 30.9815L24.395 30.9748C24.395 30.9748 24.3952 30.9741 25.2084 31.156L24.395 30.9748C24.4955 30.5258 24.9412 30.2423 25.3903 30.3428Z" fill="#E8291F"/>
<path fill-rule="evenodd" clip-rule="evenodd" d="M27.9043 15.5436C28.3576 15.6231 28.6607 16.0549 28.5813 16.5082L27.3313 23.6436C27.2519 24.097 26.82 24.4001 26.3666 24.3207C25.9133 24.2413 25.6102 23.8094 25.6896 23.3561L26.9396 16.2206C27.0191 15.7673 27.451 15.4642 27.9043 15.5436Z" fill="white"/>
</svg>
